<?xml version="1.0" encoding="utf-8"?>
<!-- Generator: Adobe Illustrator 16.0.0, SVG Export Plug-In . SVG Version: 6.00 Build 0)  -->
<!DOCTYPE svg PUBLIC "-//W3C//DTD SVG 1.1//EN" "http://www.w3.org/Graphics/SVG/1.1/DTD/svg11.dtd">
<svg version="1.1" id="Layer_1" xmlns="http://www.w3.org/2000/svg" xmlns:xlink="http://www.w3.org/1999/xlink" x="0px" y="0px"
	 width="185.333px" height="100px" viewBox="0 0 185.333 100" enable-background="new 0 0 185.333 100" xml:space="preserve">
<g>
	<path fill="#FFFFFF" d="M4.477,46.301c0.993-2.523,2.471-4.842,4.429-6.957c1.958-2.113,4.35-3.864,7.18-5.253
		c2.828-1.387,6.106-2.082,9.836-2.082c2.361,0,4.506,0.253,6.433,0.757c1.926,0.505,3.589,1.215,4.988,2.129
		c1.399,0.916,2.485,2.021,3.263,3.313c0.777,1.294,1.166,2.73,1.166,4.307c0,2.082-0.528,3.549-1.584,4.401
		c-1.058,0.851-2.55,1.277-4.476,1.277c-1.431,0-2.751-0.268-3.963-0.805c-1.211-0.535-1.818-1.656-1.818-3.36
		c0-0.25,0.077-0.693,0.233-1.324c0.155-0.63,0.311-1.292,0.467-1.988c0.154-0.693,0.31-1.356,0.466-1.988
		c0.155-0.629,0.233-1.072,0.233-1.325c0-1.261-0.545-2.255-1.631-2.981c-1.089-0.725-2.44-1.088-4.057-1.088
		c-2.237,0-4.009,0.537-5.314,1.609c-1.305,1.073-2.316,2.508-3.03,4.306c-0.715,1.798-1.182,3.881-1.398,6.247
		c-0.219,2.366-0.327,4.876-0.327,7.523c0,2.461,0.093,4.922,0.28,7.383c0.186,2.459,0.683,4.701,1.492,6.721
		c0.807,2.02,1.989,3.661,3.543,4.922c1.553,1.264,3.667,1.895,6.34,1.895c2.547,0,4.692-0.459,6.433-1.373
		c1.74-0.914,3.138-1.988,4.196-3.219c1.056-1.229,1.849-2.461,2.376-3.69c0.528-1.229,0.854-2.13,0.98-2.698l1.305,0.475
		c-0.312,1.135-0.792,2.383-1.445,3.738c-0.652,1.357-1.601,2.618-2.843,3.786c-1.244,1.168-2.844,2.162-4.802,2.981
		c-1.958,0.818-4.428,1.229-7.413,1.229c-0.809,0-1.943-0.077-3.402-0.234c-1.462-0.16-3.046-0.508-4.756-1.041
		c-1.709-0.535-3.435-1.277-5.174-2.225c-1.741-0.945-3.342-2.225-4.802-3.834c-1.46-1.607-2.643-3.58-3.542-5.915
		c-0.902-2.334-1.352-5.11-1.352-8.328C2.985,51.255,3.481,48.826,4.477,46.301z"/>
	<path fill="#FFFFFF" d="M55.849,2.953v94.552h-1.864V2.953H55.849z"/>
	<path fill="#FFFFFF" d="M81.115,54.439c0,2.271,0.093,4.562,0.279,6.863c0.187,2.305,0.684,4.387,1.493,6.245
		c0.807,1.862,1.988,3.394,3.542,4.593c1.554,1.197,3.73,1.797,6.527,1.797c2.486,0,4.583-0.474,6.294-1.42
		c1.709-0.947,3.106-2.035,4.193-3.267c1.088-1.229,1.896-2.444,2.426-3.646c0.526-1.196,0.822-2.08,0.887-2.648l1.305,0.475
		c-0.312,1.198-0.839,2.478-1.585,3.834c-0.746,1.355-1.772,2.618-3.077,3.783c-1.305,1.17-2.922,2.146-4.848,2.936
		c-1.928,0.787-4.258,1.183-6.993,1.183c-3.232,0-6.247-0.489-9.043-1.466c-2.797-0.979-5.238-2.396-7.319-4.26
		c-2.083-1.858-3.715-4.131-4.896-6.813c-1.181-2.683-1.771-5.726-1.771-9.134c0-2.713,0.559-5.362,1.677-7.95
		c1.12-2.587,2.658-4.875,4.616-6.862c1.957-1.988,4.256-3.597,6.899-4.828c2.641-1.23,5.485-1.845,8.532-1.845
		c2.175,0,4.35,0.347,6.526,1.04c2.175,0.695,4.134,1.767,5.873,3.218c1.74,1.453,3.171,3.329,4.29,5.632
		c1.118,2.303,1.678,5.063,1.678,8.28H81.115V54.439z M96.032,42.515c0-0.694-0.031-1.546-0.093-2.556
		c-0.063-1.008-0.28-2.019-0.653-3.029c-0.373-1.008-0.979-1.861-1.818-2.555c-0.838-0.694-2.004-1.041-3.495-1.041
		c-2.114,0-3.746,0.505-4.895,1.514c-1.151,1.01-2.005,2.288-2.564,3.833c-0.56,1.546-0.918,3.218-1.072,5.016
		c-0.156,1.798-0.266,3.518-0.326,5.158h14.917V42.515z"/>
	<path fill="#FFFFFF" d="M123.165,2.953v94.552h-1.865V2.953H123.165z"/>
	<path fill="#FFFFFF" d="M176.075,74.79c-1.648,0.251-3.187,0.377-4.615,0.377c-3.17,0-5.518-0.565-7.039-1.702
		c-1.524-1.136-2.473-2.711-2.844-4.73h-0.188c-0.995,2.524-2.363,4.228-4.102,5.108c-1.74,0.884-4.261,1.324-7.555,1.324
		c-1.49,0-3.016-0.157-4.566-0.474c-1.557-0.316-2.984-0.817-4.289-1.512c-1.307-0.695-2.363-1.658-3.172-2.889
		c-0.809-1.229-1.211-2.729-1.211-4.495c0-1.83,0.354-3.36,1.07-4.591c0.714-1.23,1.646-2.271,2.799-3.122
		c1.148-0.854,2.453-1.547,3.917-2.084c1.46-0.535,2.966-1.056,4.521-1.562c2.549-0.758,4.615-1.402,6.201-1.94
		c1.584-0.535,2.812-1.104,3.683-1.702c0.87-0.601,1.476-1.278,1.819-2.037c0.34-0.756,0.511-1.733,0.511-2.933v-5.773
		c0-1.704-0.403-3.25-1.212-4.638c-0.809-1.387-2.331-2.082-4.568-2.082c-1.429,0-2.674,0.331-3.729,0.993
		c-1.059,0.662-1.584,1.878-1.584,3.644c0,0.189,0.029,0.521,0.094,0.994c0.061,0.473,0.124,0.994,0.186,1.562
		c0.062,0.567,0.123,1.104,0.187,1.609c0.062,0.505,0.095,0.851,0.095,1.04c0,0.947-0.22,1.689-0.652,2.225
		c-0.436,0.537-0.949,0.932-1.537,1.183c-0.594,0.254-1.213,0.395-1.865,0.427c-0.653,0.032-1.197,0.046-1.633,0.046
		c-0.623,0-1.26-0.046-1.912-0.141c-0.652-0.095-1.227-0.315-1.725-0.663c-0.498-0.346-0.918-0.835-1.259-1.467
		c-0.343-0.629-0.512-1.481-0.512-2.555c0-1.64,0.448-3.107,1.351-4.402c0.901-1.292,2.1-2.365,3.59-3.217
		c1.491-0.853,3.186-1.499,5.082-1.94c1.896-0.441,3.868-0.662,5.92-0.662c2.362,0,4.582,0.189,6.668,0.567
		c2.082,0.378,3.883,1.074,5.406,2.082c1.521,1.01,2.734,2.383,3.637,4.117c0.899,1.736,1.353,3.928,1.353,6.578v23.472
		c0,1.199,0.171,2.257,0.515,3.17c0.338,0.917,1.192,1.374,2.562,1.374c0.807,0,1.476-0.158,2.004-0.474
		c0.527-0.314,1.04-0.756,1.538-1.326l0.839,0.853C178.979,73.748,177.72,74.537,176.075,74.79z M160.831,50.465
		c-0.127,0.381-0.357,0.744-0.701,1.088c-0.342,0.348-0.946,0.742-1.817,1.186c-1.181,0.566-2.36,1.121-3.542,1.656
		s-2.238,1.215-3.17,2.033c-0.932,0.821-1.695,1.831-2.284,3.029c-0.592,1.197-0.886,2.745-0.886,4.639
		c0,0.756,0.045,1.643,0.14,2.649c0.095,1.01,0.343,1.987,0.746,2.935c0.404,0.945,1.009,1.752,1.817,2.412
		c0.808,0.663,1.926,0.995,3.357,0.995c0.807,0,1.598-0.19,2.377-0.569c0.775-0.377,1.477-0.961,2.098-1.75
		c0.621-0.787,1.119-1.828,1.49-3.123c0.375-1.295,0.561-2.854,0.561-4.687V50.465H160.831z"/>
</g>
</svg>
