<?xml version="1.0" encoding="utf-8"?>
<!-- Generator: Adobe Illustrator 16.0.0, SVG Export Plug-In . SVG Version: 6.00 Build 0)  -->
<!DOCTYPE svg PUBLIC "-//W3C//DTD SVG 1.1//EN" "http://www.w3.org/Graphics/SVG/1.1/DTD/svg11.dtd">
<svg version="1.1" id="Layer_1" xmlns="http://www.w3.org/2000/svg" xmlns:xlink="http://www.w3.org/1999/xlink" x="0px" y="0px"
	 width="25px" height="25px" viewBox="0 0 25 25" enable-background="new 0 0 25 25" xml:space="preserve">
<g>
	<path fill="#6CBDFF" d="M2.225,16.355c0.124,1.697,0.656,3.334,1.197,3.379c0.924,0.069,2.479-3.974,2.284-11.32
		c-0.018-0.35,0.19-0.446,0.516-0.379c0.37,0.088,0.667,0.184,1.003,0.435c0.292,0.229,0.406,0.486,0.461,0.989
		c0.365,3.461-0.215,7.201-1.004,9.216C5.89,20.73,4.665,20.96,3.825,20.972c-0.523,0.006-1.398-0.081-2.044-0.46
		c-0.788-0.457-1.174-1.346-1.227-2.449c-0.05-1.144,0.508-1.763,1.138-2.032C1.982,15.902,2.188,15.902,2.225,16.355z"/>
	<path fill="#6CBDFF" d="M8.457,14.607c-0.167-2.168,0.706-5.677,2.02-7.588c0.546-0.803,1.241-1.303,2.298-1.077
		c0.549,0.115,1.037,0.271,1.56,0.565c0.669,0.388,1.109,1.274,1.315,2.435c0.314,1.757,0.194,5.68-1.644,8.047
		c-0.469,0.604-1.185,1.002-2.156,1.005c-0.545-0.003-1.167-0.165-1.708-0.414C9.531,17.3,8.628,16.735,8.457,14.607z
		 M11.266,16.825c0.592,0.23,1.587-1.076,2.131-4.257c0.548-3.219,0.197-5.075-0.262-5.299c-0.569-0.275-1.712,1.948-2.221,4.665
		C10.418,14.591,10.765,16.635,11.266,16.825z"/>
	<path fill="#6CBDFF" d="M22.824,9.128c1.288,0.852,0.789,1.975,0.48,2.613c-0.633,1.321-2.505,3.045-4.665,3.887
		c-0.265,0.099-0.509,0.094-0.734-0.011c-0.248-0.113-0.508-0.205-0.816-0.332c-0.312-0.13-0.45-0.304-0.433-0.759
		c0.104-2.399,0.554-5.938,1.076-8.417c-0.292-0.229-0.512-0.373-0.753-0.564c-0.313-0.24-0.336-0.4-0.077-0.665
		c0.853-0.879,2.078-1.67,3.22-2.075c1.127-0.399,2.34-0.362,3.511,0.422c1.124,0.763,0.801,1.858,0.536,2.555
		c-0.319,0.811-1.104,1.927-2.153,2.936C22.273,8.808,22.552,8.949,22.824,9.128z M18.57,13.723
		c1.896-1.152,3.662-3.307,3.014-3.797c-0.315-0.238-1.426,0.248-2.658,1.173C18.783,11.976,18.675,12.842,18.57,13.723z
		 M22.398,4.04c-0.261-0.296-1.494,0.368-2.262,1.026c-0.285,1.099-0.53,2.258-0.772,3.472C21.345,7.11,22.953,4.678,22.398,4.04z"
		/>
</g>
</svg>
