<?xml version="1.0" encoding="utf-8"?>
<!-- Generator: Adobe Illustrator 16.0.0, SVG Export Plug-In . SVG Version: 6.00 Build 0)  -->
<!DOCTYPE svg PUBLIC "-//W3C//DTD SVG 1.1//EN" "http://www.w3.org/Graphics/SVG/1.1/DTD/svg11.dtd">
<svg version="1.1" id="Layer_1" xmlns="http://www.w3.org/2000/svg" xmlns:xlink="http://www.w3.org/1999/xlink" x="0px" y="0px"
	 width="50px" height="50px" viewBox="0 0 50 50" enable-background="new 0 0 50 50" xml:space="preserve">
<path d="M6.477,18.301c0.993-2.523,2.471-4.842,4.429-6.957c1.958-2.113,4.35-3.864,7.18-5.253c2.828-1.387,6.106-2.082,9.836-2.082
	c2.361,0,4.506,0.253,6.434,0.757c1.926,0.505,3.588,1.215,4.987,2.129c1.399,0.916,2.485,2.021,3.263,3.313
	c0.777,1.294,1.166,2.73,1.166,4.307c0,2.082-0.527,3.549-1.584,4.401c-1.058,0.851-2.549,1.277-4.476,1.277
	c-1.431,0-2.751-0.268-3.963-0.805c-1.211-0.535-1.817-1.656-1.817-3.36c0-0.25,0.076-0.693,0.232-1.324
	c0.154-0.63,0.311-1.292,0.467-1.988c0.154-0.693,0.311-1.356,0.467-1.988c0.154-0.629,0.232-1.072,0.232-1.325
	c0-1.261-0.545-2.255-1.631-2.981c-1.09-0.725-2.44-1.088-4.057-1.088c-2.238,0-4.01,0.537-5.314,1.609
	c-1.305,1.073-2.316,2.508-3.03,4.306c-0.715,1.798-1.182,3.881-1.398,6.247c-0.219,2.366-0.327,4.876-0.327,7.523
	c0,2.461,0.093,4.922,0.28,7.383c0.186,2.459,0.683,4.701,1.492,6.721c0.807,2.02,1.989,3.661,3.543,4.922
	c1.553,1.264,3.667,1.895,6.34,1.895c2.547,0,4.691-0.459,6.433-1.373c1.739-0.914,3.138-1.988,4.196-3.219
	c1.056-1.229,1.849-2.461,2.375-3.69c0.528-1.229,0.854-2.13,0.98-2.698l1.305,0.475c-0.312,1.135-0.791,2.383-1.444,3.738
	c-0.652,1.357-1.601,2.618-2.843,3.786c-1.244,1.168-2.845,2.162-4.803,2.981c-1.957,0.818-4.428,1.229-7.412,1.229
	c-0.81,0-1.943-0.077-3.403-0.234c-1.462-0.16-3.046-0.508-4.756-1.041c-1.709-0.535-3.435-1.277-5.174-2.225
	c-1.741-0.945-3.342-2.225-4.802-3.834c-1.46-1.607-2.643-3.58-3.542-5.915c-0.902-2.334-1.352-5.11-1.352-8.328
	C4.985,23.255,5.481,20.826,6.477,18.301z"/>
</svg>
