<?xml version="1.0" encoding="utf-8"?>
<!-- Generator: Adobe Illustrator 16.0.0, SVG Export Plug-In . SVG Version: 6.00 Build 0)  -->
<!DOCTYPE svg PUBLIC "-//W3C//DTD SVG 1.1//EN" "http://www.w3.org/Graphics/SVG/1.1/DTD/svg11.dtd">
<svg version="1.1" id="Layer_1" xmlns="http://www.w3.org/2000/svg" xmlns:xlink="http://www.w3.org/1999/xlink" x="0px" y="0px"
	 width="50px" height="50px" viewBox="0 0 50 50" enable-background="new 0 0 50 50" xml:space="preserve">
<path d="M43.074,46.79c-1.648,0.251-3.186,0.377-4.615,0.377c-3.17,0-5.518-0.565-7.039-1.702c-1.523-1.136-2.473-2.711-2.844-4.73
	h-0.188c-0.994,2.524-2.363,4.228-4.101,5.108c-1.74,0.884-4.261,1.324-7.555,1.324c-1.49,0-3.016-0.157-4.566-0.474
	c-1.557-0.316-2.984-0.817-4.289-1.512c-1.307-0.695-2.363-1.658-3.172-2.889c-0.809-1.229-1.211-2.729-1.211-4.495
	c0-1.83,0.354-3.36,1.07-4.591c0.714-1.23,1.646-2.271,2.799-3.122c1.148-0.854,2.453-1.547,3.917-2.084
	c1.46-0.535,2.966-1.056,4.521-1.562c2.549-0.758,4.615-1.402,6.201-1.94c1.584-0.535,2.812-1.104,3.683-1.702
	c0.87-0.601,1.475-1.278,1.819-2.037c0.34-0.756,0.512-1.733,0.512-2.933v-5.773c0-1.704-0.404-3.25-1.213-4.638
	c-0.808-1.387-2.331-2.082-4.568-2.082c-1.429,0-2.674,0.331-3.729,0.993c-1.059,0.662-1.584,1.878-1.584,3.644
	c0,0.189,0.029,0.521,0.094,0.994c0.061,0.473,0.124,0.994,0.186,1.562c0.062,0.567,0.123,1.104,0.187,1.609
	c0.062,0.505,0.095,0.851,0.095,1.04c0,0.947-0.22,1.689-0.652,2.225c-0.436,0.537-0.949,0.932-1.537,1.183
	c-0.594,0.254-1.213,0.395-1.865,0.427c-0.653,0.032-1.197,0.046-1.633,0.046c-0.623,0-1.26-0.046-1.912-0.141
	c-0.652-0.095-1.227-0.315-1.725-0.663c-0.498-0.346-0.918-0.835-1.259-1.467c-0.343-0.629-0.512-1.481-0.512-2.555
	c0-1.64,0.448-3.107,1.351-4.402c0.901-1.292,2.1-2.365,3.59-3.217c1.491-0.853,3.186-1.499,5.082-1.94
	c1.896-0.441,3.868-0.662,5.92-0.662c2.362,0,4.582,0.189,6.667,0.567c2.082,0.378,3.883,1.074,5.406,2.082
	c1.521,1.01,2.734,2.383,3.637,4.117c0.9,1.736,1.354,3.928,1.354,6.578v23.472c0,1.199,0.17,2.257,0.514,3.17
	c0.338,0.917,1.193,1.374,2.562,1.374c0.807,0,1.477-0.158,2.004-0.474c0.527-0.314,1.041-0.756,1.539-1.326l0.838,0.853
	C45.979,45.748,44.721,46.537,43.074,46.79z M27.83,22.465c-0.127,0.381-0.357,0.744-0.701,1.088
	c-0.342,0.348-0.945,0.742-1.817,1.186c-1.181,0.566-2.36,1.121-3.542,1.656s-2.238,1.215-3.17,2.033
	c-0.932,0.821-1.695,1.831-2.284,3.029c-0.592,1.197-0.886,2.745-0.886,4.639c0,0.756,0.045,1.643,0.14,2.649
	c0.095,1.01,0.343,1.987,0.746,2.935c0.404,0.945,1.009,1.752,1.817,2.412c0.808,0.663,1.926,0.995,3.357,0.995
	c0.807,0,1.598-0.19,2.377-0.569c0.775-0.377,1.477-0.961,2.098-1.75c0.621-0.787,1.119-1.828,1.49-3.123
	c0.375-1.295,0.561-2.854,0.561-4.687V22.465H27.83z"/>
</svg>
