<?xml version="1.0" encoding="utf-8"?>
<!-- Generator: Adobe Illustrator 16.0.0, SVG Export Plug-In . SVG Version: 6.00 Build 0)  -->
<!DOCTYPE svg PUBLIC "-//W3C//DTD SVG 1.1//EN" "http://www.w3.org/Graphics/SVG/1.1/DTD/svg11.dtd">
<svg version="1.1" id="Layer_1" xmlns="http://www.w3.org/2000/svg" xmlns:xlink="http://www.w3.org/1999/xlink" x="0px" y="0px"
	 width="50px" height="50px" viewBox="0 0 50 50" enable-background="new 0 0 50 50" xml:space="preserve">
<path d="M18.115,26.439c0,2.271,0.093,4.562,0.279,6.863c0.187,2.305,0.684,4.387,1.493,6.245c0.807,1.862,1.988,3.394,3.542,4.593
	c1.554,1.197,3.73,1.797,6.527,1.797c2.485,0,4.583-0.474,6.294-1.42c1.709-0.947,3.107-2.035,4.193-3.267
	c1.088-1.229,1.896-2.444,2.426-3.646c0.527-1.196,0.822-2.08,0.887-2.648l1.305,0.475c-0.312,1.198-0.838,2.478-1.584,3.834
	c-0.746,1.355-1.773,2.618-3.078,3.783c-1.305,1.17-2.922,2.146-4.848,2.936c-1.928,0.787-4.258,1.183-6.992,1.183
	c-3.232,0-6.248-0.489-9.043-1.466c-2.797-0.979-5.238-2.396-7.319-4.26c-2.083-1.858-3.715-4.131-4.896-6.813
	c-1.181-2.683-1.771-5.726-1.771-9.134c0-2.713,0.559-5.362,1.677-7.95c1.12-2.587,2.658-4.875,4.616-6.862
	c1.957-1.988,4.256-3.597,6.899-4.828c2.641-1.23,5.485-1.845,8.532-1.845c2.175,0,4.351,0.347,6.526,1.04
	c2.174,0.695,4.133,1.767,5.873,3.218c1.74,1.453,3.17,3.329,4.289,5.632c1.119,2.303,1.678,5.063,1.678,8.28H18.115V26.439z
	 M33.031,14.515c0-0.694-0.031-1.546-0.092-2.556c-0.064-1.008-0.281-2.019-0.654-3.029c-0.373-1.008-0.979-1.861-1.818-2.555
	c-0.838-0.694-2.004-1.041-3.494-1.041c-2.115,0-3.747,0.505-4.896,1.514c-1.151,1.01-2.005,2.288-2.564,3.833
	c-0.56,1.546-0.918,3.218-1.072,5.016c-0.156,1.798-0.266,3.518-0.326,5.158h14.916V14.515z"/>
</svg>
