<?xml version="1.0" encoding="utf-8"?>
<!-- Generator: Adobe Illustrator 16.0.0, SVG Export Plug-In . SVG Version: 6.00 Build 0)  -->
<!DOCTYPE svg PUBLIC "-//W3C//DTD SVG 1.1//EN" "http://www.w3.org/Graphics/SVG/1.1/DTD/svg11.dtd">
<svg version="1.1" id="Layer_1" xmlns="http://www.w3.org/2000/svg" xmlns:xlink="http://www.w3.org/1999/xlink" x="0px" y="0px"
	 width="300px" height="300px" viewBox="0 0 300 300" enable-background="new 0 0 300 300" xml:space="preserve">
<g>
	<path fill="#6CBDFF" d="M298.586,150c0,6.987-8.456,13.295-9.414,20.017c-0.981,6.891,5.35,15.313,3.432,21.854
		c-1.95,6.655-11.844,10.322-14.688,16.541c-2.877,6.289,0.811,16.165-2.902,21.931c-3.735,5.8-14.259,6.529-18.761,11.721
		c-4.512,5.202-3.745,15.721-8.947,20.231c-5.191,4.503-15.494,2.257-21.295,5.991c-5.765,3.713-7.981,14.028-14.27,16.904
		c-6.22,2.845-15.464-2.215-22.119-0.264c-6.541,1.917-11.585,11.184-18.475,12.165c-6.723,0.958-14.159-6.506-21.146-6.506
		s-14.423,7.464-21.146,6.506c-6.89-0.981-11.935-10.248-18.476-12.166c-6.655-1.95-15.9,3.109-22.12,0.265
		c-6.288-2.877-8.504-13.191-14.27-16.904c-5.8-3.735-16.103-1.489-21.294-5.992c-5.202-4.511-4.436-15.029-8.946-20.231
		c-4.502-5.191-15.026-5.92-18.762-11.721c-3.712-5.766-0.025-15.642-2.902-21.93c-2.845-6.22-12.737-9.886-14.688-16.541
		c-1.917-6.541,4.413-14.964,3.431-21.854C9.87,163.295,1.414,156.987,1.414,150s8.456-13.294,9.414-20.017
		c0.982-6.89-5.349-15.313-3.431-21.854c1.951-6.655,11.844-10.322,14.688-16.541c2.876-6.288-0.81-16.164,2.903-21.929
		c3.735-5.8,14.259-6.53,18.761-11.722c4.511-5.202,3.745-15.721,8.947-20.231c5.192-4.502,15.494-2.256,21.294-5.992
		C79.755,28,81.972,17.686,88.26,14.81c6.219-2.845,15.465,2.215,22.12,0.264c6.541-1.917,11.584-11.184,18.475-12.166
		C135.577,1.95,143.013,9.414,150,9.414s14.424-7.464,21.146-6.506c6.891,0.982,11.935,10.248,18.476,12.166
		c6.655,1.951,15.9-3.108,22.119-0.264c6.289,2.876,8.505,13.191,14.271,16.904c5.8,3.735,16.104,1.489,21.295,5.992
		c5.201,4.511,4.436,15.03,8.946,20.232c4.503,5.191,15.026,5.921,18.761,11.722c3.713,5.765,0.026,15.641,2.902,21.929
		c2.845,6.219,12.738,9.887,14.688,16.542c1.918,6.541-4.413,14.963-3.432,21.854C290.13,136.705,298.586,143.013,298.586,150z"/>
</g>
</svg>
