<?xml version="1.0" encoding="utf-8"?>
<!-- Generator: Adobe Illustrator 16.0.0, SVG Export Plug-In . SVG Version: 6.00 Build 0)  -->
<!DOCTYPE svg PUBLIC "-//W3C//DTD SVG 1.1//EN" "http://www.w3.org/Graphics/SVG/1.1/DTD/svg11.dtd">
<svg version="1.1" id="Layer_1" xmlns="http://www.w3.org/2000/svg" xmlns:xlink="http://www.w3.org/1999/xlink" x="0px" y="0px"
	 width="1000px" height="80px" viewBox="0 0 1000 80" enable-background="new 0 0 1000 80" xml:space="preserve">
<g>
	<path fill="#6CBDFF" d="M12.34,69.175c-0.428,0.991-0.782,1.906-1.072,2.718c-0.296,0.783-0.529,0.806-1.03,0.443
		c-0.388-0.267-0.603-0.427-0.851-0.727c-0.533-0.502-0.64-1.104-0.283-2.137c1.291-3.718,5.125-12.546,7.708-17.245
		c0.314-0.578,0.582-0.967,1.596-0.694c1.015,0.273,1.245,0.369,2.167,0.752c1.082,0.436,0.965,0.97,0.903,1.728
		c-0.437,4.713-0.658,11.133-0.28,15.243c0.039,0.556-0.146,0.659-0.666,0.6c-0.398-0.057-0.68-0.112-1.309-0.385
		c-0.564-0.257-0.79-0.592-0.903-1.341c-0.056-0.374-0.103-0.839-0.17-1.389C16.332,67.367,14.373,68.173,12.34,69.175z
		 M18.013,64.064c-0.098-2.626-0.031-5.708,0.172-7.808c-1.216,2.482-2.854,5.984-4.325,9.297
		C15.391,64.964,16.709,64.482,18.013,64.064z"/>
	<path fill="#6CBDFF" d="M22.507,64.728c2.476,1.069,4.688,1.364,6.328,0.988c1.102-0.253,1.43-0.895,0.712-1.563
		c-0.601-0.546-3.428-1.832-4.753-2.808c-1.609-1.178-1.72-2.7-1.206-4.217c1.32-3.844,3.695-6.206,5.402-7.58
		c1.08-0.873,2.13-1.352,3.452-0.912c0.839,0.284,1.976,0.826,2.577,1.372c0.67,0.59,0.777,1.31,0.625,2.208
		c-0.365,2.168-1.353,4.478-2.312,6.127c-0.277,0.479-0.568,0.636-1.021,0.354c-0.416-0.262-0.886-0.749-1.104-1.056
		c-0.314-0.464-0.228-0.99-0.091-1.557c0.351-1.331,1.632-4.69,1.051-4.884c-0.67-0.203-3.714,3.263-4.627,5.765
		c-0.639,1.754,0.012,2.26,0.791,2.795c0.778,0.535,2.46,1.251,3.349,1.88c1.061,0.738,1.843,1.809,1.009,3.489
		c-1.078,2.181-2.717,2.946-3.847,3.205c-1.443,0.331-3.574,0.254-5.528-0.873c-0.892-0.511-1.342-1.181-1.507-2.155
		C21.705,64.733,22.047,64.537,22.507,64.728z"/>
	<path fill="#6CBDFF" d="M34.916,61.878c2.477,1.068,4.688,1.364,6.327,0.988c1.103-0.253,1.432-0.894,0.713-1.563
		c-0.602-0.545-3.427-1.833-4.752-2.808c-1.61-1.178-1.721-2.7-1.208-4.217c1.32-3.845,3.695-6.205,5.404-7.58
		c1.078-0.873,2.13-1.353,3.451-0.912c0.838,0.283,1.975,0.826,2.576,1.373c0.673,0.59,0.778,1.31,0.627,2.208
		c-0.365,2.166-1.353,4.477-2.314,6.125c-0.275,0.48-0.566,0.636-1.019,0.353c-0.417-0.261-0.888-0.749-1.105-1.055
		c-0.315-0.463-0.228-0.989-0.09-1.557c0.349-1.331,1.631-4.689,1.052-4.884c-0.672-0.203-3.715,3.265-4.629,5.765
		c-0.639,1.754,0.013,2.259,0.791,2.795c0.778,0.536,2.459,1.25,3.349,1.88c1.062,0.738,1.843,1.808,1.009,3.488
		c-1.076,2.181-2.716,2.946-3.848,3.206c-1.44,0.331-3.572,0.254-5.527-0.874c-0.892-0.51-1.342-1.18-1.506-2.154
		C34.113,61.885,34.454,61.687,34.916,61.878z"/>
	<path fill="#6CBDFF" d="M47.534,56.451c0.189-3.585,2.364-9.144,4.924-11.993c1.065-1.197,2.309-1.87,3.995-1.275
		c0.873,0.306,1.639,0.665,2.431,1.257c1.012,0.779,1.544,2.324,1.634,4.267c0.141,2.944-0.891,9.342-4.405,12.828
		c-0.896,0.89-2.152,1.388-3.745,1.187c-0.891-0.122-1.876-0.521-2.71-1.044C48.718,61.091,47.362,59.973,47.534,56.451z
		 M51.66,60.683c0.921,0.503,2.83-1.424,4.396-6.516c1.584-5.156,1.406-8.269,0.703-8.733c-0.875-0.572-3.22,2.823-4.633,7.166
		C50.749,56.844,50.881,60.266,51.66,60.683z"/>
	<path fill="#6CBDFF" d="M64.464,59.171c-2.62-0.917-3.66-2.463-3.471-5.006c0.276-3.991,2.93-10.703,6.031-13.528
		c1.033-0.951,1.963-1.432,3.322-1.089c0.951,0.257,1.914,0.69,2.61,1.126c0.73,0.457,0.901,1.341,0.864,2.212
		c-0.075,1.743-0.771,3.897-1.382,5.257c-0.22,0.468-0.491,0.709-0.972,0.432c-0.376-0.21-1.059-0.59-1.306-0.889
		c-0.329-0.401-0.484-1.08-0.354-1.676c0.192-0.847,1.016-3.745,0.526-3.93c-0.648-0.237-2.755,2.776-4.343,7.009
		c-1.714,4.59-1.495,7.873-0.568,8.285c0.992,0.427,3.479-1.959,5.229-5.1c0.313-0.578,0.652-0.656,0.977-0.284
		c0.399,0.444,1.045,1.188,0.568,2.608c-0.678,1.971-2.206,4.257-3.757,4.761C67.248,59.752,65.919,59.669,64.464,59.171z"/>
	<path fill="#6CBDFF" d="M74.047,56.851c-0.534-0.383-0.654-0.772-0.568-1.566c0.508-4.789,2.523-12.603,4.28-17.262
		c0.245-0.622,0.584-0.7,1.189-0.392c0.545,0.292,1.205,0.706,1.578,1.037c0.491,0.452,0.535,0.769,0.229,1.643
		c-1.599,4.444-3.792,12.002-4.491,16.864c-0.06,0.52-0.335,0.613-0.804,0.394C75.093,57.385,74.548,57.212,74.047,56.851z"/>
	<path fill="#6CBDFF" d="M82.266,53.119c-0.427,0.991-0.783,1.906-1.074,2.716c-0.295,0.783-0.527,0.805-1.029,0.444
		c-0.387-0.268-0.603-0.427-0.85-0.727c-0.533-0.503-0.641-1.103-0.283-2.138c1.29-3.718,5.126-12.546,7.707-17.246
		c0.313-0.578,0.581-0.967,1.597-0.694c1.016,0.272,1.245,0.37,2.167,0.753c1.083,0.436,0.965,0.968,0.902,1.728
		c-0.436,4.713-0.657,11.132-0.28,15.243c0.039,0.557-0.146,0.659-0.665,0.6c-0.4-0.058-0.683-0.112-1.31-0.385
		c-0.564-0.257-0.79-0.592-0.904-1.34c-0.054-0.375-0.1-0.84-0.169-1.39C86.257,51.31,84.297,52.116,82.266,53.119z M87.937,48.007
		c-0.097-2.627-0.03-5.708,0.171-7.808c-1.214,2.482-2.851,5.982-4.322,9.297C85.317,48.906,86.635,48.425,87.937,48.007z"/>
	<path fill="#6CBDFF" d="M98.082,36.599c-1.598,0.427-2.565,0.232-3.76-0.564c-0.494-0.333-0.427-0.825,0.048-1.083
		c2.49-1.345,6.322-2.671,8.201-3.044c1.392-0.29,2.891,0.021,3.806,0.763c0.623,0.512,0.531,0.89-0.122,1.159
		c-0.872,0.348-2.196,0.801-3.571,1.296c-0.03,0.125-0.083,0.287-0.157,0.482c-1.924,4.579-4.111,11.777-4.915,16.575
		c-0.086,0.526-0.301,0.635-0.795,0.42c-0.426-0.169-0.864-0.396-1.377-0.814c-0.471-0.367-0.681-0.765-0.583-1.502
		c0.524-3.811,1.968-9.321,3.48-13.746C98.252,36.561,98.167,36.58,98.082,36.599z"/>
	<path fill="#6CBDFF" d="M104.969,49.75c-0.535-0.383-0.654-0.772-0.568-1.566c0.506-4.789,2.523-12.604,4.28-17.263
		c0.244-0.622,0.583-0.7,1.19-0.393c0.544,0.293,1.203,0.707,1.577,1.038c0.491,0.452,0.533,0.769,0.229,1.643
		c-1.599,4.444-3.792,12.001-4.49,16.864c-0.061,0.521-0.336,0.613-0.803,0.394C106.013,50.284,105.468,50.112,104.969,49.75z"/>
	<path fill="#6CBDFF" d="M110.734,41.938c0.187-3.584,2.362-9.145,4.923-11.994c1.064-1.196,2.308-1.869,3.994-1.273
		c0.872,0.305,1.639,0.665,2.43,1.257c1.012,0.779,1.546,2.323,1.634,4.267c0.142,2.945-0.889,9.342-4.405,12.828
		c-0.897,0.891-2.152,1.387-3.745,1.188c-0.891-0.123-1.875-0.522-2.709-1.044C111.917,46.578,110.559,45.46,110.734,41.938z
		 M114.859,46.17c0.917,0.502,2.827-1.423,4.396-6.515c1.585-5.156,1.405-8.27,0.703-8.733c-0.875-0.573-3.22,2.823-4.635,7.165
		C113.947,42.331,114.078,45.753,114.859,46.17z"/>
	<path fill="#6CBDFF" d="M126.864,45.585c-0.095,0.498-0.384,0.535-0.832,0.399c-0.58-0.194-1.206-0.585-1.522-0.93
		c-0.242-0.272-0.474-0.635-0.415-1.155c0.425-4.116,2.523-12.603,3.826-17.04c0.24-0.77,0.739-0.795,1.287-0.742
		c0.702,0.076,1.724,0.378,2.651,0.791c0.699,0.316,0.698,0.703,0.724,1.59c0.054,2.309,0.378,6.312,0.777,9.345
		c0.959-4.119,2.725-10.03,4.089-13.171c0.168-0.426,0.448-0.639,0.96-0.22c0.879,0.84,1.177,1.753,0.819,3.174
		c-0.877,3.446-2.661,9.927-3.688,15.312c-0.14,0.687-0.494,0.828-1.175,0.716c-0.743-0.126-1.483-0.374-2.077-0.624
		c-0.627-0.272-1.097-0.759-1.305-1.664c-0.503-2.057-1.018-5.6-1.163-8.305C128.653,37.049,127.384,42.668,126.864,45.585z"/>
</g>
<g>
	<path fill="#6CBDFF" d="M247.44,53.75c0.566-0.12,0.982-0.119,1.36,0.127c0.31,0.201,0.76,0.788,0.997,1.064
		c0.282,0.355,0.16,0.618-0.226,0.759c-1.398,0.534-3.547,1.315-5.474,2.288c-0.695,2.46-1.281,4.868-1.622,6.896
		c-0.106,0.616-0.368,0.642-0.832,0.414c-0.463-0.229-0.995-0.5-1.419-0.826c-0.533-0.42-0.652-0.84-0.543-1.576
		c0.521-3.697,1.979-9.403,3.459-13.897c-0.261-0.39-0.574-0.888-0.759-1.204c-0.273-0.446-0.134-0.772,0.353-0.995
		c2.12-1.042,5.914-2.173,7.742-2.5c0.771-0.135,1.283-0.095,1.771,0.246c0.421,0.296,0.88,0.792,1.159,1.267
		c0.278,0.474,0.088,0.692-0.418,0.83c-1.509,0.438-4.067,1.366-5.964,2.213c-0.585,1.578-1.244,3.496-1.859,5.495
		C246.055,54.073,246.872,53.87,247.44,53.75z"/>
	<path fill="#6CBDFF" d="M254.964,62.118c-0.147,0.712-0.559,0.591-1.084,0.348c-0.395-0.183-0.704-0.384-1.125-0.829
		c-0.42-0.445-0.687-0.863-0.554-1.633c0.697-3.706,2.327-9.299,3.836-13.236c-0.578-0.353-0.941-0.661-1.33-0.963
		c-0.46-0.348-0.47-0.672-0.014-1.036c1.755-1.38,3.927-2.315,5.886-2.73c2.071-0.439,4.188,0.031,5.667,1.141
		c1.934,1.428,1.381,2.732,0.854,3.882c-0.978,2.105-3.924,5.546-7.33,7.662c1.423,1.39,3.482,2.999,4.8,3.757
		c0.503,0.279,0.514,0.604,0.215,0.874c-0.32,0.306-0.892,0.693-1.384,0.887c-0.736,0.304-0.975,0.295-1.925-0.126
		c-1.51-0.688-3.501-2.104-5.062-3.463C255.86,58.518,255.364,60.372,254.964,62.118z M264.168,44.42
		c-0.336-0.462-2.459,0.286-3.906,1.155c-0.842,2.047-1.729,4.429-2.561,6.948C261.017,50.396,264.92,45.447,264.168,44.42z"/>
	<path fill="#6CBDFF" d="M269.289,56.56c-0.443,0.984-0.815,1.894-1.118,2.699c-0.31,0.777-0.543,0.796-1.035,0.427
		c-0.386-0.274-0.598-0.437-0.841-0.741c-0.522-0.512-0.621-1.114-0.246-2.142c1.351-3.697,5.335-12.458,7.995-17.114
		c0.322-0.574,0.599-0.957,1.608-0.668c1.01,0.291,1.237,0.391,2.153,0.79c1.074,0.454,0.95,0.984,0.873,1.742
		c-0.514,4.705-0.844,11.12-0.535,15.235c0.029,0.558-0.157,0.657-0.676,0.588c-0.399-0.063-0.679-0.122-1.301-0.406
		c-0.562-0.267-0.781-0.605-0.881-1.355c-0.051-0.375-0.09-0.841-0.148-1.392C273.307,54.818,271.336,55.592,269.289,56.56z
		 M275.043,51.543c-0.052-2.627,0.065-5.707,0.305-7.804c-1.26,2.462-2.953,5.935-4.479,9.224
		C272.409,52.399,273.735,51.94,275.043,51.543z"/>
	<path fill="#6CBDFF" d="M282.09,56.544c-0.102,0.496-0.391,0.527-0.837,0.385c-0.577-0.204-1.196-0.606-1.508-0.955
		c-0.234-0.276-0.462-0.644-0.394-1.162c0.493-4.107,2.733-12.559,4.111-16.972c0.252-0.766,0.753-0.783,1.301-0.721
		c0.699,0.088,1.716,0.407,2.636,0.834c0.692,0.327,0.686,0.714,0.696,1.602c0.016,2.31,0.273,6.317,0.62,9.357
		c1.027-4.103,2.894-9.983,4.31-13.101c0.177-0.423,0.46-0.631,0.964-0.204c0.864,0.854,1.146,1.773,0.766,3.188
		c-0.933,3.43-2.826,9.88-3.944,15.246c-0.15,0.685-0.508,0.82-1.186,0.696c-0.742-0.138-1.478-0.397-2.066-0.659
		c-0.623-0.283-1.084-0.777-1.276-1.686c-0.469-2.065-0.926-5.615-1.025-8.322C284.025,48.038,282.662,53.635,282.09,56.544z"/>
	<path fill="#6CBDFF" d="M294.272,47.438c0.34-3.986,3.108-10.652,6.256-13.425c1.047-0.934,1.986-1.399,3.338-1.034
		c0.949,0.273,1.903,0.723,2.592,1.171c0.722,0.469,0.881,1.355,0.827,2.226c-0.104,1.742-0.837,3.884-1.47,5.234
		c-0.228,0.463-0.505,0.7-0.979,0.415c-0.373-0.218-1.048-0.608-1.29-0.912c-0.324-0.406-0.468-1.087-0.327-1.68
		c0.207-0.845,1.078-3.728,0.591-3.922c-0.645-0.249-2.8,2.729-4.459,6.936c-1.79,4.561-1.627,7.847-0.706,8.275
		c0.983,0.443,3.511-1.901,5.312-5.012c0.323-0.572,0.663-0.645,0.981-0.267c0.392,0.451,1.027,1.206,0.525,2.617
		c-0.712,1.959-2.279,4.219-3.838,4.698c-0.861,0.272-1.806,0.294-2.798,0.089c-0.083,0.166-0.134,0.355-0.188,0.515
		c0.605,0.198,1.111,0.624,1.403,1.304c0.492,1.2-0.345,2.148-2.117,1.902c-0.637-0.072-1.218-0.424-1.418-1.093
		c-0.082-0.249,0.041-0.364,0.257-0.321c0.777,0.162,1.782,0.008,1.732-0.368c-0.038-0.318-0.787-0.633-1.505-0.66
		c-0.449-0.023-0.602-0.05-0.449-0.586c0.143-0.445,0.24-0.821,0.435-1.307C294.874,51.254,294.082,49.761,294.272,47.438z"/>
	<path fill="#6CBDFF" d="M309.771,47.976c-0.444,0.984-0.813,1.893-1.118,2.699c-0.31,0.777-0.541,0.797-1.035,0.427
		c-0.386-0.274-0.598-0.437-0.839-0.742c-0.524-0.511-0.622-1.113-0.248-2.142c1.352-3.696,5.336-12.458,7.995-17.114
		c0.323-0.572,0.598-0.957,1.607-0.667c1.012,0.29,1.239,0.389,2.155,0.789c1.073,0.454,0.95,0.984,0.873,1.742
		c-0.515,4.705-0.845,11.121-0.536,15.236c0.03,0.557-0.156,0.656-0.675,0.588c-0.4-0.063-0.679-0.123-1.302-0.406
		c-0.562-0.266-0.781-0.605-0.881-1.355c-0.05-0.375-0.09-0.841-0.146-1.392C313.791,46.235,311.819,47.008,309.771,47.976z
		 M315.528,42.96c-0.054-2.628,0.063-5.708,0.303-7.804c-1.259,2.461-2.952,5.934-4.479,9.224
		C312.892,43.815,314.218,43.356,315.528,42.96z"/>
	<path fill="#6CBDFF" d="M320.186,47.606c-0.527-0.392-0.64-0.783-0.541-1.575c0.588-4.78,2.733-12.559,4.568-17.188
		c0.254-0.617,0.596-0.689,1.196-0.372c0.54,0.301,1.192,0.726,1.561,1.063c0.483,0.461,0.521,0.779,0.2,1.647
		c-1.672,4.417-3.992,11.937-4.771,16.787c-0.068,0.519-0.347,0.607-0.81,0.379C321.221,48.157,320.68,47.976,320.186,47.606z"/>
	<path fill="#6CBDFF" d="M325.826,42.467c2.46,1.109,4.665,1.443,6.31,1.094c1.106-0.234,1.447-0.871,0.74-1.55
		c-0.594-0.558-3.396-1.89-4.704-2.888c-1.591-1.205-1.675-2.728-1.136-4.236c1.384-3.822,3.797-6.143,5.529-7.488
		c1.092-0.855,2.151-1.316,3.466-0.854c0.833,0.297,1.96,0.859,2.554,1.416c0.661,0.601,0.755,1.322,0.588,2.217
		c-0.4,2.161-1.427,4.454-2.416,6.087c-0.285,0.476-0.578,0.627-1.024,0.336c-0.414-0.269-0.873-0.764-1.088-1.074
		c-0.308-0.469-0.211-0.993-0.064-1.559c0.372-1.324,1.71-4.662,1.134-4.866c-0.668-0.214-3.77,3.202-4.726,5.688
		c-0.667,1.742-0.025,2.258,0.744,2.807c0.77,0.549,2.438,1.292,3.317,1.936c1.049,0.755,1.813,1.839,0.95,3.504
		c-1.113,2.163-2.767,2.899-3.901,3.141c-1.446,0.307-3.577,0.194-5.513-0.967c-0.881-0.525-1.321-1.202-1.47-2.179
		C325.023,42.459,325.368,42.268,325.826,42.467z"/>
	<path fill="#6CBDFF" d="M345.837,32.678c0.597-0.126,1.017-0.097,1.38,0.212c0.321,0.257,0.771,0.696,0.979,0.979
		c0.289,0.383,0.195,0.64-0.19,0.781c-1.428,0.54-3.519,1.31-5.446,2.282c-0.349,1.29-0.684,2.517-0.97,3.675
		c1.551-0.656,2.974-1.075,4.166-1.329c0.624-0.132,1.131-0.121,1.549,0.176s0.891,0.701,1.144,1.062
		c0.343,0.492,0.157,0.738-0.313,0.897c-1.926,0.705-4.837,1.796-6.641,2.802c-0.927,0.522-1.155,0.423-1.654,0.172
		c-0.394-0.182-0.927-0.455-1.213-0.691c-0.46-0.347-0.718-0.589-0.573-1.45c0.607-3.836,2.074-9.929,3.527-14.122
		c-0.226-0.367-0.469-0.819-0.615-1.085c-0.256-0.509-0.111-0.807,0.37-1.057c2.364-1.154,5.822-2.184,8.093-2.665
		c0.766-0.162,1.285-0.094,1.801,0.241c0.411,0.269,0.851,0.799,1.186,1.261c0.25,0.48,0.054,0.67-0.474,0.842
		c-1.56,0.478-4.647,1.579-6.622,2.472c-0.54,1.508-1.11,3.29-1.692,5.162C344.516,33.018,345.298,32.792,345.837,32.678z"/>
</g>
<g>
	<path fill="#6CBDFF" d="M482.175,13.84c-0.442-0.41-0.389-0.718,0.032-1.104c0.772-0.697,1.862-1.432,2.983-1.878
		c1.807-0.709,3.946-1.103,5.587-0.502c2.536,0.916,3.785,2.192,4.017,3.982c0.681,5.163-5.883,12.249-10.568,15.465
		c-0.779,0.521-1.089,0.735-2.047,0.553c-0.712-0.146-1.695-0.441-2.393-0.797c-0.637-0.339-0.843-0.474-0.653-1.403
		c0.636-3.011,2.479-9.421,3.812-13.618C482.722,14.317,482.399,14.058,482.175,13.84z M482.728,27.214
		c7.18-5.437,9.624-13.072,8.541-14.265c-0.577-0.619-2.773-0.213-4.268,0.993C485.893,16.965,483.981,22.916,482.728,27.214z"/>
	<path fill="#6CBDFF" d="M502.281,15.685c0.596-0.127,1.017-0.097,1.378,0.211c0.322,0.259,0.771,0.697,0.979,0.979
		c0.29,0.384,0.196,0.64-0.189,0.781c-1.427,0.54-3.518,1.311-5.447,2.282c-0.349,1.29-0.682,2.518-0.969,3.675
		c1.55-0.655,2.974-1.075,4.167-1.328c0.622-0.133,1.129-0.122,1.549,0.176c0.418,0.296,0.89,0.7,1.144,1.061
		c0.342,0.491,0.156,0.738-0.314,0.897c-1.925,0.705-4.837,1.796-6.641,2.802c-0.926,0.523-1.155,0.423-1.653,0.172
		c-0.395-0.183-0.927-0.456-1.214-0.691c-0.459-0.347-0.719-0.589-0.574-1.449c0.609-3.836,2.076-9.929,3.529-14.122
		c-0.227-0.368-0.471-0.82-0.616-1.086c-0.257-0.509-0.112-0.806,0.37-1.056c2.364-1.154,5.822-2.184,8.092-2.666
		c0.767-0.162,1.286-0.094,1.802,0.241c0.412,0.269,0.852,0.799,1.186,1.261c0.251,0.481,0.054,0.67-0.473,0.841
		c-1.561,0.479-4.647,1.578-6.623,2.472c-0.541,1.508-1.11,3.291-1.693,5.163C500.959,16.024,501.741,15.799,502.281,15.685z"/>
	<path fill="#6CBDFF" d="M507.518,20.119c2.458,1.11,4.665,1.443,6.309,1.094c1.108-0.234,1.447-0.87,0.74-1.55
		c-0.593-0.557-3.395-1.89-4.705-2.887c-1.59-1.205-1.676-2.729-1.135-4.237c1.384-3.821,3.797-6.142,5.528-7.487
		c1.094-0.855,2.153-1.317,3.467-0.854c0.833,0.297,1.96,0.859,2.553,1.415c0.662,0.602,0.756,1.323,0.589,2.218
		c-0.4,2.161-1.426,4.454-2.415,6.086c-0.285,0.475-0.579,0.627-1.025,0.337c-0.414-0.269-0.875-0.764-1.088-1.074
		c-0.308-0.47-0.21-0.994-0.063-1.559c0.37-1.325,1.71-4.663,1.133-4.866c-0.669-0.215-3.77,3.2-4.725,5.686
		c-0.669,1.743-0.024,2.259,0.743,2.807c0.77,0.549,2.439,1.293,3.316,1.937c1.051,0.756,1.812,1.84,0.951,3.505
		c-1.113,2.163-2.767,2.9-3.901,3.14c-1.446,0.307-3.576,0.195-5.513-0.966c-0.883-0.525-1.322-1.202-1.47-2.18
		C506.714,20.112,507.06,19.92,507.518,20.119z"/>
</g>
<g>
	<path fill="#6CBDFF" d="M699.702,60.887c-2.615-0.934-3.645-2.487-3.438-5.029c0.301-3.99,3.001-10.683,6.122-13.487
		c1.038-0.944,1.972-1.419,3.328-1.067c0.949,0.264,1.91,0.704,2.602,1.144c0.728,0.462,0.895,1.347,0.851,2.218
		c-0.089,1.743-0.798,3.892-1.417,5.249c-0.225,0.466-0.496,0.705-0.976,0.424c-0.375-0.213-1.055-0.597-1.3-0.898
		c-0.327-0.402-0.479-1.082-0.343-1.677c0.198-0.846,1.04-3.738,0.552-3.926c-0.647-0.242-2.773,2.756-4.39,6.979
		c-1.745,4.579-1.55,7.863-0.624,8.281c0.988,0.435,3.492-1.937,5.262-5.063c0.318-0.576,0.657-0.652,0.979-0.277
		c0.396,0.446,1.039,1.195,0.551,2.611c-0.69,1.967-2.235,4.241-3.79,4.736C702.48,61.487,701.151,61.396,699.702,60.887z"/>
	<path fill="#6CBDFF" d="M709.314,52.15c0.212-3.583,2.425-9.127,5.005-11.959c1.072-1.189,2.32-1.854,4.001-1.247
		c0.872,0.311,1.637,0.676,2.425,1.273c1.006,0.786,1.528,2.334,1.604,4.278c0.12,2.946-0.955,9.336-4.492,12.798
		c-0.903,0.885-2.161,1.371-3.753,1.162c-0.892-0.129-1.872-0.534-2.703-1.062C710.467,56.798,709.116,55.672,709.314,52.15z
		 M713.411,56.41c0.916,0.508,2.838-1.404,4.44-6.486c1.619-5.144,1.462-8.259,0.763-8.728c-0.871-0.579-3.24,2.801-4.683,7.134
		C712.525,52.564,712.635,55.988,713.411,56.41z"/>
	<path fill="#6CBDFF" d="M737.602,52.691c-0.138,0.714-0.421,0.777-0.956,0.51c-0.438-0.229-0.64-0.333-1.173-0.601
		c-0.536-0.267-0.615-0.755-0.546-1.513c0.251-2.344,1.2-6.092,2.192-9.642c-1.804,3.641-3.845,8.226-4.935,11.47
		c-0.252,0.74-0.474,0.818-1.04,0.678c-0.655-0.152-1.173-0.334-1.73-0.566c-0.592-0.254-0.924-0.686-1.028-1.554
		c-0.214-1.766-0.38-4.374-0.352-7.054c-1.059,3.385-2.374,8.7-2.964,11.655c-0.097,0.496-0.464,0.578-0.827,0.422
		c-0.585-0.227-1.151-0.636-1.488-0.947c-0.239-0.273-0.377-0.629-0.322-1.176c0.591-4.559,2.914-12.952,4.559-16.913
		c0.271-0.654,0.562-0.809,1.255-0.636c0.732,0.223,1.76,0.56,2.493,1.05c0.56,0.381,0.572,0.973,0.521,1.548
		c-0.191,2.747-0.237,5.61-0.218,8.368c1.361-3.898,4.404-9.983,6.466-13.146c0.462-0.726,0.729-0.727,1.384-0.457
		c0.753,0.309,1.74,1.009,2.303,1.538c0.675,0.623,0.651,1.193,0.315,2.219C739.836,43.101,738.469,48.576,737.602,52.691z"/>
	<path fill="#6CBDFF" d="M756.001,48.596c-0.138,0.715-0.421,0.778-0.956,0.511c-0.437-0.229-0.64-0.333-1.174-0.601
		c-0.535-0.267-0.615-0.755-0.546-1.513c0.252-2.344,1.202-6.091,2.194-9.641c-1.806,3.641-3.846,8.226-4.936,11.47
		c-0.252,0.738-0.473,0.818-1.04,0.677c-0.656-0.151-1.174-0.334-1.729-0.565c-0.591-0.256-0.925-0.687-1.029-1.554
		c-0.214-1.766-0.379-4.374-0.352-7.055c-1.06,3.386-2.372,8.701-2.963,11.655c-0.098,0.497-0.466,0.579-0.827,0.423
		c-0.586-0.227-1.152-0.637-1.489-0.947c-0.239-0.273-0.377-0.629-0.321-1.178c0.591-4.558,2.912-12.95,4.557-16.912
		c0.271-0.654,0.564-0.809,1.256-0.636c0.732,0.224,1.759,0.56,2.493,1.051c0.56,0.381,0.571,0.972,0.522,1.547
		c-0.192,2.747-0.238,5.61-0.217,8.369c1.358-3.899,4.402-9.984,6.464-13.147c0.463-0.727,0.729-0.726,1.383-0.457
		c0.753,0.308,1.74,1.009,2.304,1.538c0.674,0.623,0.652,1.193,0.315,2.219C758.234,39.006,756.868,44.481,756.001,48.596z"/>
	<path fill="#6CBDFF" d="M759.828,47.388c-0.532-0.386-0.647-0.777-0.558-1.57c0.54-4.785,2.608-12.586,4.396-17.233
		c0.248-0.62,0.588-0.695,1.192-0.384c0.541,0.296,1.2,0.714,1.57,1.047c0.487,0.457,0.529,0.774,0.219,1.646
		c-1.63,4.433-3.874,11.976-4.605,16.833c-0.063,0.52-0.34,0.61-0.806,0.388C760.87,47.929,760.325,47.753,759.828,47.388z"/>
	<path fill="#6CBDFF" d="M765.415,42.192c2.47,1.085,4.68,1.396,6.322,1.031c1.103-0.246,1.436-0.885,0.723-1.558
		c-0.599-0.551-3.415-1.855-4.732-2.841c-1.603-1.188-1.704-2.71-1.179-4.225c1.345-3.835,3.735-6.18,5.454-7.542
		c1.084-0.866,2.139-1.338,3.456-0.889c0.837,0.289,1.971,0.839,2.568,1.39c0.668,0.594,0.768,1.314,0.611,2.211
		c-0.381,2.165-1.384,4.469-2.354,6.111c-0.28,0.479-0.572,0.632-1.022,0.346c-0.415-0.264-0.881-0.754-1.1-1.063
		c-0.312-0.465-0.221-0.991-0.078-1.558c0.358-1.328,1.663-4.679,1.084-4.877c-0.67-0.208-3.737,3.239-4.669,5.734
		c-0.649,1.75-0.002,2.259,0.773,2.8c0.773,0.542,2.451,1.268,3.336,1.902c1.058,0.746,1.832,1.822,0.985,3.496
		c-1.092,2.174-2.735,2.927-3.87,3.18c-1.442,0.32-3.574,0.23-5.521-0.912c-0.888-0.517-1.334-1.189-1.491-2.165
		C764.612,42.193,764.957,41.998,765.415,42.192z"/>
	<path fill="#6CBDFF" d="M777.842,39.428c2.47,1.084,4.679,1.396,6.321,1.03c1.104-0.246,1.438-0.885,0.723-1.557
		c-0.597-0.551-3.414-1.855-4.732-2.841c-1.603-1.188-1.703-2.71-1.18-4.224c1.347-3.836,3.738-6.181,5.455-7.543
		c1.085-0.866,2.139-1.337,3.458-0.888c0.836,0.289,1.97,0.839,2.567,1.39c0.668,0.594,0.768,1.314,0.61,2.211
		c-0.38,2.165-1.383,4.468-2.354,6.111c-0.28,0.479-0.573,0.632-1.022,0.346c-0.417-0.264-0.882-0.754-1.1-1.063
		c-0.312-0.465-0.221-0.99-0.078-1.558c0.358-1.328,1.663-4.678,1.084-4.877c-0.672-0.207-3.737,3.24-4.669,5.734
		c-0.649,1.75-0.002,2.259,0.772,2.801c0.774,0.541,2.451,1.267,3.336,1.902c1.058,0.745,1.831,1.822,0.986,3.496
		c-1.091,2.173-2.737,2.926-3.87,3.179c-1.443,0.321-3.573,0.23-5.521-0.911c-0.889-0.516-1.336-1.189-1.492-2.165
		C777.039,39.428,777.382,39.232,777.842,39.428z"/>
	<path fill="#6CBDFF" d="M792.924,38.182c-0.434,0.988-0.795,1.9-1.091,2.709c-0.302,0.779-0.534,0.802-1.032,0.438
		c-0.387-0.271-0.6-0.432-0.847-0.733c-0.528-0.506-0.632-1.107-0.268-2.139c1.315-3.71,5.21-12.511,7.824-17.193
		c0.316-0.575,0.588-0.963,1.6-0.684c1.014,0.28,1.243,0.377,2.161,0.768c1.08,0.443,0.961,0.976,0.892,1.733
		c-0.466,4.71-0.732,11.128-0.383,15.24c0.035,0.557-0.149,0.658-0.67,0.595c-0.399-0.061-0.68-0.116-1.305-0.393
		c-0.564-0.261-0.788-0.598-0.895-1.346c-0.054-0.375-0.098-0.841-0.161-1.392C796.925,36.399,794.963,37.193,792.924,38.182z
		 M798.629,33.108c-0.078-2.627,0.009-5.708,0.225-7.805c-1.232,2.473-2.891,5.962-4.385,9.266
		C796.003,33.99,797.325,33.518,798.629,33.108z"/>
	<path fill="#6CBDFF" d="M803.335,37.707c-0.532-0.385-0.648-0.776-0.557-1.569c0.539-4.786,2.606-12.586,4.396-17.234
		c0.247-0.619,0.587-0.696,1.192-0.384c0.541,0.295,1.198,0.714,1.571,1.047c0.486,0.456,0.527,0.773,0.216,1.645
		c-1.629,4.434-3.873,11.976-4.604,16.834c-0.063,0.52-0.339,0.61-0.805,0.387C804.377,38.249,803.832,38.072,803.335,37.707z"/>
	<path fill="#6CBDFF" d="M811.858,36.494c-0.138,0.714-0.55,0.598-1.078,0.359c-0.396-0.179-0.709-0.377-1.134-0.818
		c-0.424-0.439-0.694-0.855-0.569-1.626c0.66-3.713,2.234-9.323,3.702-13.275c-0.581-0.347-0.946-0.652-1.339-0.95
		c-0.465-0.342-0.478-0.667-0.024-1.035c1.74-1.397,3.905-2.355,5.857-2.789c2.067-0.46,4.188-0.01,5.68,1.083
		c1.947,1.409,1.406,2.718,0.892,3.873c-0.956,2.114-3.867,5.585-7.253,7.735c1.436,1.375,3.512,2.963,4.838,3.708
		c0.506,0.273,0.519,0.598,0.224,0.871c-0.318,0.309-0.885,0.703-1.376,0.901c-0.732,0.312-0.972,0.305-1.925-0.107
		c-1.517-0.673-3.521-2.07-5.099-3.412C812.72,32.885,812.242,34.745,811.858,36.494z M820.886,18.706
		c-0.338-0.459-2.457,0.309-3.894,1.193c-0.82,2.055-1.687,4.446-2.491,6.973C817.795,24.713,821.648,19.725,820.886,18.706z"/>
	<path fill="#6CBDFF" d="M830.958,22.051c0.596-0.133,1.018-0.108,1.381,0.197c0.325,0.255,0.778,0.689,0.99,0.969
		c0.291,0.381,0.201,0.639-0.184,0.783c-1.421,0.555-3.505,1.345-5.424,2.336c-0.336,1.294-0.655,2.524-0.933,3.685
		c1.545-0.67,2.964-1.105,4.152-1.37c0.624-0.139,1.13-0.133,1.551,0.16c0.423,0.292,0.898,0.692,1.156,1.05
		c0.346,0.487,0.163,0.736-0.306,0.9c-1.919,0.724-4.819,1.845-6.613,2.868c-0.921,0.532-1.15,0.434-1.651,0.189
		c-0.396-0.18-0.931-0.447-1.222-0.68c-0.462-0.343-0.723-0.582-0.587-1.443c0.572-3.842,1.976-9.949,3.388-14.156
		c-0.23-0.365-0.479-0.815-0.627-1.079c-0.262-0.507-0.121-0.806,0.357-1.061c2.354-1.177,5.803-2.243,8.066-2.746
		c0.766-0.169,1.284-0.107,1.803,0.223c0.416,0.264,0.859,0.79,1.199,1.25c0.255,0.478,0.061,0.669-0.465,0.846
		c-1.554,0.495-4.631,1.625-6.597,2.539c-0.525,1.513-1.08,3.3-1.642,5.178C829.642,22.404,830.421,22.17,830.958,22.051z"/>
	<path fill="#6CBDFF" d="M836.239,26.433c2.471,1.085,4.679,1.396,6.321,1.03c1.104-0.245,1.438-0.884,0.724-1.557
		c-0.598-0.55-3.414-1.855-4.732-2.839c-1.604-1.189-1.703-2.712-1.18-4.225c1.347-3.836,3.736-6.181,5.454-7.543
		c1.086-0.865,2.14-1.337,3.457-0.888c0.838,0.289,1.971,0.839,2.569,1.391c0.667,0.594,0.768,1.314,0.61,2.211
		c-0.381,2.165-1.384,4.468-2.354,6.11c-0.279,0.479-0.574,0.633-1.022,0.347c-0.416-0.265-0.882-0.755-1.1-1.063
		c-0.311-0.465-0.221-0.991-0.077-1.558c0.357-1.328,1.662-4.679,1.082-4.876c-0.67-0.208-3.735,3.238-4.667,5.733
		c-0.649,1.749-0.002,2.259,0.771,2.8s2.452,1.268,3.335,1.903c1.058,0.745,1.832,1.82,0.987,3.495
		c-1.09,2.174-2.736,2.927-3.869,3.179c-1.443,0.321-3.573,0.23-5.521-0.911c-0.889-0.516-1.335-1.188-1.492-2.165
		C835.437,26.434,835.78,26.237,836.239,26.433z"/>
</g>
<g>
	<path fill="#6CBDFF" d="M842.935,46.108c-0.447-0.406-0.397-0.714,0.021-1.104c0.766-0.706,1.847-1.451,2.964-1.908
		c1.8-0.727,3.937-1.144,5.582-0.558c2.546,0.89,3.807,2.154,4.058,3.94c0.73,5.157-5.762,12.307-10.414,15.571
		c-0.773,0.53-1.081,0.746-2.042,0.574c-0.714-0.139-1.698-0.424-2.401-0.773c-0.638-0.334-0.846-0.466-0.667-1.396
		c0.607-3.017,2.386-9.446,3.679-13.656C843.484,46.579,843.162,46.324,842.935,46.108z M843.623,59.476
		c7.122-5.508,9.49-13.167,8.395-14.349c-0.582-0.614-2.775-0.185-4.257,1.036C846.683,49.196,844.831,55.165,843.623,59.476z"/>
	<path fill="#6CBDFF" d="M859.284,44.549c-0.619-0.783-0.629-1.495-0.315-2.219c0.525-1.246,2.11-4.005,3.293-5.635
		c0.321-0.428,0.579-0.337,0.856,0.107c0.432,0.735,0.586,1.831,0.002,2.674c-1.105,1.583-2.363,3.409-3.312,5.017
		C859.631,44.769,859.496,44.829,859.284,44.549z"/>
	<path fill="#6CBDFF" d="M869.57,46.302c0.592-0.132,1.014-0.107,1.38,0.198c0.324,0.254,0.777,0.688,0.987,0.969
		c0.293,0.38,0.203,0.639-0.182,0.784c-1.422,0.554-3.505,1.345-5.424,2.335c-0.336,1.294-0.656,2.524-0.933,3.686
		c1.544-0.672,2.963-1.105,4.151-1.371c0.625-0.139,1.13-0.132,1.552,0.16s0.897,0.692,1.154,1.05
		c0.348,0.488,0.165,0.736-0.304,0.9c-1.919,0.725-4.82,1.845-6.612,2.868c-0.923,0.533-1.153,0.435-1.653,0.189
		c-0.396-0.179-0.931-0.446-1.219-0.679c-0.465-0.343-0.725-0.582-0.591-1.444c0.572-3.842,1.977-9.949,3.389-14.156
		c-0.23-0.365-0.479-0.815-0.628-1.078c-0.26-0.508-0.117-0.806,0.358-1.061c2.354-1.178,5.803-2.242,8.068-2.746
		c0.764-0.17,1.282-0.107,1.802,0.222c0.416,0.265,0.858,0.79,1.2,1.25c0.255,0.477,0.06,0.67-0.466,0.847
		c-1.555,0.494-4.632,1.624-6.598,2.537c-0.523,1.514-1.078,3.301-1.641,5.179C868.251,46.655,869.03,46.421,869.57,46.302z"/>
	<path fill="#6CBDFF" d="M877.667,36.774c-0.05-0.494,0.038-0.9,0.622-0.94c0.615-0.048,1.995,0.15,2.484,0.338
		c0.487,0.189,0.755,0.724,0.85,1.416c0.129,0.982,0.276,2.048,0.454,3.108c2.251-2.7,4.671-5.318,6.922-7.483
		c0.341-0.344,0.718-0.517,0.9,0.037c0.405,1.158,0.281,1.929-0.631,3.171c-1.278,1.741-4.054,5.152-6.344,8.217
		c0.763,3.039,1.77,5.816,2.893,7.26c0.382,0.51,0.381,0.777-0.251,1.006c-1.463,0.504-2.567,0.482-3.562-0.782
		c-0.58-0.733-1.2-2.052-1.798-3.671c-1.595,2.317-3.047,4.602-4.229,6.766c-0.28,0.479-0.507,0.796-1.001,0.312
		c-0.713-0.673-1.665-2.006-0.718-3.763c1.159-2.13,2.829-4.641,4.782-7.216C878.389,42.021,877.857,39.228,877.667,36.774z"/>
	<path fill="#6CBDFF" d="M891.549,51.633c-0.181,0.783-0.517,0.62-1.016,0.375c-0.431-0.201-0.714-0.405-1.189-0.805
		c-0.475-0.4-0.702-0.884-0.57-1.626c0.64-3.679,2.158-9.128,3.612-13.017c-0.498-0.365-0.898-0.692-1.281-1.082
		c-0.425-0.44-0.493-0.752-0.035-1.091c1.702-1.301,3.784-2.358,5.754-2.856c2.025-0.509,4.149,0.087,5.67,1.176
		c1.941,1.381,1.253,2.96,0.903,4.197c-0.628,2.25-3.635,6.633-6.967,8.088c-1.108,0.485-1.904,0.513-2.992-0.493
		C892.735,46.942,892.087,49.375,891.549,51.633z M900.342,33.987c-0.381-0.51-2.294,0.243-3.669,1.143
		c-0.962,2.354-1.941,5.158-2.819,8.027C897.292,41.648,901.173,35.049,900.342,33.987z"/>
	<path fill="#6CBDFF" d="M903.442,41.796c0.212-3.583,2.426-9.128,5.006-11.96c1.071-1.189,2.32-1.854,4.001-1.247
		c0.872,0.311,1.636,0.676,2.423,1.273c1.007,0.786,1.529,2.333,1.605,4.278c0.12,2.945-0.954,9.335-4.492,12.797
		c-0.902,0.884-2.16,1.373-3.753,1.163c-0.891-0.129-1.872-0.535-2.703-1.063C904.596,46.442,903.245,45.316,903.442,41.796z
		 M907.54,46.055c0.915,0.509,2.838-1.404,4.44-6.486c1.62-5.144,1.459-8.259,0.762-8.728c-0.871-0.578-3.238,2.802-4.682,7.134
		C906.655,42.209,906.762,45.632,907.54,46.055z"/>
	<path fill="#6CBDFF" d="M916.942,41.317c2.47,1.085,4.679,1.396,6.321,1.03c1.104-0.245,1.436-0.884,0.723-1.558
		c-0.597-0.551-3.415-1.855-4.733-2.839c-1.602-1.189-1.702-2.712-1.179-4.225c1.347-3.836,3.737-6.181,5.455-7.543
		c1.084-0.866,2.139-1.338,3.457-0.888c0.837,0.288,1.971,0.838,2.568,1.389c0.668,0.594,0.768,1.315,0.61,2.212
		c-0.38,2.164-1.384,4.468-2.354,6.11c-0.28,0.479-0.574,0.633-1.023,0.347c-0.417-0.263-0.881-0.754-1.1-1.062
		c-0.311-0.465-0.22-0.991-0.077-1.558c0.357-1.327,1.662-4.679,1.084-4.876c-0.672-0.208-3.737,3.238-4.669,5.734
		c-0.649,1.75-0.003,2.259,0.772,2.8c0.773,0.541,2.45,1.267,3.336,1.902c1.056,0.745,1.831,1.821,0.986,3.495
		c-1.091,2.175-2.737,2.927-3.869,3.179c-1.444,0.321-3.574,0.23-5.523-0.911c-0.888-0.516-1.334-1.188-1.491-2.164
		C916.14,41.318,916.482,41.123,916.942,41.317z"/>
	<path fill="#6CBDFF" d="M929.584,42.456c-0.533-0.386-0.648-0.776-0.559-1.569c0.541-4.786,2.609-12.586,4.398-17.234
		c0.247-0.619,0.587-0.695,1.191-0.384c0.54,0.296,1.199,0.714,1.571,1.048c0.487,0.456,0.526,0.773,0.216,1.646
		c-1.627,4.433-3.873,11.976-4.603,16.833c-0.064,0.519-0.342,0.61-0.808,0.388C930.625,42.997,930.08,42.821,929.584,42.456z"/>
	<path fill="#6CBDFF" d="M940.903,25.228c-1.603,0.416-2.567,0.215-3.758-0.59c-0.49-0.336-0.421-0.828,0.057-1.083
		c2.498-1.328,6.339-2.628,8.222-2.988c1.392-0.281,2.891,0.04,3.8,0.789c0.62,0.516,0.525,0.894-0.128,1.158
		c-0.875,0.343-2.203,0.788-3.581,1.272c-0.03,0.125-0.084,0.286-0.16,0.481c-1.956,4.565-4.19,11.749-5.026,16.541
		c-0.09,0.526-0.306,0.632-0.798,0.416c-0.426-0.173-0.864-0.403-1.373-0.824c-0.469-0.371-0.677-0.77-0.573-1.507
		c0.551-3.807,2.03-9.307,3.573-13.722C941.073,25.19,940.989,25.208,940.903,25.228z"/>
	<path fill="#6CBDFF" d="M947.699,38.425c-0.531-0.386-0.646-0.777-0.557-1.569c0.54-4.785,2.607-12.586,4.396-17.233
		c0.248-0.62,0.588-0.696,1.192-0.385c0.541,0.296,1.2,0.715,1.57,1.048c0.487,0.456,0.529,0.773,0.218,1.645
		c-1.63,4.434-3.873,11.976-4.604,16.834c-0.063,0.52-0.339,0.61-0.806,0.387C948.742,38.966,948.198,38.79,947.699,38.425z"/>
	<path fill="#6CBDFF" d="M953.516,30.653c0.214-3.583,2.427-9.128,5.006-11.96c1.072-1.189,2.32-1.854,4.002-1.247
		c0.871,0.311,1.636,0.676,2.424,1.274c1.005,0.786,1.529,2.333,1.605,4.278c0.119,2.945-0.955,9.335-4.493,12.797
		c-0.903,0.884-2.161,1.372-3.753,1.162c-0.891-0.129-1.872-0.534-2.703-1.062C954.668,35.3,953.318,34.173,953.516,30.653z
		 M957.613,34.912c0.917,0.509,2.837-1.404,4.44-6.486c1.619-5.146,1.461-8.26,0.763-8.728c-0.871-0.579-3.24,2.8-4.683,7.134
		C956.728,31.067,956.837,34.49,957.613,34.912z"/>
	<path fill="#6CBDFF" d="M969.623,34.409c-0.099,0.498-0.388,0.532-0.835,0.394c-0.58-0.198-1.202-0.595-1.516-0.94
		c-0.24-0.274-0.471-0.639-0.407-1.158c0.453-4.112,2.609-12.586,3.94-17.013c0.246-0.768,0.745-0.79,1.293-0.734
		c0.701,0.082,1.721,0.39,2.646,0.809c0.695,0.32,0.693,0.708,0.711,1.595c0.039,2.31,0.335,6.314,0.715,9.35
		c0.986-4.112,2.794-10.012,4.176-13.143c0.175-0.425,0.453-0.636,0.963-0.215c0.873,0.846,1.167,1.762,0.799,3.182
		c-0.899,3.438-2.729,9.908-3.791,15.285c-0.146,0.686-0.499,0.825-1.179,0.708c-0.744-0.131-1.483-0.382-2.075-0.637
		c-0.625-0.276-1.092-0.768-1.293-1.673c-0.489-2.061-0.979-5.607-1.107-8.312C971.47,25.885,970.162,31.496,969.623,34.409z"/>
	<path fill="#6CBDFF" d="M981.763,26.893c2.472,1.085,4.681,1.396,6.323,1.03c1.103-0.246,1.437-0.884,0.722-1.557
		c-0.598-0.55-3.414-1.856-4.732-2.84c-1.603-1.188-1.703-2.712-1.178-4.225c1.345-3.835,3.736-6.18,5.453-7.543
		c1.085-0.866,2.14-1.338,3.457-0.888c0.838,0.289,1.97,0.839,2.568,1.39c0.668,0.595,0.768,1.315,0.612,2.212
		c-0.382,2.164-1.385,4.468-2.356,6.11c-0.28,0.479-0.572,0.632-1.021,0.347c-0.416-0.264-0.882-0.755-1.1-1.062
		c-0.312-0.465-0.221-0.991-0.078-1.558c0.358-1.328,1.663-4.679,1.083-4.877c-0.669-0.208-3.736,3.239-4.666,5.734
		c-0.651,1.75-0.004,2.259,0.771,2.8c0.773,0.541,2.451,1.267,3.335,1.902c1.058,0.745,1.832,1.821,0.986,3.495
		c-1.092,2.174-2.737,2.927-3.87,3.179c-1.444,0.321-3.574,0.231-5.521-0.911c-0.888-0.516-1.334-1.189-1.491-2.165
		C980.961,26.893,981.304,26.698,981.763,26.893z"/>
</g>
</svg>
