<?xml version="1.0" encoding="utf-8"?>
<!-- Generator: Adobe Illustrator 16.0.0, SVG Export Plug-In . SVG Version: 6.00 Build 0)  -->
<!DOCTYPE svg PUBLIC "-//W3C//DTD SVG 1.1//EN" "http://www.w3.org/Graphics/SVG/1.1/DTD/svg11.dtd">
<svg version="1.1" id="Layer_1" xmlns="http://www.w3.org/2000/svg" xmlns:xlink="http://www.w3.org/1999/xlink" x="0px" y="0px"
	 width="24.541px" height="25.909px" viewBox="0 0 24.541 25.909" enable-background="new 0 0 24.541 25.909" xml:space="preserve">
<g>
	<g>
		<path fill="#6CBDFF" d="M1.043,9.403c0.879,0.362,1.659,0.453,2.234,0.311C3.664,9.619,3.776,9.391,3.519,9.16
			C3.304,8.971,2.302,8.535,1.829,8.199c-0.573-0.405-0.622-0.94-0.45-1.478C1.822,5.359,2.645,4.514,3.238,4.02
			C3.613,3.707,3.98,3.532,4.449,3.679c0.296,0.095,0.7,0.28,0.915,0.469c0.24,0.204,0.282,0.457,0.234,0.773
			C5.48,5.686,5.147,6.506,4.818,7.092C4.723,7.263,4.622,7.319,4.46,7.222C4.312,7.133,4.145,6.964,4.065,6.857
			C3.952,6.696,3.979,6.51,4.025,6.309c0.115-0.47,0.547-1.661,0.341-1.726c-0.237-0.068-1.289,1.17-1.596,2.057
			C2.556,7.262,2.787,7.436,3.065,7.62c0.277,0.184,0.873,0.426,1.19,0.643c0.378,0.253,0.66,0.626,0.376,1.222
			c-0.366,0.775-0.939,1.053-1.336,1.151c-0.506,0.125-1.257,0.11-1.953-0.275c-0.316-0.174-0.479-0.408-0.543-0.75
			C0.761,9.41,0.88,9.339,1.043,9.403z"/>
		<path fill="#6CBDFF" d="M6.347,8.84C6.202,9.191,6.083,9.516,5.985,9.803c-0.1,0.277-0.182,0.287-0.36,0.163
			C5.486,9.873,5.41,9.818,5.321,9.715C5.131,9.541,5.089,9.33,5.209,8.963c0.433-1.317,1.732-4.448,2.613-6.119
			c0.107-0.205,0.2-0.343,0.559-0.253c0.359,0.09,0.441,0.123,0.768,0.253C9.532,2.991,9.495,3.18,9.476,3.447
			C9.35,5.109,9.31,7.371,9.466,8.816c0.017,0.196-0.047,0.233-0.23,0.215C9.094,9.014,8.995,8.996,8.772,8.903
			C8.572,8.816,8.491,8.7,8.447,8.437C8.425,8.306,8.406,8.142,8.378,7.949C7.742,8.179,7.057,8.475,6.347,8.84z M8.314,7.007
			c-0.049-0.925-0.044-2.01,0.015-2.75C7.916,5.137,7.36,6.38,6.861,7.555C7.396,7.338,7.858,7.162,8.314,7.007z"/>
		<path fill="#6CBDFF" d="M14.143,1.199c0.082-0.136,0.187-0.225,0.317-0.078c0.252,0.295,0.32,0.657,0.116,1.149
			c-0.545,1.282-1.504,3.624-2.149,5.867c-0.088,0.285-0.207,0.355-0.415,0.282c-0.3-0.105-0.552-0.19-0.836-0.362
			c-0.285-0.172-0.436-0.229-0.54-1.076c-0.207-1.686-0.169-3.705-0.066-4.951c0.011-0.171,0.07-0.269,0.253-0.21
			c0.218,0.073,0.458,0.234,0.611,0.386c0.153,0.151,0.228,0.323,0.224,0.565c-0.004,1.001-0.016,2.445,0.085,3.704
			C12.33,4.636,13.366,2.528,14.143,1.199z"/>
		<path fill="#6CBDFF" d="M16.867,3.525c0.208-0.052,0.357-0.046,0.488,0.059c0.116,0.086,0.279,0.235,0.355,0.332
			c0.106,0.132,0.077,0.224-0.058,0.277C17.157,4.4,16.43,4.696,15.762,5.061c-0.107,0.458-0.21,0.894-0.298,1.305
			c0.539-0.249,1.034-0.413,1.451-0.516c0.218-0.054,0.397-0.056,0.548,0.043s0.322,0.236,0.415,0.36
			c0.126,0.168,0.064,0.258-0.099,0.319c-0.671,0.271-1.683,0.689-2.305,1.064c-0.32,0.194-0.401,0.162-0.581,0.08
			c-0.141-0.06-0.331-0.149-0.435-0.229c-0.165-0.118-0.26-0.199-0.219-0.504c0.169-1.357,0.614-3.519,1.076-5.012
			c-0.084-0.127-0.175-0.284-0.229-0.375c-0.096-0.176-0.049-0.282,0.118-0.376c0.818-0.434,2.023-0.837,2.817-1.033
			c0.268-0.066,0.451-0.048,0.636,0.064c0.148,0.09,0.309,0.271,0.433,0.43c0.094,0.167,0.026,0.235-0.157,0.302
			c-0.542,0.187-1.617,0.61-2.301,0.947c-0.173,0.538-0.353,1.171-0.535,1.837C16.405,3.66,16.678,3.572,16.867,3.525z"/>
	</g>
	<g>
		<path fill="#6CBDFF" d="M6.392,12.081c-0.56,0.159-0.902,0.096-1.328-0.177c-0.175-0.115-0.155-0.288,0.011-0.382
			c0.869-0.488,2.21-0.978,2.87-1.12c0.489-0.11,1.019-0.009,1.345,0.247c0.223,0.177,0.192,0.31-0.036,0.409
			c-0.305,0.128-0.769,0.295-1.25,0.478c-0.01,0.044-0.027,0.102-0.053,0.17C7.3,13.33,6.573,15.877,6.318,17.571
			c-0.028,0.186-0.103,0.226-0.278,0.153c-0.151-0.057-0.307-0.134-0.49-0.279c-0.168-0.127-0.245-0.266-0.214-0.526
			c0.162-1.344,0.638-3.293,1.146-4.86C6.452,12.066,6.421,12.074,6.392,12.081z"/>
		<path fill="#6CBDFF" d="M12.841,9.298c0.075-0.208,0.201-0.25,0.414-0.155c0.19,0.09,0.443,0.259,0.567,0.376
			c0.178,0.166,0.183,0.271,0.08,0.58c-0.542,1.555-1.292,4.182-1.518,5.869c-0.023,0.205-0.114,0.218-0.278,0.153
			c-0.14-0.06-0.304-0.125-0.496-0.267c-0.193-0.142-0.228-0.238-0.203-0.518c0.036-0.367,0.092-0.781,0.172-1.221
			c-0.454,0.207-1.059,0.524-1.566,0.818c-0.143,0.656-0.251,1.283-0.315,1.835c-0.025,0.196-0.125,0.22-0.277,0.153
			c-0.142-0.06-0.307-0.134-0.505-0.254c-0.21-0.126-0.252-0.254-0.227-0.533c0.161-1.692,0.755-4.312,1.336-5.96
			c0.087-0.243,0.185-0.277,0.412-0.165c0.168,0.084,0.416,0.234,0.562,0.356c0.185,0.154,0.192,0.269,0.09,0.577
			c-0.237,0.743-0.521,1.687-0.763,2.662c0.579-0.258,1.08-0.487,1.476-0.627C12.089,11.662,12.477,10.293,12.841,9.298z"/>
		<path fill="#6CBDFF" d="M16.158,11.509c0.208-0.051,0.356-0.046,0.488,0.059c0.115,0.087,0.279,0.236,0.355,0.333
			c0.106,0.132,0.077,0.224-0.058,0.277c-0.497,0.207-1.223,0.502-1.891,0.868c-0.108,0.458-0.21,0.894-0.298,1.304
			c0.539-0.249,1.034-0.413,1.451-0.516c0.219-0.054,0.397-0.056,0.547,0.044c0.151,0.1,0.321,0.236,0.416,0.36
			c0.125,0.169,0.063,0.258-0.1,0.32c-0.669,0.27-1.682,0.688-2.304,1.064c-0.32,0.194-0.402,0.162-0.58,0.08
			c-0.142-0.06-0.332-0.149-0.436-0.229c-0.166-0.117-0.259-0.199-0.219-0.504c0.169-1.357,0.614-3.519,1.077-5.012
			c-0.084-0.126-0.176-0.283-0.229-0.374c-0.096-0.177-0.048-0.283,0.117-0.377c0.82-0.434,2.024-0.837,2.817-1.033
			c0.269-0.066,0.451-0.048,0.637,0.064c0.149,0.09,0.309,0.271,0.433,0.43c0.094,0.167,0.026,0.235-0.157,0.302
			c-0.543,0.186-1.617,0.609-2.302,0.948c-0.172,0.537-0.353,1.17-0.535,1.837C15.697,11.644,15.97,11.556,16.158,11.509z"/>
	</g>
	<g>
		<path fill="#6CBDFF" d="M5.068,19.929c-0.161-0.139-0.146-0.248-0.001-0.389c0.264-0.254,0.639-0.526,1.028-0.696
			c0.627-0.271,1.376-0.435,1.96-0.242c0.903,0.292,1.358,0.727,1.461,1.354c0.3,1.809-1.927,4.38-3.539,5.567
			c-0.269,0.193-0.375,0.271-0.714,0.219c-0.252-0.043-0.602-0.136-0.852-0.253c-0.227-0.112-0.301-0.157-0.246-0.486
			c0.188-1.067,0.762-3.345,1.182-4.838C5.266,20.09,5.149,20.003,5.068,19.929z M5.419,24.63c2.463-1.997,3.233-4.714,2.839-5.121
			c-0.21-0.211-0.979-0.042-1.49,0.4C6.413,20.986,5.81,23.103,5.419,24.63z"/>
		<path fill="#6CBDFF" d="M10.542,23.459c-0.145,0.352-0.266,0.676-0.362,0.963c-0.1,0.277-0.182,0.287-0.36,0.163
			c-0.138-0.093-0.215-0.147-0.304-0.251c-0.19-0.174-0.232-0.385-0.112-0.751c0.432-1.316,1.731-4.448,2.613-6.118
			c0.107-0.205,0.2-0.343,0.559-0.253c0.359,0.09,0.439,0.123,0.767,0.253c0.384,0.146,0.346,0.335,0.328,0.603
			c-0.125,1.663-0.166,3.924-0.009,5.37c0.017,0.195-0.048,0.232-0.231,0.215c-0.142-0.018-0.24-0.035-0.463-0.127
			c-0.2-0.088-0.282-0.204-0.326-0.468c-0.022-0.13-0.041-0.294-0.068-0.487C11.937,22.798,11.251,23.095,10.542,23.459z
			 M12.51,21.625c-0.05-0.924-0.044-2.009,0.014-2.75c-0.414,0.881-0.97,2.123-1.468,3.298
			C11.592,21.958,12.053,21.781,12.51,21.625z"/>
		<path fill="#6CBDFF" d="M16.02,17.548c-0.561,0.16-0.903,0.097-1.328-0.177c-0.176-0.114-0.155-0.288,0.011-0.381
			c0.869-0.488,2.211-0.979,2.87-1.12c0.489-0.111,1.018-0.01,1.344,0.246c0.223,0.177,0.193,0.31-0.035,0.409
			c-0.306,0.128-0.77,0.295-1.251,0.477c-0.009,0.045-0.027,0.102-0.052,0.171c-0.651,1.624-1.38,4.171-1.635,5.866
			c-0.027,0.186-0.102,0.225-0.278,0.153c-0.151-0.058-0.306-0.135-0.489-0.279c-0.169-0.127-0.245-0.265-0.215-0.526
			c0.163-1.345,0.639-3.293,1.146-4.86C16.078,17.534,16.048,17.542,16.02,17.548z"/>
		<path fill="#6CBDFF" d="M20.992,18.161c0.208-0.051,0.357-0.046,0.488,0.058c0.116,0.087,0.28,0.236,0.356,0.333
			c0.106,0.132,0.076,0.223-0.058,0.277c-0.496,0.207-1.223,0.502-1.89,0.868c-0.109,0.458-0.21,0.893-0.298,1.304
			c0.538-0.249,1.034-0.414,1.45-0.516c0.218-0.054,0.396-0.056,0.548,0.043c0.151,0.1,0.321,0.236,0.416,0.36
			c0.125,0.169,0.063,0.258-0.101,0.32c-0.669,0.271-1.682,0.689-2.304,1.064c-0.32,0.195-0.402,0.162-0.58,0.08
			c-0.142-0.06-0.332-0.149-0.436-0.229c-0.165-0.117-0.259-0.199-0.219-0.503c0.169-1.357,0.614-3.52,1.077-5.013
			c-0.084-0.126-0.175-0.283-0.229-0.375c-0.096-0.176-0.049-0.283,0.118-0.376c0.819-0.434,2.023-0.837,2.817-1.033
			c0.268-0.066,0.451-0.049,0.637,0.063c0.148,0.09,0.308,0.271,0.431,0.43c0.095,0.166,0.027,0.235-0.156,0.302
			c-0.544,0.187-1.617,0.609-2.302,0.948c-0.173,0.537-0.353,1.171-0.535,1.836C20.531,18.296,20.804,18.208,20.992,18.161z"/>
	</g>
</g>
</svg>
