<?xml version="1.0" encoding="utf-8"?>
<!-- Generator: Adobe Illustrator 16.0.0, SVG Export Plug-In . SVG Version: 6.00 Build 0)  -->
<!DOCTYPE svg PUBLIC "-//W3C//DTD SVG 1.1//EN" "http://www.w3.org/Graphics/SVG/1.1/DTD/svg11.dtd">
<svg version="1.1" xmlns="http://www.w3.org/2000/svg" xmlns:xlink="http://www.w3.org/1999/xlink" x="0px" y="0px"
	 width="23.806px" height="2.228px" viewBox="0 0 23.806 2.228" enable-background="new 0 0 23.806 2.228" xml:space="preserve">
<g id="Layer_1" display="none">
	<g display="inline">
		<g>
			<path fill="#3399ff" d="M0.309,8.997C1.188,9.359,1.968,9.45,2.543,9.308C2.93,9.212,3.042,8.985,2.784,8.754
				C2.569,8.564,1.567,8.129,1.095,7.792c-0.573-0.405-0.622-0.94-0.45-1.478C1.087,4.953,1.91,4.107,2.503,3.614
				c0.375-0.313,0.743-0.488,1.211-0.341c0.296,0.095,0.7,0.28,0.915,0.469c0.24,0.204,0.282,0.457,0.234,0.773
				C4.746,5.28,4.413,6.1,4.084,6.686c-0.095,0.171-0.197,0.227-0.358,0.13C3.578,6.727,3.41,6.558,3.331,6.451
				C3.217,6.29,3.245,6.104,3.291,5.903c0.115-0.47,0.547-1.661,0.341-1.726c-0.237-0.068-1.289,1.17-1.596,2.057
				C1.821,6.856,2.053,7.029,2.331,7.214c0.277,0.184,0.873,0.426,1.19,0.643c0.378,0.253,0.66,0.626,0.376,1.222
				c-0.366,0.775-0.939,1.053-1.336,1.151c-0.506,0.125-1.257,0.11-1.953-0.275C0.292,9.78,0.129,9.546,0.065,9.205
				C0.026,9.004,0.146,8.933,0.309,8.997z"/>
			<path fill="#3399ff" d="M5.612,8.434C5.467,8.785,5.348,9.109,5.251,9.396c-0.1,0.277-0.182,0.287-0.36,0.163
				c-0.139-0.092-0.215-0.147-0.304-0.25c-0.19-0.174-0.232-0.385-0.112-0.751C4.907,7.24,6.207,4.109,7.088,2.438
				c0.107-0.205,0.2-0.343,0.559-0.253c0.359,0.09,0.441,0.123,0.768,0.253C8.797,2.584,8.76,2.773,8.742,3.041
				C8.616,4.703,8.575,6.965,8.732,8.41c0.017,0.196-0.047,0.233-0.23,0.215C8.36,8.607,8.261,8.59,8.038,8.497
				C7.838,8.41,7.756,8.293,7.712,8.03C7.69,7.899,7.671,7.735,7.644,7.542C7.007,7.773,6.322,8.068,5.612,8.434z M7.58,6.601
				c-0.049-0.925-0.044-2.01,0.015-2.75C7.181,4.731,6.625,5.974,6.126,7.149C6.662,6.932,7.124,6.756,7.58,6.601z"/>
			<path fill="#3399ff" d="M13.409,0.793c0.082-0.136,0.187-0.225,0.317-0.078c0.252,0.295,0.32,0.657,0.116,1.149
				c-0.545,1.282-1.504,3.624-2.149,5.867c-0.088,0.285-0.207,0.355-0.415,0.282c-0.3-0.105-0.552-0.19-0.836-0.362
				c-0.285-0.172-0.436-0.229-0.54-1.076C9.695,4.889,9.733,2.869,9.835,1.623c0.011-0.171,0.07-0.269,0.253-0.21
				c0.218,0.073,0.458,0.234,0.611,0.386c0.153,0.151,0.228,0.323,0.224,0.565c-0.004,1.001-0.016,2.445,0.085,3.704
				C11.595,4.229,12.632,2.122,13.409,0.793z"/>
			<path fill="#3399ff" d="M16.132,3.119c0.208-0.052,0.357-0.046,0.488,0.059c0.116,0.086,0.279,0.235,0.355,0.332
				c0.106,0.132,0.077,0.224-0.058,0.277c-0.496,0.207-1.223,0.502-1.891,0.868c-0.107,0.458-0.21,0.894-0.298,1.305
				c0.539-0.249,1.034-0.413,1.451-0.516c0.218-0.054,0.397-0.056,0.548,0.043s0.322,0.236,0.415,0.36
				c0.126,0.168,0.064,0.258-0.099,0.319c-0.671,0.271-1.683,0.689-2.305,1.064c-0.32,0.194-0.401,0.162-0.581,0.08
				c-0.141-0.06-0.331-0.149-0.435-0.229c-0.165-0.118-0.26-0.199-0.219-0.504c0.169-1.357,0.614-3.519,1.076-5.012
				c-0.084-0.127-0.175-0.284-0.229-0.375c-0.096-0.176-0.049-0.282,0.118-0.376c0.818-0.434,2.023-0.837,2.817-1.033
				c0.268-0.066,0.451-0.048,0.636,0.064c0.148,0.09,0.309,0.271,0.433,0.43c0.094,0.167,0.026,0.235-0.157,0.302
				c-0.542,0.187-1.617,0.61-2.301,0.947c-0.173,0.538-0.353,1.171-0.535,1.837C15.671,3.254,15.943,3.166,16.132,3.119z"/>
		</g>
		<g>
			<path fill="#3399ff" d="M5.657,11.675c-0.56,0.159-0.902,0.096-1.328-0.177c-0.175-0.115-0.155-0.288,0.011-0.382
				c0.869-0.488,2.21-0.978,2.87-1.12c0.489-0.11,1.019-0.009,1.345,0.247c0.223,0.177,0.192,0.31-0.036,0.409
				c-0.305,0.128-0.769,0.295-1.25,0.478c-0.01,0.044-0.027,0.102-0.053,0.17c-0.651,1.624-1.378,4.171-1.633,5.866
				c-0.028,0.186-0.103,0.226-0.278,0.153c-0.151-0.057-0.307-0.134-0.49-0.279c-0.168-0.127-0.245-0.266-0.214-0.526
				c0.162-1.344,0.638-3.293,1.146-4.86C5.717,11.66,5.687,11.667,5.657,11.675z"/>
			<path fill="#3399ff" d="M12.107,8.892c0.075-0.208,0.201-0.25,0.414-0.155c0.19,0.09,0.443,0.259,0.567,0.376
				c0.178,0.166,0.183,0.271,0.08,0.58c-0.542,1.555-1.292,4.182-1.518,5.869c-0.023,0.205-0.114,0.218-0.278,0.153
				c-0.14-0.06-0.304-0.125-0.496-0.267c-0.193-0.142-0.228-0.238-0.203-0.518c0.036-0.367,0.092-0.781,0.172-1.221
				c-0.454,0.207-1.059,0.524-1.566,0.818c-0.143,0.656-0.251,1.283-0.315,1.835c-0.025,0.196-0.125,0.22-0.277,0.153
				c-0.142-0.06-0.307-0.134-0.505-0.254c-0.21-0.126-0.252-0.254-0.227-0.533c0.161-1.692,0.755-4.312,1.336-5.96
				c0.087-0.243,0.185-0.277,0.412-0.165c0.168,0.084,0.416,0.234,0.562,0.356c0.185,0.154,0.192,0.269,0.09,0.577
				c-0.237,0.743-0.521,1.687-0.763,2.662c0.579-0.258,1.08-0.487,1.476-0.627C11.354,11.256,11.743,9.887,12.107,8.892z"/>
			<path fill="#3399ff" d="M15.424,11.103c0.208-0.051,0.356-0.046,0.488,0.059c0.115,0.087,0.279,0.236,0.355,0.333
				c0.106,0.132,0.077,0.224-0.058,0.277c-0.497,0.207-1.223,0.502-1.891,0.868c-0.108,0.458-0.21,0.894-0.298,1.304
				c0.539-0.249,1.034-0.413,1.451-0.516c0.219-0.054,0.397-0.056,0.547,0.044c0.151,0.1,0.321,0.236,0.416,0.36
				c0.125,0.169,0.063,0.258-0.1,0.32c-0.669,0.27-1.682,0.688-2.304,1.064c-0.32,0.194-0.402,0.162-0.58,0.08
				c-0.142-0.06-0.332-0.149-0.436-0.229c-0.166-0.117-0.259-0.199-0.219-0.504c0.169-1.357,0.614-3.519,1.077-5.012
				c-0.084-0.126-0.176-0.283-0.229-0.374c-0.096-0.177-0.048-0.283,0.117-0.377c0.82-0.434,2.024-0.837,2.817-1.033
				c0.269-0.066,0.451-0.048,0.637,0.064c0.149,0.09,0.309,0.271,0.433,0.43c0.094,0.167,0.026,0.235-0.157,0.302
				c-0.543,0.186-1.617,0.609-2.302,0.948c-0.172,0.537-0.353,1.17-0.535,1.837C14.962,11.237,15.236,11.149,15.424,11.103z"/>
		</g>
		<g>
			<path fill="#3399ff" d="M4.333,19.522c-0.161-0.139-0.146-0.248-0.001-0.389c0.264-0.254,0.639-0.526,1.028-0.696
				c0.627-0.271,1.376-0.435,1.96-0.242c0.903,0.292,1.358,0.727,1.461,1.354c0.3,1.809-1.927,4.38-3.539,5.567
				c-0.269,0.193-0.375,0.271-0.714,0.219c-0.252-0.043-0.602-0.136-0.852-0.253c-0.227-0.112-0.301-0.157-0.246-0.486
				c0.188-1.067,0.762-3.345,1.182-4.838C4.531,19.684,4.415,19.597,4.333,19.522z M4.685,24.224
				c2.463-1.997,3.233-4.714,2.839-5.121c-0.21-0.211-0.979-0.042-1.49,0.4C5.679,20.58,5.075,22.696,4.685,24.224z"/>
			<path fill="#3399ff" d="M9.808,23.053c-0.145,0.352-0.266,0.676-0.362,0.963c-0.1,0.277-0.182,0.287-0.36,0.163
				c-0.138-0.093-0.215-0.147-0.304-0.251c-0.19-0.174-0.232-0.385-0.112-0.751c0.432-1.316,1.731-4.448,2.613-6.118
				c0.107-0.205,0.2-0.343,0.559-0.253c0.359,0.09,0.439,0.123,0.767,0.253c0.384,0.146,0.346,0.335,0.328,0.603
				c-0.125,1.663-0.166,3.924-0.009,5.37c0.017,0.195-0.048,0.232-0.231,0.215c-0.142-0.018-0.24-0.035-0.463-0.127
				c-0.2-0.088-0.282-0.204-0.326-0.468c-0.022-0.13-0.041-0.294-0.068-0.487C11.202,22.392,10.517,22.688,9.808,23.053z
				 M11.775,21.219c-0.05-0.924-0.044-2.009,0.014-2.75c-0.414,0.881-0.97,2.123-1.468,3.298
				C10.857,21.552,11.318,21.375,11.775,21.219z"/>
			<path fill="#3399ff" d="M15.285,17.142c-0.561,0.16-0.903,0.097-1.328-0.177c-0.176-0.114-0.155-0.288,0.011-0.381
				c0.869-0.488,2.211-0.979,2.87-1.12c0.489-0.111,1.018-0.01,1.344,0.246c0.223,0.177,0.193,0.31-0.035,0.409
				c-0.306,0.128-0.77,0.295-1.251,0.477c-0.009,0.045-0.027,0.102-0.052,0.171c-0.651,1.624-1.38,4.171-1.635,5.866
				c-0.027,0.186-0.102,0.225-0.278,0.153c-0.151-0.058-0.306-0.135-0.489-0.279c-0.169-0.127-0.245-0.265-0.215-0.526
				c0.163-1.345,0.639-3.293,1.146-4.86C15.344,17.128,15.314,17.135,15.285,17.142z"/>
			<path fill="#3399ff" d="M20.258,17.755c0.208-0.051,0.357-0.046,0.488,0.058c0.116,0.087,0.28,0.236,0.356,0.333
				c0.106,0.132,0.076,0.223-0.058,0.277c-0.496,0.207-1.223,0.502-1.89,0.868c-0.109,0.458-0.21,0.893-0.298,1.304
				c0.538-0.249,1.034-0.414,1.45-0.516c0.218-0.054,0.396-0.056,0.548,0.043c0.151,0.1,0.321,0.236,0.416,0.36
				c0.125,0.169,0.063,0.258-0.101,0.32c-0.669,0.271-1.682,0.689-2.304,1.064c-0.32,0.195-0.402,0.162-0.58,0.08
				c-0.142-0.06-0.332-0.149-0.436-0.229c-0.165-0.117-0.259-0.199-0.219-0.503c0.169-1.357,0.614-3.52,1.077-5.013
				c-0.084-0.126-0.175-0.283-0.229-0.375c-0.096-0.176-0.049-0.283,0.118-0.376c0.819-0.434,2.023-0.837,2.817-1.033
				c0.268-0.066,0.451-0.049,0.637,0.063c0.148,0.09,0.308,0.271,0.431,0.43c0.095,0.166,0.027,0.235-0.156,0.302
				c-0.544,0.187-1.617,0.609-2.302,0.948c-0.173,0.537-0.353,1.171-0.535,1.836C19.797,17.89,20.07,17.801,20.258,17.755z"/>
		</g>
	</g>
</g>
<g id="Layer_2" display="none">
	<g display="inline">
		<g>
			<path fill="#3399ff" d="M1.441,8.435C0.904,8.649,0.56,8.624,0.112,8.396c-0.186-0.095-0.184-0.269-0.029-0.378
				C0.89,7.447,2.165,6.826,2.801,6.618c0.472-0.158,1.004-0.115,1.353,0.104C4.392,6.875,4.376,7.01,4.16,7.13
				C3.874,7.288,3.432,7.5,2.977,7.73C2.971,7.774,2.959,7.833,2.941,7.904c-0.476,1.671-0.933,4.261-1.01,5.958
				c-0.008,0.187-0.078,0.233-0.259,0.18c-0.154-0.041-0.315-0.102-0.512-0.226C0.981,13.71,0.891,13.58,0.895,13.32
				c0.022-1.345,0.292-3.318,0.631-4.917C1.497,8.414,1.469,8.424,1.441,8.435z"/>
			<path fill="#3399ff" d="M5.121,11.775c-0.106,0.362-0.192,0.693-0.258,0.988c-0.069,0.283-0.149,0.302-0.337,0.196
				c-0.146-0.076-0.228-0.124-0.326-0.216c-0.206-0.152-0.269-0.355-0.189-0.73c0.292-1.344,1.253-4.568,1.952-6.308
				c0.085-0.214,0.161-0.359,0.524-0.308c0.364,0.053,0.447,0.074,0.784,0.17c0.394,0.106,0.376,0.296,0.386,0.562
				c0.045,1.653,0.238,3.891,0.541,5.301c0.037,0.191-0.022,0.234-0.206,0.235c-0.141-0.002-0.241-0.009-0.47-0.079
				c-0.207-0.065-0.299-0.172-0.369-0.427c-0.036-0.126-0.071-0.287-0.118-0.474C6.429,10.979,5.783,11.342,5.121,11.775z
				 M6.875,9.763c-0.144-0.907-0.25-1.979-0.267-2.717c-0.319,0.912-0.741,2.196-1.111,3.408C6.003,10.186,6.44,9.963,6.875,9.763z"
				/>
			<path fill="#3399ff" d="M12.121,7.485c0.739,0.498,0.443,1.145,0.263,1.509c-0.373,0.761-1.462,1.746-2.715,2.219
				c-0.152,0.055-0.293,0.052-0.424-0.009c-0.142-0.067-0.292-0.122-0.469-0.198c-0.178-0.075-0.259-0.175-0.245-0.438
				c0.072-1.385,0.35-3.425,0.665-4.854C9.029,5.579,8.902,5.497,8.764,5.385C8.586,5.244,8.573,5.151,8.724,5
				c0.498-0.502,1.208-0.953,1.869-1.18c0.654-0.225,1.354-0.196,2.025,0.261c0.646,0.446,0.452,1.078,0.295,1.479
				c-0.188,0.466-0.646,1.105-1.258,1.682C11.804,7.296,11.963,7.379,12.121,7.485z M9.639,10.113
				c1.101-0.655,2.132-1.888,1.761-2.175c-0.182-0.14-0.825,0.135-1.54,0.664C9.772,9.107,9.704,9.605,9.639,10.113z M11.9,4.544
				c-0.148-0.173-0.864,0.205-1.31,0.581c-0.171,0.633-0.318,1.301-0.465,2.001C11.276,6.311,12.216,4.916,11.9,4.544z"/>
			<path fill="#3399ff" d="M15.52,7.596c0.186-0.079,0.338-0.079,0.5-0.019c0.162,0.061,0.361,0.193,0.489,0.34
				c0.112,0.133,0.077,0.211-0.067,0.293c-0.452,0.271-1.477,0.867-1.965,1.248c-0.186,0.143-0.258,0.18-0.43,0.123
				c-0.196-0.069-0.327-0.129-0.534-0.228c-0.22-0.104-0.268-0.237-0.266-0.498c0.032-1.702,0.363-4.463,0.8-6.151
				c0.056-0.205,0.165-0.264,0.387-0.184c0.208,0.066,0.444,0.185,0.605,0.3c0.185,0.127,0.226,0.241,0.144,0.552
				c-0.362,1.326-0.625,3.2-0.792,4.801C14.756,7.957,15.198,7.722,15.52,7.596z"/>
			<path fill="#3399ff" d="M19.128,3.944c0.2-0.071,0.348-0.082,0.487,0.008c0.124,0.073,0.3,0.205,0.386,0.292
				c0.118,0.121,0.099,0.212-0.028,0.281c-0.47,0.255-1.157,0.621-1.777,1.05c-0.059,0.463-0.115,0.905-0.161,1.319
				c0.505-0.301,0.979-0.514,1.378-0.658c0.21-0.076,0.387-0.097,0.545-0.013c0.159,0.082,0.342,0.2,0.448,0.313
				c0.142,0.154,0.09,0.248-0.066,0.326c-0.634,0.335-1.59,0.853-2.166,1.287c-0.296,0.226-0.38,0.203-0.564,0.139
				c-0.145-0.045-0.344-0.114-0.454-0.182c-0.176-0.099-0.278-0.171-0.268-0.474c0.028-1.358,0.244-3.538,0.546-5.059
				c-0.094-0.118-0.2-0.262-0.264-0.348c-0.112-0.164-0.077-0.274,0.078-0.383c0.764-0.512,1.912-1.034,2.675-1.311
				c0.257-0.092,0.44-0.093,0.635-0.002c0.156,0.073,0.333,0.236,0.472,0.38c0.11,0.155,0.05,0.231-0.124,0.314
				c-0.517,0.24-1.534,0.769-2.175,1.172c-0.114,0.548-0.228,1.192-0.34,1.87C18.686,4.125,18.946,4.01,19.128,3.944z"/>
		</g>
		<g>
			<path fill="#3399ff" d="M1.008,22.221c-0.015,0.254-0.166,0.231-0.357,0.173c-0.146-0.045-0.263-0.099-0.429-0.233
				c-0.167-0.134-0.279-0.266-0.271-0.539c0.064-1.317,0.361-3.333,0.696-4.768c-0.218-0.094-0.358-0.184-0.507-0.27
				c-0.176-0.098-0.195-0.21-0.053-0.358c0.541-0.562,1.249-0.99,1.907-1.227c0.697-0.251,1.452-0.189,2.019,0.125
				c0.737,0.402,0.607,0.88,0.479,1.302c-0.238,0.777-1.095,2.11-2.173,3.005c0.559,0.413,1.35,0.872,1.841,1.071
				c0.188,0.073,0.208,0.184,0.117,0.292c-0.097,0.123-0.276,0.284-0.437,0.374c-0.242,0.141-0.324,0.149-0.672,0.049
				c-0.556-0.166-1.313-0.562-1.92-0.958C1.146,20.93,1.063,21.596,1.008,22.221z M3.351,15.653
				c-0.137-0.145-0.838,0.216-1.298,0.586c-0.192,0.749-0.387,1.616-0.554,2.527C2.545,17.873,3.661,15.971,3.351,15.653z"/>
			<path fill="#3399ff" d="M4.681,18.3c-0.086-1.253,0.436-3.273,1.205-4.369c0.319-0.461,0.722-0.745,1.332-0.61
				c0.317,0.068,0.599,0.162,0.896,0.334c0.385,0.229,0.634,0.741,0.747,1.414c0.173,1.014,0.083,3.278-0.991,4.636
				c-0.274,0.346-0.688,0.572-1.249,0.569c-0.315-0.006-0.673-0.103-0.985-0.249C5.285,19.86,4.766,19.528,4.681,18.3z M6.29,19.595
				c0.339,0.135,0.921-0.612,1.251-2.445c0.334-1.855,0.141-2.929-0.122-3.062c-0.326-0.161-0.999,1.115-1.307,2.682
				C5.812,18.301,6.001,19.483,6.29,19.595z"/>
			<path fill="#3399ff" d="M10.431,18.889c-0.012,0.177-0.111,0.201-0.272,0.173c-0.21-0.042-0.442-0.153-0.568-0.258
				c-0.095-0.083-0.191-0.2-0.191-0.383c-0.025-1.446,0.347-4.479,0.612-6.074c0.05-0.276,0.224-0.307,0.416-0.311
				c0.247-0.002,0.614,0.059,0.954,0.163c0.256,0.081,0.271,0.214,0.318,0.521c0.115,0.8,0.396,2.175,0.661,3.212
				c0.16-1.471,0.526-3.596,0.866-4.744c0.042-0.155,0.128-0.24,0.325-0.117c0.339,0.255,0.481,0.56,0.417,1.067
				c-0.159,1.233-0.507,3.556-0.638,5.469c-0.019,0.245-0.137,0.307-0.377,0.297c-0.263-0.012-0.531-0.067-0.747-0.129
				c-0.229-0.068-0.414-0.217-0.524-0.523c-0.26-0.693-0.585-1.9-0.751-2.834C10.692,15.851,10.488,17.855,10.431,18.889z"/>
			<path fill="#3399ff" d="M14.739,11.354c-0.173-0.121-0.171-0.229-0.041-0.384c0.232-0.279,0.575-0.585,0.942-0.792
				c0.593-0.333,1.314-0.571,1.912-0.441c0.921,0.196,1.415,0.578,1.581,1.187c0.482,1.756-1.453,4.522-2.922,5.86
				c-0.244,0.217-0.341,0.307-0.682,0.289c-0.255-0.016-0.609-0.072-0.868-0.162c-0.235-0.087-0.313-0.123-0.292-0.455
				c0.077-1.073,0.408-3.381,0.67-4.897C14.95,11.493,14.827,11.418,14.739,11.354z M15.568,15.958
				c2.227-2.226,2.708-4.986,2.276-5.347c-0.228-0.188-0.97,0.059-1.43,0.547C16.174,12.259,15.797,14.411,15.568,15.958z"/>
			<path fill="#3399ff" d="M21.787,11.032c0.2-0.073,0.348-0.082,0.488,0.009c0.124,0.072,0.3,0.203,0.386,0.291
				c0.118,0.12,0.098,0.212-0.029,0.28c-0.468,0.255-1.154,0.621-1.777,1.05c-0.058,0.464-0.116,0.905-0.159,1.319
				c0.504-0.301,0.977-0.514,1.378-0.658c0.21-0.077,0.386-0.097,0.545-0.014c0.159,0.083,0.343,0.2,0.446,0.313
				c0.142,0.155,0.09,0.249-0.066,0.327c-0.633,0.334-1.589,0.853-2.164,1.287c-0.297,0.226-0.381,0.201-0.565,0.14
				c-0.146-0.045-0.342-0.115-0.454-0.183c-0.175-0.097-0.277-0.17-0.268-0.474c0.027-1.357,0.243-3.537,0.547-5.058
				C20,9.543,19.894,9.399,19.83,9.313c-0.112-0.164-0.076-0.274,0.077-0.383c0.765-0.513,1.913-1.035,2.676-1.311
				c0.258-0.092,0.44-0.094,0.635-0.002c0.156,0.073,0.332,0.236,0.471,0.38c0.11,0.155,0.051,0.231-0.124,0.314
				c-0.517,0.24-1.533,0.769-2.175,1.172c-0.114,0.548-0.227,1.192-0.339,1.869C21.345,11.214,21.605,11.098,21.787,11.032z"/>
		</g>
	</g>
</g>
<g id="Layer_3">
	<g>
		<path fill="#3399ff" d="M23.068,1.958c-0.102-0.008-0.203-0.017-0.304-0.025c-1.862-0.123-3.724-0.083-5.792-0.166
			c-1.449-0.082-3.104-0.042-4.551-0.042c3.431,0.077,7.038,0.05,10.335,0.333c-0.333,0.095-0.725,0.171-1.188,0.171
			c-1.116-0.038-2.303-0.065-3.303-0.084c0-0.041,0-0.121,0-0.161c-3,0.12-6.006-0.439-9.108-0.238
			c0.109,0.022,0.03-0.151,0.007-0.151c-0.007,0-0.011,0-0.018,0c0.007,0,0.016,0,0.024,0c-0.021,0-0.007,0.273,0.186,0.273
			c-0.193,0-0.206,0.099-0.185,0.076c3.053-0.038,5.907,0.061,8.956,0.141C13.394,2.005,8.831,2.111,3.979,2.109
			c-0.207,0-0.62,0.014-0.827,0.014C2.324,2.001,1.277,1.967,0.45,1.966c0.207-0.202-0.185-0.601,0.815-0.519
			c0-0.041,0-0.122,0-0.162c-1-0.204-2.058-0.772-0.401-0.933C2.727,0.19,5.318,0.354,7.593,0.274
			c1.655-0.039,3.365-0.08,5.019,0.003c2.275,0.123,4.786,0.083,7.061,0.247c0.828,0.042,2.29-0.08,2.704,0.042
			c0.297,0.059,0.315,0.145,0.27,0.241c-1.36-0.015-2.712-0.02-4.053-0.039c-1.645-0.046-3.289-0.098-4.932-0.179
			c1.608,0.112,3.26,0.156,4.935,0.179c1.338,0.038,2.677,0.302,4.015,0.347c-0.049,0.081-0.095,0.479-0.014,0.479
			c0,0,0.414,0,0.621,0c0.828,0,0.62,0.258,0.207,0.46C23.318,2.094,23.2,1.911,23.068,1.958z"/>
	</g>
</g>
</svg>
