<?xml version="1.0" standalone="no"?>
<!DOCTYPE svg PUBLIC "-//W3C//DTD SVG 20010904//EN"
 "http://www.w3.org/TR/2001/REC-SVG-20010904/DTD/svg10.dtd">
<svg version="1.0" xmlns="http://www.w3.org/2000/svg"
 width="1480.000000pt" height="1480.000000pt" viewBox="0 0 1480.000000 1480.000000"
 preserveAspectRatio="xMidYMid meet">
<metadata>
Created by potrace 1.11, written by Peter Selinger 2001-2013
</metadata>
<g transform="translate(0.000000,1480.000000) scale(0.100000,-0.100000)"
fill="#000000" stroke="none">
<path d="M4328 11148 c-8 -4 -11 -1146 -11 -3770 l0 -3763 34 -5 c19 -3 52 -3
75 -2 l41 4 0 3769 c0 2700 -3 3769 -11 3770 -36 5 -120 3 -128 -3z"/>
<path d="M9694 11145 c-2 -5 -3 -1704 -2 -3774 l3 -3764 72 -1 72 -1 -3 30
c-1 17 1 38 6 48 5 9 5 17 1 17 -4 0 -7 28 -5 62 3 79 3 86 0 123 -2 17 0 38
5 48 4 9 4 17 0 17 -9 0 -10 90 -2 105 5 9 4 28 -1 40 -5 12 -3 62 3 72 4 7 4
14 -1 17 -9 5 -9 47 1 63 4 7 3 14 -2 17 -4 3 -5 24 -1 46 4 22 4 40 1 40 -9
0 -7 43 2 57 4 7 3 14 -2 17 -4 3 -5 24 -1 46 4 22 5 40 1 40 -3 0 -6 11 -6
25 0 14 4 25 8 25 5 0 5 5 1 12 -10 15 -10 60 -1 75 4 7 4 14 -1 17 -4 2 -6
31 -4 63 3 71 3 80 0 118 -2 17 0 38 5 48 4 9 4 17 0 17 -9 0 -10 90 -2 105 5
9 4 31 -1 38 -6 7 -4 70 3 74 4 2 4 9 0 16 -10 16 -10 57 0 57 4 0 5 5 1 12
-10 15 -10 60 -1 75 4 7 4 14 -1 17 -4 2 -6 31 -4 63 3 71 3 80 0 118 -2 17 0
38 5 48 4 9 4 17 0 17 -9 0 -10 90 -2 105 5 9 4 31 -1 38 -6 7 -4 70 3 74 4 2
4 9 0 16 -10 16 -10 57 0 57 4 0 5 5 1 12 -10 15 -10 60 -1 75 4 7 4 14 -1 17
-4 2 -6 31 -4 63 3 71 3 80 0 118 -2 17 0 38 5 48 4 9 4 17 0 17 -9 0 -10 90
-2 105 5 9 4 31 -1 38 -6 7 -4 70 3 74 4 2 4 9 0 16 -10 16 -10 57 0 57 4 0 5
5 1 12 -10 15 -10 60 -1 75 4 7 4 14 -1 17 -4 2 -6 31 -4 63 3 71 3 80 0 118
-2 17 0 38 5 48 4 9 4 17 0 17 -9 0 -10 90 -2 105 5 9 4 31 -1 38 -6 7 -4 70
3 74 4 2 4 9 0 16 -10 16 -10 57 0 57 4 0 5 5 1 12 -10 15 -10 60 -1 75 4 7 4
14 -1 17 -4 2 -6 31 -4 63 3 71 3 80 0 118 -2 17 0 38 5 48 4 9 4 17 0 17 -9
0 -10 90 -2 105 5 9 4 31 -1 38 -6 7 -4 70 3 74 4 2 4 9 0 16 -10 16 -10 57 0
57 4 0 5 5 1 12 -10 15 -10 60 -1 75 4 7 4 14 -1 17 -4 2 -6 31 -4 63 3 71 3
80 0 118 -2 17 0 38 5 48 4 9 4 17 0 17 -9 0 -10 90 -2 105 5 9 4 31 -1 38 -6
7 -4 70 3 74 4 2 4 9 0 16 -10 16 -10 57 0 57 4 0 5 5 1 12 -10 15 -10 60 -1
75 4 7 4 14 -1 17 -4 2 -6 31 -4 63 3 71 3 80 0 118 -2 17 0 38 5 48 4 9 4 17
0 17 -9 0 -10 90 -2 105 5 9 4 31 -1 38 -6 7 -4 70 3 74 4 2 4 9 0 16 -10 16
-10 57 0 57 4 0 5 5 1 12 -10 15 -10 60 -1 75 4 7 4 14 -1 17 -4 2 -6 31 -4
63 3 71 3 80 0 118 -2 17 0 38 5 48 4 9 4 17 0 17 -9 0 -10 90 -2 105 5 9 4
31 -1 38 -6 7 -4 70 3 74 4 2 4 9 0 16 -10 16 -10 57 0 57 4 0 5 5 1 12 -10
15 -10 60 -1 75 4 7 4 14 -1 17 -4 2 -6 31 -4 63 3 71 3 80 0 118 -2 17 0 38
5 48 4 9 4 17 0 17 -9 0 -10 90 -2 105 5 9 4 31 -1 38 -6 7 -4 70 3 74 4 2 4
9 0 16 -10 16 -10 57 0 57 4 0 5 5 1 12 -10 15 -10 60 -1 75 4 7 4 14 -1 17
-4 2 -6 31 -4 63 3 71 3 80 0 118 -2 17 0 38 5 48 4 9 4 17 0 17 -9 0 -10 90
-2 105 5 9 4 31 -1 38 -6 7 -4 70 3 74 4 2 4 9 0 16 -10 16 -10 57 0 57 4 0 5
5 1 12 -10 16 -11 69 -1 75 4 2 4 10 0 16 -4 7 -7 30 -8 52 l0 40 -69 0 c-38
1 -70 -4 -72 -10z"/>
<path d="M1977 8834 c-1 -1 -40 -4 -87 -8 -47 -3 -96 -8 -110 -11 -14 -3 -45
-8 -70 -11 -25 -4 -55 -10 -67 -15 -13 -5 -23 -6 -23 -4 0 2 -11 0 -25 -5 -14
-5 -36 -12 -48 -14 -63 -12 -352 -136 -367 -157 -3 -4 -17 -13 -30 -18 -24
-10 -50 -26 -74 -44 -6 -4 -39 -27 -72 -50 -150 -103 -325 -277 -424 -421 -19
-28 -38 -53 -42 -56 -7 -6 -118 -197 -118 -204 0 -3 -14 -36 -31 -73 -18 -38
-32 -74 -32 -80 0 -7 -4 -13 -9 -13 -4 0 -7 -3 -6 -7 1 -5 -6 -35 -16 -68 -10
-33 -20 -67 -21 -75 -2 -8 -4 -16 -5 -17 -2 -2 -3 -6 -4 -10 -19 -76 -24 -102
-34 -168 -9 -63 -9 -382 1 -455 13 -101 17 -125 22 -150 3 -14 7 -37 10 -51 8
-42 45 -159 71 -224 25 -61 105 -226 114 -235 10 -10 70 -98 70 -103 0 -22
216 -240 300 -303 104 -78 262 -166 405 -224 11 -4 37 -16 59 -25 21 -9 46
-19 55 -20 9 -2 16 -4 16 -5 0 -1 7 -3 15 -5 8 -3 61 -18 116 -34 56 -16 119
-32 140 -35 22 -4 46 -8 54 -11 15 -4 67 -11 175 -22 74 -8 387 -7 435 1 19 3
55 8 79 11 24 2 51 7 61 10 10 3 28 8 39 10 12 3 31 7 43 10 112 24 338 135
446 220 24 18 166 160 187 185 72 90 152 249 207 414 19 57 19 60 1 70 -20 11
-38 17 -67 19 -14 2 -23 -11 -38 -53 -10 -30 -25 -69 -33 -87 -8 -17 -15 -38
-15 -46 0 -8 -6 -20 -14 -26 -8 -7 -17 -23 -20 -36 -7 -26 -25 -56 -103 -169
-50 -71 -216 -236 -238 -236 -8 0 -15 -4 -17 -9 -12 -32 -252 -148 -340 -165
-13 -2 -34 -7 -48 -10 -63 -14 -104 -18 -230 -21 -74 -2 -155 0 -180 5 -25 4
-61 10 -80 13 -197 27 -397 191 -518 426 -51 99 -111 268 -128 361 -2 8 -6 31
-10 50 -54 267 -65 1090 -19 1455 13 108 17 131 36 218 27 126 47 184 126 355
9 17 19 32 24 32 5 0 9 5 9 11 0 17 65 97 128 156 31 29 83 65 117 82 65 32
172 64 186 55 5 -3 9 -1 9 4 0 10 218 9 280 -3 25 -4 51 -12 58 -18 6 -5 12
-7 12 -3 0 11 114 -52 146 -81 93 -85 110 -168 69 -340 -3 -13 -7 -32 -10 -44
-2 -11 -7 -30 -11 -41 -3 -11 -8 -30 -10 -41 -2 -12 -8 -42 -14 -67 -6 -25
-12 -54 -14 -65 -2 -11 -9 -39 -15 -62 -29 -106 -3 -228 62 -293 50 -49 138
-85 262 -107 44 -7 213 -6 265 2 116 19 226 82 275 159 28 44 37 65 51 121 29
115 21 268 -20 385 -48 136 -144 259 -279 359 -73 54 -248 143 -302 154 -5 2
-14 5 -20 9 -33 20 -278 72 -342 73 -18 0 -33 2 -33 6 0 3 -10 6 -22 6 -49 3
-329 9 -331 7z"/>
<path d="M7075 8832 c-2 -2 -28 -6 -57 -8 -29 -2 -78 -9 -108 -16 -30 -6 -59
-12 -65 -13 -5 -1 -12 -3 -15 -4 -3 -2 -14 -4 -25 -5 -36 -5 -209 -68 -285
-104 -242 -116 -433 -260 -622 -471 -27 -29 -48 -56 -48 -59 0 -4 -12 -20 -26
-36 -34 -36 -141 -212 -183 -301 -62 -129 -113 -281 -127 -369 -3 -22 -7 -43
-10 -47 -2 -4 -6 -31 -10 -60 -3 -30 -7 -67 -9 -84 -6 -47 -6 -234 0 -295 3
-30 7 -75 10 -100 2 -25 7 -56 10 -70 4 -14 7 -34 9 -45 14 -127 113 -395 194
-525 68 -108 97 -150 105 -150 4 0 7 -6 7 -12 0 -17 168 -191 245 -255 167
-139 445 -282 640 -329 34 -9 39 -10 60 -17 21 -7 66 -16 102 -22 12 -2 34 -6
50 -9 15 -4 48 -8 73 -11 25 -2 68 -8 95 -11 110 -16 456 -8 525 11 17 5 75
16 105 20 11 2 54 15 95 30 41 15 81 27 88 28 6 0 12 4 12 9 0 4 5 8 11 8 11
0 75 31 144 70 135 75 305 233 388 357 25 37 45 72 45 77 0 5 4 12 9 15 12 9
65 111 57 111 -3 0 -1 6 5 14 11 13 61 151 61 168 0 9 -32 23 -74 34 -24 6
-33 -5 -42 -52 -2 -12 -11 -38 -19 -58 -8 -20 -15 -38 -15 -41 -1 -7 -54 -115
-76 -153 -51 -89 -176 -234 -268 -311 -145 -120 -339 -211 -505 -237 -63 -10
-312 -12 -376 -3 -137 20 -279 75 -352 136 -60 51 -143 137 -170 177 -15 22
-31 43 -34 46 -3 3 -25 46 -49 95 -23 50 -46 97 -50 106 -5 9 -14 36 -21 60
-7 24 -13 46 -14 49 -8 25 -17 59 -19 71 -4 19 -15 78 -22 114 -24 132 -37
390 -38 755 l-1 275 1090 1 c600 1 1093 2 1097 3 22 4 -13 318 -51 454 -74
260 -259 534 -466 688 -33 24 -61 47 -63 52 -2 4 -8 7 -13 7 -5 0 -32 15 -61
33 -73 46 -243 123 -289 131 -8 1 -39 10 -69 19 -54 16 -74 20 -135 32 -16 3
-39 7 -50 9 -71 16 -388 29 -400 18z m249 -116 c43 -10 129 -54 158 -81 52
-48 120 -148 133 -195 1 -3 10 -32 20 -65 30 -100 36 -198 38 -595 l2 -285
-595 0 -595 0 1 35 c4 103 14 280 19 315 3 22 7 63 10 90 2 28 7 70 10 95 9
64 56 243 68 258 5 6 6 12 2 12 -4 0 -2 6 4 13 6 8 8 17 4 20 -3 4 -1 7 5 7 7
0 12 9 12 20 0 11 5 20 10 20 6 0 9 4 8 8 -6 18 77 136 134 191 107 106 237
150 423 146 55 -2 113 -6 129 -9z"/>
<path d="M12297 8834 c-1 -1 -38 -4 -82 -8 -44 -3 -91 -8 -105 -11 -14 -2 -41
-6 -60 -9 -19 -2 -59 -10 -88 -16 -30 -7 -59 -13 -65 -14 -7 -2 -19 -6 -27 -9
-8 -3 -37 -12 -65 -20 -135 -39 -300 -122 -391 -196 -18 -15 -41 -33 -51 -41
-27 -21 -143 -161 -143 -172 0 -6 -9 -23 -21 -39 -11 -16 -18 -29 -14 -29 3 0
0 -10 -7 -22 -7 -13 -13 -25 -13 -28 -1 -3 -6 -27 -13 -55 -40 -163 -12 -325
72 -418 80 -88 146 -108 361 -109 181 -1 267 22 342 89 70 64 88 111 87 228
-1 55 -4 114 -8 130 -3 17 -8 57 -11 90 -3 33 -10 89 -14 125 -26 183 35 313
176 377 83 38 121 46 242 48 185 3 296 -50 368 -175 80 -139 91 -211 91 -583
0 -403 -11 -464 -111 -568 -31 -32 -174 -129 -191 -129 -4 0 -31 -11 -59 -24
-54 -24 -283 -101 -467 -156 -58 -17 -189 -60 -292 -96 -103 -35 -190 -64
-193 -64 -8 0 -57 -21 -150 -66 -80 -38 -177 -99 -218 -138 -15 -14 -30 -26
-32 -26 -3 0 -21 -17 -40 -37 -53 -57 -130 -175 -150 -230 -9 -26 -20 -55 -23
-63 -25 -70 -35 -248 -20 -349 32 -213 165 -385 379 -489 74 -36 177 -74 240
-88 11 -2 29 -6 42 -9 12 -3 36 -8 52 -10 17 -3 37 -8 45 -10 38 -11 168 -19
310 -18 186 1 262 7 355 28 39 8 81 18 94 21 85 18 213 94 283 166 53 55 125
168 154 240 18 45 40 64 41 36 1 -42 70 -198 108 -246 33 -41 86 -92 125 -120
41 -29 152 -80 190 -87 8 -2 33 -8 55 -13 22 -6 65 -14 95 -18 65 -9 330 -9
415 -1 33 3 80 8 105 10 86 9 210 43 210 59 0 4 6 8 14 8 19 0 104 77 121 110
13 25 12 29 -14 54 -34 32 -42 32 -72 0 -64 -70 -167 -113 -258 -108 -146 8
-203 72 -227 259 -3 28 -7 518 -8 1090 -2 572 -5 1049 -8 1060 -3 11 -9 47
-13 79 -25 210 -157 430 -345 579 -39 31 -230 130 -230 120 0 -4 -5 -2 -12 5
-7 7 -18 12 -24 12 -7 0 -25 5 -41 12 -32 13 -24 11 -128 32 -108 21 -134 25
-207 32 -35 3 -83 8 -108 10 -46 4 -349 11 -353 8z m560 -2071 c-2 -329 -7
-609 -11 -623 -3 -14 -9 -41 -12 -60 -7 -50 -52 -189 -74 -230 -11 -19 -25
-46 -32 -60 -7 -14 -20 -32 -28 -40 -8 -8 -24 -26 -35 -40 -42 -53 -144 -119
-206 -133 -33 -8 -101 -20 -114 -20 -43 1 -150 16 -163 23 -9 4 -32 14 -49 20
-18 7 -33 16 -33 21 0 5 -6 9 -13 9 -15 0 -79 65 -115 117 -26 37 -78 159 -86
200 -3 16 -7 39 -10 53 -21 95 -25 362 -7 455 32 162 103 296 212 404 63 63
186 146 279 189 202 94 290 136 344 169 63 37 121 93 132 125 3 10 10 18 15
18 7 0 9 -198 6 -597z"/>
</g>
</svg>
