<?xml version="1.0" encoding="utf-8"?>
<!-- Generator: Adobe Illustrator 16.0.0, SVG Export Plug-In . SVG Version: 6.00 Build 0)  -->
<!DOCTYPE svg PUBLIC "-//W3C//DTD SVG 1.1//EN" "http://www.w3.org/Graphics/SVG/1.1/DTD/svg11.dtd">
<svg version="1.1" id="Layer_1" xmlns="http://www.w3.org/2000/svg" xmlns:xlink="http://www.w3.org/1999/xlink" x="0px" y="0px"
	 width="30.625px" height="12.5px" viewBox="0 0 30.625 12.5" enable-background="new 0 0 30.625 12.5" xml:space="preserve">
<rect x="-78.127" y="-47" fill="none" width="36.916" height="5.377"/>
<text transform="matrix(1 0 0 1 -73.0254 -42.5757)" fill="#6CBDFF" font-family="'SignPainter-HouseBrush'" font-size="7">échanger</text>
<rect x="-50.44" y="-41.473" fill="none" width="36.915" height="5.377"/>
<text transform="matrix(1 0 0 1 -43.6123 -37.0488)" fill="#6CBDFF" font-family="'SignPainter-HouseBrush'" font-size="7">curater</text>
<rect x="-48.627" y="-35.383" fill="none" width="36.915" height="5.377"/>
<text transform="matrix(1 0 0 1 -45.7061 -30.9585)" fill="#6CBDFF" font-family="'SignPainter-HouseBrush'" font-size="7">s’informer</text>
<rect x="-59.127" y="-32" fill="none" width="36.915" height="5.377"/>
<text transform="matrix(1 0 0 1 -57.3296 -27.5757)" fill="#6CBDFF" font-family="'SignPainter-HouseBrush'" font-size="7">structurer</text>
<g>
	<path fill="#6CBDFF" d="M1.835,11.147c-0.106,0.238-0.194,0.458-0.267,0.653c-0.074,0.188-0.13,0.193-0.25,0.104
		c-0.093-0.066-0.145-0.104-0.204-0.178c-0.127-0.123-0.152-0.269-0.062-0.517c0.322-0.894,1.274-3.014,1.911-4.141
		C3.042,6.93,3.107,6.837,3.352,6.906c0.244,0.069,0.299,0.092,0.521,0.188c0.26,0.109,0.23,0.237,0.213,0.42
		c-0.119,1.137-0.191,2.686-0.112,3.679c0.008,0.134-0.037,0.159-0.163,0.143c-0.096-0.015-0.164-0.029-0.314-0.097
		c-0.136-0.063-0.189-0.146-0.214-0.326c-0.013-0.09-0.022-0.203-0.037-0.336C2.804,10.723,2.329,10.912,1.835,11.147z M3.219,9.93
		C3.204,9.296,3.229,8.552,3.284,8.046c-0.301,0.595-0.706,1.436-1.071,2.232C2.584,10.14,2.904,10.027,3.219,9.93z"/>
	<path fill="#6CBDFF" d="M5.121,10.908c-0.63-0.229-0.876-0.605-0.823-1.219C4.375,8.726,5.036,7.113,5.792,6.44
		C6.045,6.214,6.271,6.1,6.598,6.187c0.229,0.065,0.46,0.172,0.626,0.28c0.175,0.112,0.214,0.326,0.203,0.537
		C7.404,7.424,7.229,7.942,7.078,8.268C7.024,8.38,6.957,8.438,6.842,8.37C6.752,8.317,6.588,8.224,6.53,8.151
		C6.451,8.053,6.416,7.889,6.449,7.746c0.049-0.204,0.256-0.901,0.138-0.948C6.431,6.739,5.914,7.46,5.519,8.478
		c-0.427,1.103-0.384,1.896-0.161,1.999c0.238,0.106,0.846-0.463,1.277-1.216c0.077-0.139,0.159-0.157,0.236-0.066
		C6.966,9.303,7.12,9.485,7,9.826C6.832,10.3,6.456,10.847,6.08,10.965C5.791,11.056,5.471,11.033,5.121,10.908z"/>
	<path fill="#6CBDFF" d="M8.793,6.535C8.406,6.633,8.172,6.583,7.887,6.387C7.769,6.305,7.786,6.187,7.901,6.126
		C8.506,5.809,9.435,5.5,9.89,5.415c0.337-0.065,0.698,0.013,0.917,0.195c0.149,0.125,0.126,0.216-0.033,0.279
		c-0.211,0.082-0.532,0.188-0.866,0.303C9.9,6.222,9.887,6.261,9.869,6.308c-0.479,1.1-1.027,2.832-1.234,3.987
		c-0.022,0.127-0.075,0.152-0.193,0.099c-0.103-0.042-0.208-0.098-0.331-0.2c-0.113-0.09-0.163-0.187-0.137-0.365
		c0.138-0.918,0.502-2.245,0.88-3.309C8.834,6.526,8.813,6.53,8.793,6.535z"/>
	<path fill="#6CBDFF" d="M11.915,5.405c0.13,0.137,0.153,0.311,0.056,0.554c-0.657,1.662-0.903,3.134-0.633,3.226
		c0.37,0.121,1.353-1.462,1.925-4.374c0.029-0.128,0.104-0.181,0.233-0.116c0.128,0.066,0.248,0.119,0.341,0.22
		c0.094,0.101,0.131,0.208,0.106,0.421c-0.168,1.505-0.673,2.841-1.152,3.64c-0.463,0.774-0.949,0.78-1.28,0.744
		C11.303,9.688,11,9.61,10.747,9.436c-0.303-0.207-0.371-0.586-0.346-1.1c0.032-0.645,0.507-2.253,0.999-3.091
		c0.084-0.14,0.136-0.166,0.272-0.066C11.766,5.251,11.832,5.323,11.915,5.405z"/>
	<path fill="#6CBDFF" d="M14.449,8.41c-0.105,0.238-0.194,0.458-0.266,0.653c-0.074,0.188-0.131,0.193-0.25,0.104
		c-0.093-0.065-0.145-0.104-0.204-0.177c-0.127-0.123-0.151-0.269-0.062-0.518c0.322-0.894,1.274-3.014,1.911-4.141
		c0.077-0.139,0.143-0.231,0.387-0.163c0.245,0.069,0.3,0.092,0.521,0.188c0.26,0.108,0.231,0.237,0.213,0.42
		c-0.119,1.137-0.191,2.686-0.111,3.679c0.007,0.134-0.037,0.159-0.163,0.143c-0.096-0.015-0.164-0.029-0.315-0.096
		c-0.136-0.063-0.189-0.146-0.214-0.327c-0.013-0.09-0.023-0.203-0.037-0.335C15.418,7.984,14.943,8.174,14.449,8.41z M15.833,7.192
		c-0.016-0.634,0.009-1.378,0.064-1.884c-0.301,0.596-0.706,1.436-1.071,2.232C15.198,7.402,15.518,7.29,15.833,7.192z"/>
	<path fill="#6CBDFF" d="M18.488,7.247c0.136-0.037,0.239-0.023,0.344,0.033s0.229,0.166,0.304,0.278
		c0.065,0.101,0.033,0.151-0.072,0.195c-0.334,0.144-1.09,0.459-1.459,0.675c-0.14,0.081-0.193,0.1-0.306,0.045
		c-0.128-0.065-0.212-0.119-0.345-0.205c-0.142-0.091-0.162-0.187-0.136-0.364c0.177-1.164,0.655-3.023,1.108-4.14
		c0.057-0.134,0.136-0.166,0.282-0.09c0.136,0.064,0.287,0.167,0.386,0.26c0.116,0.104,0.133,0.186,0.049,0.391
		C18.273,5.2,17.923,6.459,17.663,7.54C17.932,7.424,18.256,7.304,18.488,7.247z"/>
	<path fill="#6CBDFF" d="M19.521,7.753c-0.128-0.094-0.156-0.188-0.133-0.38c0.137-1.155,0.646-3.036,1.084-4.155
		c0.061-0.149,0.143-0.167,0.288-0.091c0.13,0.072,0.288,0.174,0.378,0.255c0.117,0.11,0.126,0.188,0.05,0.398
		c-0.398,1.068-0.95,2.886-1.133,4.058c-0.016,0.125-0.083,0.147-0.195,0.093C19.772,7.885,19.641,7.842,19.521,7.753z"/>
	<path fill="#6CBDFF" d="M22.276,3.608c-0.387,0.098-0.621,0.049-0.906-0.147c-0.118-0.082-0.101-0.201,0.015-0.261
		c0.604-0.317,1.534-0.626,1.989-0.711c0.337-0.065,0.698,0.014,0.917,0.195c0.149,0.125,0.126,0.217-0.033,0.279
		c-0.211,0.082-0.532,0.188-0.866,0.303c-0.008,0.03-0.021,0.069-0.039,0.116c-0.479,1.1-1.027,2.832-1.234,3.987
		c-0.022,0.127-0.075,0.153-0.193,0.1c-0.103-0.042-0.208-0.099-0.331-0.201c-0.113-0.09-0.163-0.187-0.137-0.365
		c0.138-0.918,0.502-2.244,0.88-3.308C22.317,3.599,22.296,3.604,22.276,3.608z"/>
	<path fill="#6CBDFF" d="M25.669,4.125c0.144-0.031,0.246-0.025,0.333,0.05c0.078,0.062,0.187,0.167,0.237,0.235
		c0.07,0.093,0.048,0.154-0.045,0.189c-0.344,0.132-0.848,0.32-1.312,0.557c-0.083,0.312-0.162,0.609-0.23,0.888
		c0.374-0.16,0.717-0.263,1.004-0.325c0.151-0.033,0.273-0.031,0.375,0.041c0.101,0.071,0.216,0.168,0.278,0.255
		c0.083,0.119,0.039,0.178-0.075,0.217c-0.464,0.172-1.167,0.439-1.601,0.684C24.41,7.043,24.354,7.02,24.234,6.96
		c-0.095-0.044-0.224-0.109-0.293-0.166c-0.111-0.083-0.174-0.142-0.14-0.35c0.143-0.927,0.489-2.399,0.835-3.414
		c-0.055-0.088-0.115-0.197-0.15-0.262c-0.062-0.123-0.028-0.194,0.088-0.255c0.569-0.281,1.403-0.534,1.951-0.653
		c0.185-0.04,0.31-0.024,0.436,0.056c0.1,0.064,0.206,0.192,0.288,0.304c0.061,0.115,0.014,0.162-0.113,0.203
		c-0.376,0.118-1.12,0.387-1.596,0.605c-0.129,0.365-0.265,0.795-0.403,1.249C25.35,4.209,25.539,4.154,25.669,4.125z M25.84,1.78
		c-0.165,0.101-0.377,0.11-0.558,0.007c-0.082-0.047-0.08-0.104-0.006-0.164c0.188-0.156,0.552-0.428,0.761-0.552
		c0.241-0.146,0.465-0.037,0.605,0.048c0.099,0.058,0.09,0.116-0.011,0.181C26.419,1.44,26.018,1.67,25.84,1.78z"/>
	<path fill="#6CBDFF" d="M26.937,5.19c0.595,0.265,1.128,0.343,1.525,0.256c0.267-0.058,0.349-0.211,0.177-0.375
		C28.495,4.938,27.817,4.62,27.5,4.38c-0.385-0.289-0.408-0.657-0.279-1.021c0.33-0.925,0.91-1.488,1.327-1.814
		c0.263-0.208,0.518-0.32,0.836-0.21c0.202,0.07,0.474,0.205,0.618,0.338c0.161,0.145,0.184,0.318,0.145,0.535
		c-0.095,0.522-0.339,1.078-0.577,1.473c-0.068,0.115-0.139,0.152-0.247,0.082c-0.1-0.064-0.212-0.183-0.264-0.258
		c-0.075-0.113-0.052-0.24-0.017-0.376c0.088-0.32,0.407-1.128,0.268-1.176c-0.161-0.051-0.906,0.777-1.134,1.379
		c-0.16,0.421-0.004,0.545,0.183,0.677c0.186,0.131,0.59,0.309,0.803,0.463c0.254,0.181,0.439,0.442,0.233,0.845
		c-0.266,0.523-0.665,0.703-0.938,0.763c-0.35,0.076-0.863,0.051-1.333-0.227c-0.213-0.126-0.32-0.289-0.357-0.525
		C26.743,5.189,26.827,5.143,26.937,5.19z"/>
</g>
</svg>
