<?xml version="1.0" encoding="utf-8"?>
<!-- Generator: Adobe Illustrator 16.0.0, SVG Export Plug-In . SVG Version: 6.00 Build 0)  -->
<!DOCTYPE svg PUBLIC "-//W3C//DTD SVG 1.1//EN" "http://www.w3.org/Graphics/SVG/1.1/DTD/svg11.dtd">
<svg version="1.1" id="Layer_1" xmlns="http://www.w3.org/2000/svg" xmlns:xlink="http://www.w3.org/1999/xlink" x="0px" y="0px"
	 width="17.307px" height="16.607px" viewBox="0 0 17.307 16.607" enable-background="new 0 0 17.307 16.607" xml:space="preserve">
<g>
	<path fill="#66CCFF" d="M6.333,1.048c0.05-0.425,0.199-0.75,0.7-0.674c0.524,0.074,1.649,0.5,2.023,0.75
		c0.375,0.249,0.5,0.749,0.45,1.349c-0.074,0.85-0.149,1.774-0.199,2.699c2.398-1.85,4.922-3.599,7.221-4.998
		c0.35-0.225,0.7-0.299,0.75,0.2c0.125,1.049-0.125,1.673-1.124,2.548c-1.4,1.225-4.373,3.574-6.872,5.722
		c0.075,2.699,0.399,5.222,1.074,6.647c0.226,0.5,0.175,0.724-0.4,0.799c-1.324,0.149-2.248-0.075-2.849-1.324
		c-0.35-0.726-0.625-1.949-0.824-3.423c-1.774,1.649-3.423,3.298-4.823,4.897c-0.324,0.35-0.575,0.575-0.899,0.076
		c-0.475-0.7-1.024-1.999,0.1-3.299c1.374-1.574,3.248-3.374,5.372-5.172C5.958,5.596,6.033,3.147,6.333,1.048z"/>
</g>
</svg>
