<?xml version="1.0" encoding="utf-8"?>
<!-- Generator: Adobe Illustrator 16.0.0, SVG Export Plug-In . SVG Version: 6.00 Build 0)  -->
<!DOCTYPE svg PUBLIC "-//W3C//DTD SVG 1.1//EN" "http://www.w3.org/Graphics/SVG/1.1/DTD/svg11.dtd">
<svg version="1.1" id="Layer_1" xmlns="http://www.w3.org/2000/svg" xmlns:xlink="http://www.w3.org/1999/xlink" x="0px" y="0px"
	 width="185.333px" height="100px" viewBox="0 0 185.333 100" enable-background="new 0 0 185.333 100" xml:space="preserve">
<g>
	<path d="M4.477,46.301c0.993-2.523,2.471-4.842,4.429-6.957c1.958-2.113,4.35-3.864,7.18-5.253
		c2.828-1.387,6.106-2.082,9.836-2.082c2.361,0,4.506,0.253,6.433,0.757c1.926,0.505,3.589,1.215,4.988,2.129
		c1.399,0.916,2.485,2.021,3.263,3.313c0.777,1.294,1.166,2.73,1.166,4.307c0,2.082-0.528,3.549-1.584,4.401
		c-1.058,0.851-2.55,1.277-4.476,1.277c-1.431,0-2.751-0.268-3.963-0.805c-1.211-0.535-1.818-1.656-1.818-3.36
		c0-0.25,0.077-0.693,0.233-1.324c0.155-0.63,0.311-1.292,0.467-1.988c0.154-0.693,0.31-1.356,0.466-1.988
		c0.155-0.629,0.233-1.072,0.233-1.325c0-1.261-0.545-2.255-1.631-2.981c-1.089-0.725-2.44-1.088-4.057-1.088
		c-2.237,0-4.009,0.537-5.314,1.609c-1.305,1.073-2.316,2.508-3.03,4.306c-0.715,1.798-1.182,3.881-1.398,6.247
		c-0.219,2.366-0.327,4.876-0.327,7.524c0,2.46,0.093,4.921,0.28,7.383c0.186,2.459,0.683,4.7,1.492,6.72
		c0.807,2.02,1.989,3.661,3.543,4.922c1.553,1.263,3.667,1.894,6.34,1.894c2.547,0,4.692-0.458,6.433-1.373
		c1.74-0.913,3.138-1.988,4.196-3.218c1.056-1.229,1.849-2.461,2.376-3.691c0.528-1.229,0.854-2.129,0.98-2.698l1.305,0.474
		c-0.312,1.136-0.792,2.384-1.445,3.739c-0.652,1.357-1.601,2.618-2.843,3.786c-1.244,1.168-2.844,2.162-4.802,2.981
		c-1.958,0.819-4.428,1.229-7.413,1.229c-0.809,0-1.943-0.077-3.402-0.234c-1.462-0.16-3.046-0.508-4.756-1.042
		c-1.709-0.535-3.435-1.277-5.174-2.224c-1.741-0.946-3.342-2.225-4.802-3.834c-1.46-1.608-2.643-3.58-3.542-5.915
		c-0.902-2.334-1.352-5.11-1.352-8.328C2.985,51.255,3.481,48.826,4.477,46.301z"/>
	<path d="M55.849,2.953v94.552h-1.864V2.953H55.849z"/>
	<path d="M81.115,54.44c0,2.271,0.093,4.561,0.279,6.863c0.187,2.304,0.684,4.386,1.493,6.245c0.807,1.862,1.988,3.393,3.542,4.592
		c1.554,1.198,3.73,1.798,6.527,1.798c2.486,0,4.583-0.474,6.294-1.421c1.709-0.946,3.107-2.035,4.194-3.266
		c1.088-1.229,1.896-2.444,2.426-3.645c0.526-1.197,0.822-2.08,0.886-2.649l1.305,0.474c-0.312,1.199-0.839,2.478-1.585,3.835
		c-0.746,1.355-1.772,2.618-3.077,3.783c-1.305,1.17-2.922,2.147-4.848,2.936c-1.928,0.787-4.258,1.182-6.993,1.182
		c-3.232,0-6.247-0.489-9.043-1.466c-2.797-0.978-5.238-2.396-7.319-4.259c-2.083-1.859-3.715-4.131-4.896-6.814
		c-1.181-2.683-1.771-5.726-1.771-9.134c0-2.713,0.559-5.362,1.677-7.95c1.12-2.587,2.658-4.875,4.616-6.862
		c1.957-1.988,4.256-3.597,6.899-4.828c2.641-1.23,5.485-1.845,8.532-1.845c2.175,0,4.35,0.347,6.526,1.04
		c2.175,0.695,4.133,1.767,5.873,3.218c1.74,1.453,3.171,3.329,4.29,5.632c1.118,2.303,1.678,5.063,1.678,8.28H81.115V54.44z
		 M96.032,42.515c0-0.694-0.032-1.546-0.093-2.556c-0.063-1.008-0.28-2.019-0.653-3.029c-0.373-1.008-0.979-1.861-1.818-2.555
		c-0.839-0.694-2.005-1.041-3.496-1.041c-2.114,0-3.746,0.505-4.895,1.514c-1.151,1.01-2.005,2.288-2.564,3.833
		c-0.56,1.546-0.918,3.218-1.072,5.016c-0.156,1.798-0.266,3.518-0.326,5.158h14.917V42.515z"/>
	<path d="M123.164,2.953v94.552h-1.865V2.953H123.164z"/>
	<path d="M176.075,74.79c-1.648,0.251-3.187,0.377-4.616,0.377c-3.17,0-5.517-0.566-7.038-1.702
		c-1.525-1.136-2.473-2.711-2.845-4.731h-0.187c-0.995,2.525-2.363,4.228-4.102,5.109c-1.74,0.884-4.26,1.324-7.554,1.324
		c-1.491,0-3.015-0.157-4.567-0.473c-1.556-0.317-2.984-0.818-4.289-1.512c-1.306-0.696-2.363-1.659-3.171-2.889
		c-0.809-1.229-1.212-2.729-1.212-4.495c0-1.83,0.355-3.361,1.071-4.591c0.714-1.23,1.646-2.271,2.799-3.122
		c1.148-0.854,2.453-1.547,3.917-2.084c1.459-0.535,2.966-1.056,4.521-1.562c2.548-0.757,4.614-1.402,6.201-1.94
		c1.584-0.535,2.812-1.104,3.682-1.702c0.87-0.601,1.475-1.278,1.819-2.037c0.34-0.756,0.511-1.733,0.511-2.933v-5.773
		c0-1.704-0.403-3.25-1.212-4.638c-0.808-1.387-2.331-2.082-4.568-2.082c-1.429,0-2.674,0.331-3.729,0.993
		c-1.058,0.662-1.584,1.878-1.584,3.644c0,0.189,0.029,0.521,0.094,0.994c0.061,0.473,0.124,0.994,0.185,1.562
		c0.062,0.567,0.123,1.104,0.187,1.609c0.062,0.505,0.095,0.851,0.095,1.04c0,0.947-0.22,1.689-0.653,2.225
		c-0.435,0.537-0.948,0.932-1.537,1.183c-0.594,0.254-1.213,0.395-1.865,0.427c-0.653,0.032-1.197,0.046-1.633,0.046
		c-0.622,0-1.259-0.046-1.911-0.141c-0.653-0.095-1.227-0.315-1.726-0.663c-0.497-0.346-0.917-0.835-1.258-1.467
		c-0.343-0.629-0.512-1.481-0.512-2.555c0-1.64,0.449-3.107,1.351-4.402c0.901-1.292,2.099-2.365,3.59-3.217
		c1.491-0.853,3.185-1.499,5.081-1.94c1.896-0.441,3.869-0.662,5.921-0.662c2.362,0,4.582,0.189,6.667,0.567
		c2.083,0.378,3.884,1.074,5.407,2.082c1.522,1.01,2.734,2.383,3.637,4.117c0.899,1.736,1.352,3.928,1.352,6.578v23.472
		c0,1.199,0.171,2.257,0.514,3.17c0.339,0.917,1.193,1.374,2.563,1.374c0.807,0,1.476-0.158,2.004-0.474
		c0.528-0.314,1.04-0.756,1.538-1.325l0.839,0.852C178.979,73.748,177.72,74.537,176.075,74.79z M160.831,50.465
		c-0.127,0.38-0.358,0.744-0.701,1.088c-0.343,0.348-0.947,0.742-1.818,1.185c-1.181,0.566-2.361,1.121-3.542,1.656
		c-1.182,0.536-2.238,1.215-3.17,2.034c-0.932,0.821-1.695,1.831-2.284,3.029c-0.592,1.198-0.886,2.745-0.886,4.639
		c0,0.756,0.045,1.642,0.14,2.649c0.094,1.01,0.343,1.988,0.746,2.934c0.404,0.946,1.008,1.752,1.817,2.413
		c0.808,0.663,1.926,0.995,3.357,0.995c0.808,0,1.599-0.19,2.377-0.569c0.776-0.377,1.477-0.961,2.098-1.751
		c0.621-0.787,1.12-1.828,1.491-3.122c0.375-1.295,0.56-2.854,0.56-4.687V50.465H160.831z"/>
</g>
</svg>
