<?xml version="1.0" encoding="utf-8"?>
<!-- Generator: Adobe Illustrator 16.0.0, SVG Export Plug-In . SVG Version: 6.00 Build 0)  -->
<!DOCTYPE svg PUBLIC "-//W3C//DTD SVG 1.1//EN" "http://www.w3.org/Graphics/SVG/1.1/DTD/svg11.dtd">
<svg version="1.1" id="Layer_1" xmlns="http://www.w3.org/2000/svg" xmlns:xlink="http://www.w3.org/1999/xlink" x="0px" y="0px"
	 width="100px" height="100px" viewBox="0 0 100 100" enable-background="new 0 0 100 100" xml:space="preserve">
<g>
	<path fill="#6CBDFF" d="M88.68,22.516c-0.278-0.883-0.445-1.405-0.644-2.261c-0.309-0.679-0.865-1.368-1.394-2.165
		c-0.553-0.776-1.122-1.624-1.707-2.398c-1.235-1.479-2.337-2.86-2.613-3.591c0.111-0.056,1.127,0.526,2.189,1.22
		c1.068,0.686,2.171,1.492,2.368,1.858c2.635,3.191,3.972,5.881,5.136,8.662c1.118,2.813,2.149,5.706,3.336,9.842
		c0.072,0.377,0.464,1.136,0.987,2.103c0.532,0.963,0.996,2.2,1.498,3.415c0,0-0.082-0.772-0.179-1.679
		c1.536,3.371,1.818,9.045,2.137,13.459c0.157-0.947,0.137-0.948,0.279-1.516c-0.095,0.45-0.144,0.959-0.223,1.517
		c-0.103,0.558-0.192,1.164-0.273,1.807c-0.08,0.645-0.15,1.325-0.214,2.032c-0.029,0.354-0.06,0.715-0.089,1.079
		c-0.061,0.363-0.121,0.73-0.183,1.103c-0.116,0.743-0.231,1.501-0.35,2.265c-0.122,0.76-0.191,1.535-0.4,2.273
		c-0.366,1.486-0.684,2.955-1.062,4.272c-0.461,0.995-0.837,1.672-1.215,2.35c-0.198,0.593-0.395,1.183-0.592,1.771
		c-0.238,0.572-0.511,1.13-0.771,1.694c-0.266,0.562-0.533,1.127-0.803,1.696c-0.268,0.57-0.535,1.146-0.883,1.687
		c-0.654,1.104-1.319,2.233-1.994,3.425c-0.771,1.125-1.562,2.302-2.367,3.573c-1.505,2.009-3.58,4.285-6.083,6.378
		c-0.308,0.268-0.607,0.548-0.926,0.81c-0.333,0.245-0.669,0.491-1.004,0.738c-0.671,0.495-1.348,0.994-2.026,1.496
		c-0.659,0.528-1.396,0.944-2.106,1.394s-1.419,0.899-2.121,1.344c-5.019,2.767-10.866,4.503-16.64,5.252
		c-5.787,0.744-11.469,0.7-16.703,0.311c-0.884,0.006-2.099-0.34-3.455-0.71c-0.673-0.206-1.385-0.409-2.075-0.702
		c-0.681-0.321-1.359-0.672-2.001-1.041c-0.818-0.12-1.737-0.257-2.681-0.53c-0.931-0.308-1.921-0.674-2.953-1.088
		c-0.511-0.219-1.056-0.404-1.565-0.681c-0.509-0.281-1.027-0.567-1.552-0.857c-0.522-0.303-1.052-0.608-1.587-0.917l-0.803-0.478
		l-0.76-0.555c-4.222-2.804-7.861-6.852-10.575-10.466c-0.49-0.671-0.91-1.311-1.269-1.909c-0.367-0.594-0.657-1.157-0.847-1.711
		C8.509,77,8.276,76.112,8.125,75.441c-0.296-0.445-0.638-0.87-0.899-1.344c-0.266-0.474-0.532-0.947-0.799-1.424
		C5.909,71.71,5.32,70.765,4.859,69.75c-0.869-2.048-1.846-4.112-2.423-6.329l-0.494-1.647l-0.243-0.83l-0.164-0.847l-0.625-3.407
		c-0.121-0.568-0.165-1.145-0.201-1.721l-0.121-1.73c-0.056-1.153-0.2-2.307-0.101-3.458C0.479,43.896,1.606,37.98,3.832,32.353
		c2.225-5.623,5.597-10.973,10.156-15.539c0.308-0.319,0.672-0.725,1.062-1.176c0.388-0.453,0.873-0.882,1.316-1.354
		c0.909-0.919,1.776-1.894,2.387-2.538c0.699-0.374,1.389-0.742,2.085-1.115c5.91-4.506,12.221-7.931,18.696-9.07
		c0.274-0.055,0.541-0.107,0.802-0.158c0.264-0.024,0.521-0.047,0.771-0.07c0.497-0.035,0.967-0.067,1.413-0.098
		c0.886-0.048,1.662-0.059,2.343-0.042c1.366,0.072,2.362,0.375,3.098,0.639c1.473,0.568,1.943,1.311,2.429,1.993
		c-4.467,0.607-8.703,1.976-13.109,3.941c-4.386,2.069-8.956,4.555-14.321,8.111c-0.793,0.422-1.523,1.115-2.325,1.832
		c-0.787,0.733-1.65,1.495-2.363,2.442c-0.731,0.927-1.542,1.822-2.207,2.813c-0.658,0.993-1.309,1.976-1.928,2.911
		c-0.465,0.828-0.92,1.682-1.44,2.499l-0.776,1.229c-0.25,0.415-0.446,0.856-0.666,1.281c-0.427,0.856-0.833,1.708-1.168,2.55
		c-0.291,0.861-0.445,1.741-0.522,2.579c-0.321,0.503-0.701,1.104-1.062,1.806c-0.311,0.719-0.64,1.528-0.979,2.412
		c-0.167,0.446-0.34,0.906-0.517,1.378c-0.168,0.478-0.261,0.987-0.395,1.502c-0.243,1.034-0.511,2.121-0.724,3.248
		c-0.697,4.536-0.422,9.676,0.631,13.777c0.056,0.708-0.25-0.041-0.072,1.186c1.867,5.715,4.64,11.429,8.596,16.548
		c3.939,5.091,9.046,9.643,15.099,12.521c1.552,0.656,3.102,1.481,4.836,2.029c0.856,0.296,1.707,0.66,2.602,0.928
		c0.905,0.237,1.822,0.479,2.752,0.722c0.467,0.111,0.928,0.27,1.408,0.344c0.481,0.072,0.965,0.145,1.451,0.218
		c0.974,0.133,1.953,0.314,2.951,0.398c1.001,0.023,2.011,0.048,3.03,0.072c0.508-0.006,1.018,0.046,1.528-0.016
		c0.509-0.056,1.019-0.11,1.533-0.164c0.382-0.077,1.447-0.055,2.702-0.056c1.241-0.122,2.675-0.268,3.767-0.483
		c0.755-0.188,1.458-0.572,2.181-0.847c0.701-0.178,1.414-0.359,2.135-0.543c0.72-0.186,1.406-0.506,2.113-0.755
		c0.703-0.264,1.406-0.528,2.103-0.791c0.682-0.301,1.336-0.65,1.992-0.961c0.655-0.313,1.3-0.621,1.928-0.921
		c0.602-0.349,1.186-0.687,1.75-1.014c0.566-0.32,1.117-0.621,1.646-0.896c0.54-0.261,0.987-0.605,1.453-0.855
		c0.523-0.343,1.037-0.678,1.546-1.011c0.508-0.336,1.012-0.668,1.449-1.074c0.899-0.786,1.778-1.553,2.641-2.307
		c1.56-1.681,3.113-3.255,4.447-4.975c0.261-0.315,0.531-0.643,0.81-0.979c0.139-0.171,0.277-0.346,0.419-0.522
		c0.123-0.189,0.246-0.381,0.372-0.576c0.492-0.789,1.009-1.616,1.542-2.465l0.395-0.648l0.333-0.691
		c0.224-0.464,0.449-0.932,0.675-1.402c0.449-0.942,0.942-1.878,1.264-2.879c0.37-0.98,0.736-1.954,1.096-2.903
		c0.286-0.974,0.565-1.925,0.833-2.834c0.637-1.801,0.896-3.508,1.39-4.869c0.31-0.68,0.296-3.007,0.389-4.517
		c0.158-0.703,0.337-1.412,0.394-2.129c-0.069-1.527-0.667-2.491-0.757-3.984c-0.402-4.867-1.879-10.198-3.779-14.671
		c-0.238-0.561-0.473-1.112-0.702-1.653c-0.112-0.272-0.226-0.541-0.337-0.807c-0.133-0.254-0.264-0.505-0.394-0.753
		c-0.515-0.996-0.989-1.953-1.412-2.857c-0.94-1.743-1.749-3.227-2.157-4.452C87.03,21.431,89.116,23.905,88.68,22.516z"/>
	<path fill="#6CBDFF" d="M53.597,0.136c0.454-0.208-1.196-0.354-2.226-0.364c0.9,0.285,1.432,0.595,3.313,0.9l-2.949-0.225
		c-1.571,0.47,2.895,0.311,1.142,0.442c-1.617-0.144-2.894-0.306-2.112-0.544c0.269,0.155,0.971,0.101,1.943,0.206
		c0.18-0.365-1.409-0.6-2.318-0.882l4.691,0.277L53.597,0.136z"/>
	<path fill="#6CBDFF" d="M63.697,2.495l-0.923-0.297c-0.471,0.116,0.389,0.491,1.235,0.866c-3.895-1.387,0.166-0.684-2.147-1.691
		C61.741,1.532,64.185,2.383,63.697,2.495z"/>
	<path fill="#6CBDFF" d="M58.248,2.351c-0.822-0.372-1.701-0.525-2.409-0.662c-0.709-0.153-1.262-0.162-1.44-0.474
		c0,0.001,1.16,0.171,2.288,0.526C57.813,2.056,58.94,2.37,58.94,2.37L58.248,2.351z"/>
	<path fill="#6CBDFF" d="M85.126,16.052c1.05,0.902,0.527,0.452,1.991,2.176c0,0-0.541-0.61-1.082-1.221
		c-0.271-0.305-0.541-0.61-0.745-0.839c-0.199-0.233-0.348-0.372-0.348-0.372C84.947,15.792,85.125,16.052,85.126,16.052z"/>
	<path fill="#6CBDFF" d="M91.635,76.338c0.591-0.701,1.163-1.324,1.76-2.098c0.533-0.807,1.104-1.757,1.767-3.064
		c-0.643,1.337-1.348,2.568-2.035,3.455C92.408,75.503,91.833,76.104,91.635,76.338z"/>
	<path fill="#6CBDFF" d="M69.883,93.523c-0.013-0.2-0.848,0.145,0.258-0.484c0.561-0.161,0.036,0.604,1.69-0.492L69.883,93.523z"/>
	<path fill="#6CBDFF" d="M67.451,93.558l-1.253,0.102C66.2,93.716,66.685,93.705,67.451,93.558z"/>
	<path fill="#6CBDFF" d="M95.997,29.662l-0.007,0.224c0.08,0.117,0.179,0.262,0.268,0.392C96.18,30.09,96.102,29.907,95.997,29.662z
		"/>
	<path fill="#6CBDFF" d="M97.403,34.006c0,0-0.178-0.78-0.356-1.561c-0.09-0.393-0.181-0.785-0.248-1.079
		c-0.062-0.298-0.133-0.485-0.133-0.485c-0.158-0.215-0.275-0.403-0.408-0.604c0.421,0.97,0.403,1.35,0.473,1.747
		C96.795,32.423,96.907,32.854,97.403,34.006z"/>
	<path fill="#6CBDFF" d="M95.975,30.274l0.016-0.389c-0.735-1.176-1.071-2.099-1.464-3.175c-0.477-1.025-1.024-2.199-2.118-3.838
		c0.599,1.325,1.26,2.629,1.924,3.855C94.899,28.006,95.456,29.217,95.975,30.274z"/>
	<path fill="#6CBDFF" d="M94.255,27.582c0,0-0.168-0.22-0.336-0.439c-0.174-0.215-0.369-0.417-0.369-0.417
		c-0.448-0.855-0.247-0.88-0.146-0.889l-1.11-1.7c-0.365-0.253,0.237,0.969,1.019,2.425c0.425,0.71,0.729,1.57,1.069,2.291
		c0.321,0.729,0.601,1.361,0.765,1.731L94.255,27.582z"/>
	<path fill="#6CBDFF" d="M80.258,15.059l0.062,0.05c-0.022-0.02-0.04-0.036-0.065-0.058C80.256,15.053,80.258,15.058,80.258,15.059z
		"/>
	<path fill="#6CBDFF" d="M83.529,19.512l0.646-0.251c-0.843-0.897-1.259-1.506-1.78-2.071c-0.497-0.583-1.03-1.192-2.076-2.082
		l-0.062-0.05c0.148,0.58,0.73,1.248,1.408,1.985c0.338,0.368,0.701,0.753,1.044,1.15C83.021,18.622,83.305,19.068,83.529,19.512z"
		/>
	<path fill="#6CBDFF" d="M97.85,37.731c-0.163-0.638-0.296-1.242-0.461-1.784c-0.192-0.535-0.376-1.021-0.551-1.449
		c-0.352-0.857-0.671-1.482-0.979-1.797c0,0,0.369,1.151,0.74,2.303c0.409,1.137,0.628,2.329,0.628,2.329
		C97.05,35.473,97.521,37.37,97.85,37.731z"/>
	<path fill="#6CBDFF" d="M97.548,41.923c0,0-0.023-0.14-0.058-0.349c-0.038-0.208-0.069-0.49-0.152-0.761
		c-0.146-0.546-0.291-1.093-0.291-1.093l0.039,1.006C97.199,40.794,97.39,41.164,97.548,41.923z"/>
	<path fill="#6CBDFF" d="M97.086,40.727c-0.134-0.069-0.097,0.253-0.02,1.092c0,0,0.015-0.274,0.029-0.549
		C97.107,40.996,97.086,40.727,97.086,40.727z"/>
	<path fill="#6CBDFF" d="M95.485,36.531c-0.04,1.472,0.407,1.233,0.914,3.668C96.893,40.286,95.812,37.738,95.485,36.531z"/>
	<polygon fill="#6CBDFF" points="97.218,46.692 96.927,47.519 97.397,47.684 	"/>
	<path fill="#6CBDFF" d="M97.176,65.554c0.124-1.253-0.074-0.93-0.329-0.283c-0.293,0.636-0.724,1.572-0.867,1.642L97.176,65.554z"
		/>
	<path fill="#6CBDFF" d="M96.309,49.434l0.388-0.769l-0.248-0.388c-0.025-0.619-0.11-1.561,0.052-2.119
		C95.972,45.694,96.353,48.238,96.309,49.434z"/>
	<path fill="#6CBDFF" d="M96.714,58.958c0,0-0.163,0.576-0.327,1.154c-0.068,0.29-0.201,0.566-0.278,0.777
		c-0.081,0.21-0.137,0.351-0.137,0.351"/>
	<path fill="#6CBDFF" d="M94.301,44.132c-0.191-0.031-0.279,3.301-0.669-0.432c0.155,1.442,0.495,3.475-0.062,2.216
		c0.181,2.318,0.494,0.128,0.807,1.667C94.098,46.315,94.365,45.292,94.301,44.132z"/>
	<path fill="#6CBDFF" d="M94.379,49.904c-0.012,0.285-0.023,0.588-0.036,0.89c-0.036,0.304-0.071,0.607-0.105,0.896
		c-0.059,0.575-0.078,1.092-0.005,1.426C94.282,51.948,94.795,50.912,94.379,49.904z"/>
	<path fill="#6CBDFF" d="M93.343,50.953c0,0,0.037-0.099,0.06-0.247c0.028-0.149,0.067-0.347,0.104-0.546
		c0.075-0.4,0.152-0.8,0.152-0.8l-0.423,0.986C93.236,50.345,93.363,50.952,93.343,50.953z"/>
	<line fill="#6CBDFF" x1="90.286" y1="74.005" x2="90.84" y2="74.257"/>
	<path fill="#6CBDFF" d="M92.761,57.536c0,0,0.139-1.002,0.277-2.003c0.076-0.501,0.052-1.011,0.077-1.389
		c0.015-0.38,0.023-0.633,0.023-0.633s-0.114,0.901-0.229,1.802c-0.203,0.886-0.406,1.771-0.406,1.771
		c-0.062,2.217,0.254,1.206,0.651-0.342C93.023,57.163,92.892,57.481,92.761,57.536z"/>
	<path fill="#6CBDFF" d="M93.987,53.304l-0.11-1.243c-0.111-0.048-0.188,1.798-0.386,3.369
		C93.673,54.385,93.819,53.433,93.987,53.304z"/>
	<path fill="#6CBDFF" d="M93.491,55.43c-0.112,0.442-0.229,0.892-0.336,1.313C93.271,56.372,93.384,55.927,93.491,55.43z"/>
	<path fill="#6CBDFF" d="M84.233,82.694c0,0,0.684-0.728,1.367-1.455c0.345-0.362,0.689-0.724,0.904-1.031
		c0.23-0.297,0.383-0.494,0.383-0.494c-0.252,0.275-0.486,0.543-0.709,0.807c-0.241,0.249-0.473,0.488-0.7,0.722
		C85.034,81.72,84.63,82.195,84.233,82.694z"/>
	<path fill="#6CBDFF" d="M91.703,60.323l-0.146,0.548l0.407,0.275C92.177,59.991,91.785,60.377,91.703,60.323z"/>
	<path fill="#6CBDFF" d="M89.552,64.616c-0.617,0.842-0.991,2.89-1.396,3.647c0.919-0.977,1.286-2.362,1.973-3.858
		C89.462,65.911,89.703,64.739,89.552,64.616z"/>
	<path fill="#6CBDFF" d="M87.189,68.757c0,0,0.361-0.733,0.723-1.467c0.199-0.359,0.325-0.751,0.434-1.038
		c0.106-0.287,0.178-0.479,0.178-0.479c-0.355,0.199-0.506,0.643-0.678,1.182C87.647,67.482,87.472,68.126,87.189,68.757z"/>
	<path fill="#6CBDFF" d="M84.787,73.451c-0.115,0.276,0.121,0.162-0.112,0.714c0.41-0.308,0.926-1.333,1.395-1.999L84.787,73.451z"
		/>
	<path fill="#6CBDFF" d="M95.924,45.988c0.078,1.109,0.148,2.101,0.216,3.053c0.026-1.502,0.123-3.022-0.07-4.521
		C96.005,45.006,95.934,45.472,95.924,45.988z"/>
	<path fill="#6CBDFF" d="M29.292,4.321c-2.177,1.427-5.274,3.375-8.117,5.677c-0.708,0.577-1.416,1.155-2.112,1.722
		c-0.702,0.558-1.296,1.22-1.919,1.796c-0.61,0.59-1.196,1.157-1.747,1.69c-0.532,0.552-0.979,1.118-1.41,1.608
		C7.991,23.036,3.533,33.235,2.379,43.023l-0.171-0.11c-0.173,0.954-0.354,1.945-0.5,2.969c-0.056,1.033-0.113,2.093-0.172,3.173
		c-0.022,0.542-0.045,1.087-0.067,1.638c0.004,0.55,0.056,1.104,0.085,1.661c0.075,1.113,0.152,2.241,0.229,3.373
		c0.162,1.123,0.375,2.247,0.563,3.369l0.297,1.678c0.15,0.547,0.299,1.094,0.448,1.638c0.307,1.085,0.574,2.17,0.902,3.219
		c0.383,1.032,0.76,2.048,1.129,3.043l0.073-0.529c-0.45-1.35-1.074-3.099-0.385-2.169c0.541,1.8,1.261,4.242,1.406,4.8l0.949,1.155
		c0.171,0.585-0.036,0.747-0.076,1.126c-0.02,0.367,0.028,1.018,1.036,2.386c0.446,0.322,0.876,0.902,1.289,1.589
		c0.207,0.343,0.409,0.713,0.607,1.091c0.209,0.37,0.45,0.723,0.664,1.077c0.875,1.404,1.649,2.619,2.103,2.333
		c0.135,0.747,0.919,1.567,1.727,2.405c0.823,0.83,1.706,1.644,2.332,2.186c0,0-0.121-0.277-0.242-0.555
		c-0.122-0.276-0.232-0.558-0.232-0.558c1.152,1.257,2.215,2.566,3.172,3.693c1.032,1.033,1.937,1.903,2.646,2.358
		c3.528,2.405,8.767,5.171,13.28,6.307c0.812,0.908-4.569-1.682-1.956-0.091c2.16,0.621,4.562,1.051,7.05,1.687
		c1.268,0.208,2.567,0.422,3.892,0.639l0.997,0.17l1.015,0.08c0.68,0.057,1.364,0.113,2.052,0.169
		c5.495,0.395,11.372-0.139,16.413-1.987c-0.307,0.029-1.244,0.219-0.599-0.042c1.073-0.04,2.204-0.539,3.512-1.021
		c0.643-0.272,1.357-0.485,2.057-0.841c0.707-0.339,1.46-0.678,2.271-1c-0.305-0.062-1.48,0.394-2.759,0.938
		c-1.322,0.442-2.768,0.927-3.523,1.18c0.341-0.616,0.557-0.632,1.191-0.718c0.317-0.041,0.738-0.102,1.329-0.263
		c0.293-0.085,0.638-0.175,1.015-0.34c0.37-0.175,0.791-0.393,1.261-0.661c-0.292,0.087-0.878,0.261-0.876,0.156
		c1.878-1.019,2.316-1.073,2.655-1.072c0.169,0.001,0.311,0.015,0.593-0.069c0.141-0.043,0.316-0.111,0.548-0.218
		c0.223-0.125,0.493-0.299,0.838-0.531c0,0-0.425,0.173-0.849,0.345c-0.44,0.135-0.882,0.271-0.882,0.271
		c0.734-0.328,1.124-0.586,1.375-0.759c0.252-0.17,0.36-0.265,0.478-0.372c0.231-0.214,0.496-0.48,1.979-1.51
		c-0.184,0.718,1.551,0.125,2.324-0.454c0.212-0.446,3.118-2.417,2.454-2.525c1.948-1.111,2.999-2.101,3.903-3.136
		c0.859-1.091,1.731-2.083,3.427-3.383c0.388-0.856,0.028-0.576-0.444-0.136c-0.474,0.439-1.153,0.966-1.23,0.792
		c0.688-0.832,1.037-1.352,1.28-1.615c0.243-0.262,0.356-0.282,0.43-0.225c0.148,0.113,0.128,0.544,0.659-0.039
		c0.767-1.172,3.718-5.943,5.001-8.053l-0.262-0.311c0.479-0.805,1.071-1.731,1.555-2.754c0.454-1.041,0.922-2.115,1.361-3.126
		c0.482-1,0.747-1.996,1.058-2.788c0.297-0.796,0.561-1.411,0.775-1.73c-0.158-1.64-0.834,1.272-1.558,3.789
		c-0.38,0.436,0.14-2.213,0.546-3.407c-0.166,0.629-0.447,0.783-0.456,1.542c-0.359,0.09,0.297-1.667,0.383-2.358
		c0.333-1.077,0.373-1.533,0.427-1.602c0.042-0.072,0.025,0.228-0.003,0.612c-0.099,0.757-0.317,1.833,0.019,0.945
		c0.203-0.824,0.33-2.309,0.459-3.348c0.104-1.047,0.096-1.664-0.272-0.83c0.286-1.77,0.377-2.111,0.548-2.232
		c0.164-0.122,0.345-0.023,0.494-0.957c-0.128,0.696-0.165,1.281-0.198,1.799c-0.062,0.518-0.084,0.969-0.105,1.4
		c-0.043,0.862-0.087,1.648-0.463,2.654c0.064,0.762,0.244,0.526,0.529-0.364c0.147-1.517,0.668-3.681,0.703-5.502
		c0.12-1.815,0.162-3.239-0.096-3.185c0,0,0.033-0.094,0.055-0.236c0.025-0.141,0.06-0.33,0.092-0.52
		c0.066-0.38,0.133-0.76,0.133-0.76l-0.431-1.468l0.065-0.628c-0.224,0.731-0.365,1.806-0.506,2.831
		c-0.116,1.024-0.433,1.999-0.669,2.533c-0.123,0.105-0.134-0.312-0.112-0.879c0.034-0.567,0.071-1.284,0.006-1.776l0.386-0.791
		c-0.005-1.278-0.223-1.757-0.439-2.347c-0.11-0.294-0.213-0.618-0.302-1.082c-0.127-0.461-0.24-1.063-0.327-1.925
		c0.427,1.031,0.491,0.063,0.442-1.499c0.035-1.577-0.443-3.661-0.529-4.913c-1.605-2.337-0.591,0.491-2.032-1.442
		c-0.437-1.191-0.988-2.713-1.651-4.25c-0.368-0.753-0.737-1.523-1.08-2.287c-0.355-0.756-0.623-1.539-0.98-2.214
		c0.496,0.771,0.715,1.37,0.929,1.727c0.194,0.367,0.306,0.535,0.358,0.566c0.105,0.064-0.021-0.42-0.157-0.954
		c-0.141-0.533-0.281-1.122-0.242-1.234c0.066-0.127,0.363,0.198,1.075,1.52c-0.23-0.589-0.472-1.112-0.757-1.613
		c-0.312-0.486-0.636-0.97-0.966-1.527c0.136-1.234,1.487,1.333,1.09-0.441l-0.72-0.211c-0.305-0.875-0.468-1.631-0.801-2.552
		c-0.388-0.883-0.937-1.94-1.954-3.449c-0.402-0.248-1.855-1.372-2.813-2.665c-0.031-0.315-0.066-0.547-0.374-1.015
		c-0.286-0.489-0.923-1.136-2.158-2.279c-2.719-1.827-1.708-0.465-0.061,1.48c0.865,0.936,1.717,2.204,2.438,3.246
		c0.714,1.05,1.249,1.92,1.234,2.328c2.643,3.622,3.197,6.016,3.822,8.508c0.233,1.292,0.504,2.608,0.907,4.218
		c0.145,0.829,0.328,1.729,0.571,2.729c0.128,0.5,0.262,1.026,0.404,1.584c0.108,0.571,0.221,1.174,0.341,1.814
		c0.354,0.757,0.519,0.997,0.712,1.417c0.097,0.211,0.199,0.467,0.338,0.859c0.128,0.393,0.222,0.936,0.386,1.703
		c0.558,1.014,0.578-0.162,0.427-1.866c-0.301-1.668-0.698-3.87-0.77-4.89c0.449,0.909,0.769,1.865,0.864,2.761l0.289-1.151
		c0.749,2.503,0.754,3.232,0.603,3.894c-0.117,0.66-0.245,1.225,0.207,3.442l-0.276-0.972c0,0,0.137,0.635,0.272,1.271
		c0.08,0.316,0.118,0.639,0.141,0.88c0.028,0.242,0.047,0.403,0.047,0.403l0.067-0.601c0.113,1.589,0.551,2.063,0.464,4.524
		l-0.453-2.038c0.315,1.37-0.229,1.735-0.195,3.685c-0.175-1.092-0.371-1.414-0.436-2.078c-0.324,2.852-0.482,5.377-1.004,7.791
		c-0.932,8.411-4.926,16.003-10.228,21.908c0.266-0.222,0.567-0.507,0.717-0.649c-0.187,0.308-0.369,0.578-0.556,0.812
		c-0.203,0.219-0.405,0.406-0.602,0.573c-0.395,0.333-0.773,0.579-1.142,0.808l-1.597,1.539l-1.738,1.374
		c-0.585,0.547-1.114,1.102-1.684,1.594c-0.592,0.468-1.178,0.929-1.779,1.403c-0.618,0.455-1.203,1.001-1.935,1.426
		c-0.725,0.434-1.495,0.896-2.34,1.401c-0.288-0.149-0.116-0.368,0.278-0.634c-1.163,0.773-1.854,1.309-0.529,0.842
		c-0.503,0.351-0.975,0.584-1.412,0.765c-0.434,0.19-0.825,0.348-1.2,0.492c-0.751,0.285-1.421,0.547-2.24,0.904
		c0,0,0.227-0.12,0.55-0.335c0.325-0.207,0.759-0.483,1.191-0.76c0.859-0.549,1.718-1.098,1.718-1.098
		c-1.619,0.559-1.304,1.086-3.465,1.898c-1.673,0.695-1.26,0.673-0.449,0.538c0.203-0.035,0.43-0.073,0.654-0.111
		c0.215-0.054,0.429-0.107,0.616-0.152c0.372-0.08,0.633-0.096,0.569,0.05c0,0-1.362,0.604-1.379,0.563
		c0.013,0.045,1.676-0.135,1.676-0.135c-0.382,0.155-0.739,0.3-1.079,0.437c-0.347,0.112-0.684,0.189-0.995,0.269
		c-0.626,0.15-1.179,0.262-1.674,0.346c-0.997,0.151-1.741,0.275-2.459,0.248c0.017,0.067,2.262-0.549,2.262-0.549
		c0.295-0.455-0.618-0.14-1.742,0.288c-1.159,0.311-2.545,0.717-3.093,0.661l0.293-0.121c-3.464,0.861,0.821,0.138-1.518,0.806
		l-4.302,0.101l0.769,0.314c-0.307,0.074-0.648,0.162-1.025,0.204c-0.379,0.025-0.791,0.04-1.226,0.049
		c-0.873,0.017-1.844,0.005-2.863-0.018c-1.017-0.04-2.081-0.244-3.143-0.354c-0.531-0.062-1.062-0.124-1.587-0.184
		c-0.526-0.059-1.036-0.202-1.542-0.285c-0.571-0.117-1.193-0.214-1.854-0.299c-0.659-0.085-1.362-0.132-2.063-0.304
		c-0.709-0.143-1.438-0.289-2.174-0.437c-0.737-0.15-1.489-0.284-2.19-0.562c0.483,0.322,1.574,0.713,1.195,0.747
		c-1.717-0.54-5.367-1.959-3.904-1.878c-0.023,0.07-2.443-0.731-2.443-0.731c-0.821-0.386-1.439-0.773-1.908-1.106l0.531,0.475
		c0,0-0.177-0.075-0.442-0.188c-0.272-0.102-0.616-0.271-0.948-0.464c-0.676-0.368-1.351-0.736-1.351-0.736
		c0.077-0.06-0.776-0.814,0.529-0.054c-0.659-0.553-1.411-1.046-2.231-1.541c-0.772-0.566-1.619-1.126-2.524-1.719
		c-0.933-0.557-1.806-1.292-2.725-2.072c-0.46-0.39-0.927-0.796-1.396-1.224c-0.467-0.429-0.866-0.952-1.299-1.457l1.218,1.03
		c-2.322-2.137-2.105-2.734-4.311-5.323l0.19,0.817c-0.402-0.473-0.857-1.079-1.302-1.714c-0.446-0.635-0.772-1.37-1.093-1.985
		c-0.615-1.249-0.97-2.17-0.668-1.934c-0.941,0.129-0.417-1.354-1.719-2.372l0.042-1.666c-0.816-1.35-1.406-2.802-1.421-1.667
		c-0.245-1.251-0.613-2.317-0.847-3.286c-0.248-0.963-0.564-1.767-0.984-2.401c-0.01-0.006-0.022-0.029-0.035-0.059l-0.03-0.045
		l0.012-0.002c-0.083-0.266-0.3-0.989-0.384-1.53c-0.098-0.538-0.201-0.87-0.291-0.298c-0.863-5.73,0.234-3.11-0.134-8.519
		l-0.548-0.223c0.087-1.051,0.135-2.096,0.155-3.126c0.018-0.515-0.002-1.029,0.028-1.533c0.044-0.502,0.087-1,0.129-1.49
		c0.076-0.981,0.132-1.939,0.181-2.856c0.129-0.904,0.251-1.765,0.365-2.566l0.556-0.286c0.213-1.074,0.074-1.007-0.024-1.086
		c-0.081-0.074-0.221-0.326,0.34-1.953c0.243-0.427,0.526-0.777,0.615-0.656c0.288-0.779,0.565-1.637,0.967-2.505
		c0.437-0.85,0.9-1.753,1.388-2.703c0.45-0.969,1.102-1.883,1.72-2.865c0.625-0.979,1.242-2.013,2.031-2.977
		c0.052,0.086-0.261,0.653-0.417,0.938c0.625-0.864,1.404-2.012,2.202-3.212c0.895-1.125,1.82-2.287,2.601-3.267
		c1.154-0.873,2.474-1.772,3.801-2.792c0.714-0.447,1.448-0.908,2.198-1.378c0.748-0.469,1.475-0.997,2.303-1.395
		c0.802-0.437,1.613-0.88,2.433-1.326c0.798-0.481,1.699-0.785,2.542-1.201l1.28-0.596l0.637-0.303l0.662-0.241
		c0.878-0.333,1.753-0.665,2.621-0.994c0.615-0.41,1.238-0.714,1.833-1.016c0.594-0.308,1.161-0.612,1.697-0.91
		c0.54-0.287,1.04-0.617,1.524-0.853c0.485-0.235,0.936-0.467,1.349-0.694c1.655-0.901,2.714-1.775,2.938-2.441
		c-0.414-0.201-1.116-0.281-2.085-0.362c-0.964-0.053-2.206-0.141-3.645-0.04c-1.424,0.165-3.092,0.325-4.9,0.68
		c-0.895,0.23-1.829,0.471-2.796,0.72c-0.487,0.132-0.982,0.268-1.485,0.404C30.286,3.932,29.796,4.131,29.292,4.321z"/>
</g>
</svg>
