<?xml version="1.0" encoding="utf-8"?>
<!-- Generator: Adobe Illustrator 16.0.0, SVG Export Plug-In . SVG Version: 6.00 Build 0)  -->
<!DOCTYPE svg PUBLIC "-//W3C//DTD SVG 1.1//EN" "http://www.w3.org/Graphics/SVG/1.1/DTD/svg11.dtd">
<svg version="1.1" id="Layer_1" xmlns="http://www.w3.org/2000/svg" xmlns:xlink="http://www.w3.org/1999/xlink" x="0px" y="0px"
	 width="30.625px" height="12.5px" viewBox="0 0 30.625 12.5" enable-background="new 0 0 30.625 12.5" xml:space="preserve">
<rect x="-78.127" y="-47" fill="none" width="36.916" height="5.377"/>
<text transform="matrix(1 0 0 1 -73.0254 -42.5757)" fill="#6CBDFF" font-family="'SignPainter-HouseBrush'" font-size="7">échanger</text>
<rect x="-50.44" y="-41.473" fill="none" width="36.915" height="5.377"/>
<text transform="matrix(1 0 0 1 -43.6123 -37.0488)" fill="#6CBDFF" font-family="'SignPainter-HouseBrush'" font-size="7">curater</text>
<rect x="-48.627" y="-35.383" fill="none" width="36.915" height="5.377"/>
<text transform="matrix(1 0 0 1 -45.7061 -30.9585)" fill="#6CBDFF" font-family="'SignPainter-HouseBrush'" font-size="7">s’informer</text>
<rect x="-59.127" y="-32" fill="none" width="36.915" height="5.377"/>
<text transform="matrix(1 0 0 1 -57.3296 -27.5757)" fill="#6CBDFF" font-family="'SignPainter-HouseBrush'" font-size="7">structurer</text>
<g>
	<path fill="#6CBDFF" d="M-53.577-8.096c-0.106,0.238-0.194,0.458-0.267,0.653c-0.074,0.188-0.13,0.193-0.25,0.104
		c-0.093-0.066-0.145-0.104-0.204-0.178c-0.127-0.123-0.152-0.269-0.062-0.517c0.322-0.894,1.274-3.014,1.911-4.141
		c0.077-0.139,0.143-0.232,0.387-0.163c0.244,0.069,0.299,0.092,0.521,0.188c0.26,0.109,0.23,0.237,0.213,0.42
		c-0.119,1.137-0.191,2.686-0.112,3.679c0.008,0.134-0.037,0.159-0.163,0.143c-0.096-0.015-0.164-0.029-0.314-0.097
		c-0.136-0.063-0.189-0.146-0.214-0.326c-0.013-0.09-0.022-0.203-0.037-0.336C-52.608-8.521-53.083-8.332-53.577-8.096z
		 M-52.193-9.313c-0.016-0.634,0.009-1.378,0.064-1.884c-0.301,0.595-0.706,1.436-1.071,2.232
		C-52.828-9.104-52.508-9.216-52.193-9.313z"/>
	<path fill="#6CBDFF" d="M-50.291-8.335c-0.63-0.229-0.876-0.605-0.823-1.219c0.077-0.963,0.738-2.576,1.495-3.249
		c0.252-0.227,0.479-0.34,0.805-0.254c0.229,0.065,0.46,0.172,0.626,0.28c0.175,0.112,0.214,0.326,0.203,0.537
		c-0.023,0.421-0.198,0.939-0.349,1.265c-0.054,0.112-0.121,0.17-0.236,0.102c-0.089-0.052-0.253-0.146-0.312-0.219
		c-0.079-0.098-0.114-0.262-0.081-0.405c0.049-0.204,0.256-0.901,0.138-0.948c-0.156-0.059-0.673,0.663-1.068,1.68
		c-0.427,1.103-0.384,1.896-0.161,1.999c0.238,0.106,0.846-0.463,1.277-1.216c0.077-0.139,0.159-0.157,0.236-0.066
		c0.096,0.108,0.25,0.29,0.13,0.631c-0.169,0.474-0.545,1.021-0.921,1.139C-49.621-8.187-49.941-8.21-50.291-8.335z"/>
	<path fill="#6CBDFF" d="M-46.619-12.708c-0.387,0.098-0.621,0.049-0.906-0.147c-0.118-0.082-0.101-0.201,0.015-0.261
		c0.604-0.317,1.534-0.626,1.989-0.711c0.337-0.065,0.698,0.013,0.917,0.195c0.149,0.125,0.126,0.216-0.033,0.279
		c-0.211,0.082-0.532,0.188-0.866,0.303c-0.008,0.03-0.021,0.069-0.039,0.116c-0.479,1.1-1.027,2.832-1.234,3.987
		c-0.022,0.127-0.075,0.152-0.193,0.099c-0.103-0.042-0.208-0.098-0.331-0.2c-0.113-0.09-0.163-0.187-0.137-0.365
		c0.138-0.918,0.502-2.245,0.88-3.309C-46.578-12.717-46.599-12.713-46.619-12.708z"/>
	<path fill="#6CBDFF" d="M-43.498-13.838c0.13,0.137,0.153,0.311,0.056,0.554c-0.657,1.662-0.903,3.134-0.633,3.226
		c0.37,0.121,1.353-1.462,1.925-4.374c0.029-0.128,0.104-0.181,0.233-0.116c0.128,0.066,0.248,0.119,0.341,0.22
		c0.094,0.101,0.131,0.208,0.106,0.421c-0.168,1.505-0.673,2.841-1.152,3.64c-0.463,0.774-0.949,0.78-1.28,0.744
		c-0.208-0.034-0.511-0.111-0.764-0.286c-0.303-0.207-0.371-0.586-0.346-1.1c0.032-0.645,0.507-2.253,0.999-3.091
		c0.084-0.14,0.136-0.166,0.272-0.066C-43.646-13.992-43.58-13.92-43.498-13.838z"/>
	<path fill="#6CBDFF" d="M-40.963-10.833c-0.105,0.238-0.194,0.458-0.266,0.653c-0.074,0.188-0.131,0.193-0.25,0.104
		c-0.093-0.065-0.145-0.104-0.204-0.177c-0.127-0.123-0.151-0.269-0.062-0.518c0.322-0.894,1.274-3.014,1.911-4.141
		c0.077-0.139,0.143-0.231,0.387-0.163c0.245,0.069,0.3,0.092,0.521,0.188c0.26,0.108,0.231,0.237,0.213,0.42
		c-0.119,1.137-0.191,2.686-0.111,3.679c0.007,0.134-0.037,0.159-0.163,0.143c-0.096-0.015-0.164-0.029-0.315-0.096
		c-0.136-0.063-0.189-0.146-0.214-0.327c-0.013-0.09-0.023-0.203-0.037-0.335C-39.994-11.259-40.469-11.069-40.963-10.833z
		 M-39.579-12.051c-0.016-0.634,0.009-1.378,0.064-1.884c-0.301,0.596-0.706,1.436-1.071,2.232
		C-40.214-11.841-39.895-11.954-39.579-12.051z"/>
	<path fill="#6CBDFF" d="M-36.924-11.997c0.136-0.037,0.239-0.023,0.344,0.033s0.229,0.166,0.304,0.278
		c0.065,0.101,0.033,0.151-0.072,0.195c-0.334,0.144-1.09,0.459-1.459,0.675c-0.14,0.081-0.193,0.1-0.306,0.045
		c-0.128-0.065-0.212-0.119-0.345-0.205c-0.142-0.091-0.162-0.187-0.136-0.364c0.177-1.164,0.655-3.023,1.108-4.14
		c0.057-0.134,0.136-0.166,0.282-0.09c0.136,0.064,0.287,0.167,0.386,0.26c0.116,0.104,0.133,0.186,0.049,0.391
		c-0.369,0.875-0.719,2.134-0.979,3.215C-37.48-11.819-37.156-11.939-36.924-11.997z"/>
	<path fill="#6CBDFF" d="M-35.891-11.49c-0.128-0.094-0.156-0.188-0.133-0.38c0.137-1.155,0.646-3.036,1.084-4.155
		c0.061-0.149,0.143-0.167,0.288-0.091c0.13,0.072,0.288,0.174,0.378,0.255c0.117,0.11,0.126,0.188,0.05,0.398
		c-0.398,1.068-0.95,2.886-1.133,4.058c-0.016,0.125-0.083,0.147-0.195,0.093C-35.64-11.358-35.771-11.401-35.891-11.49z"/>
	<path fill="#6CBDFF" d="M-33.136-15.635c-0.387,0.098-0.621,0.049-0.906-0.147c-0.118-0.082-0.101-0.201,0.015-0.261
		c0.604-0.317,1.534-0.626,1.989-0.711c0.337-0.065,0.698,0.014,0.917,0.195c0.149,0.125,0.126,0.217-0.033,0.279
		c-0.211,0.082-0.532,0.188-0.866,0.303c-0.008,0.03-0.021,0.069-0.039,0.116c-0.479,1.1-1.027,2.832-1.234,3.987
		c-0.022,0.127-0.075,0.153-0.193,0.1c-0.103-0.042-0.208-0.099-0.331-0.201c-0.113-0.09-0.163-0.187-0.137-0.365
		c0.138-0.918,0.502-2.244,0.88-3.308C-33.095-15.644-33.116-15.64-33.136-15.635z"/>
	<path fill="#6CBDFF" d="M-29.743-15.118c0.144-0.031,0.246-0.025,0.333,0.05c0.078,0.062,0.187,0.167,0.237,0.235
		c0.07,0.093,0.048,0.154-0.045,0.189c-0.344,0.132-0.848,0.32-1.312,0.557c-0.083,0.312-0.162,0.609-0.23,0.888
		c0.374-0.16,0.717-0.263,1.004-0.325c0.151-0.033,0.273-0.031,0.375,0.041c0.101,0.071,0.216,0.168,0.278,0.255
		c0.083,0.119,0.039,0.178-0.075,0.217c-0.464,0.172-1.167,0.439-1.601,0.684c-0.223,0.127-0.279,0.104-0.399,0.044
		c-0.095-0.044-0.224-0.109-0.293-0.166c-0.111-0.083-0.174-0.142-0.14-0.35c0.143-0.927,0.489-2.399,0.835-3.414
		c-0.055-0.088-0.115-0.197-0.15-0.262c-0.062-0.123-0.028-0.194,0.088-0.255c0.569-0.281,1.403-0.534,1.951-0.653
		c0.185-0.04,0.31-0.024,0.436,0.056c0.1,0.064,0.206,0.192,0.288,0.304c0.061,0.115,0.014,0.162-0.113,0.203
		c-0.376,0.118-1.12,0.387-1.596,0.605c-0.129,0.365-0.265,0.795-0.403,1.249C-30.062-15.034-29.874-15.089-29.743-15.118z
		 M-29.572-17.463c-0.165,0.101-0.377,0.11-0.558,0.007c-0.082-0.047-0.08-0.104-0.006-0.164c0.188-0.156,0.552-0.428,0.761-0.552
		c0.241-0.146,0.465-0.037,0.605,0.048c0.099,0.058,0.09,0.116-0.011,0.181C-28.993-17.803-29.395-17.573-29.572-17.463z"/>
	<path fill="#6CBDFF" d="M-28.475-14.053c0.595,0.265,1.128,0.343,1.525,0.256c0.267-0.058,0.349-0.211,0.177-0.375
		c-0.144-0.134-0.822-0.452-1.139-0.691c-0.385-0.289-0.408-0.657-0.279-1.021c0.33-0.925,0.91-1.488,1.327-1.814
		c0.263-0.208,0.518-0.32,0.836-0.21c0.202,0.07,0.474,0.205,0.618,0.338c0.161,0.145,0.184,0.318,0.145,0.535
		c-0.095,0.522-0.339,1.078-0.577,1.473c-0.068,0.115-0.139,0.152-0.247,0.082c-0.1-0.064-0.212-0.183-0.264-0.258
		c-0.075-0.113-0.052-0.24-0.017-0.376c0.088-0.32,0.407-1.128,0.268-1.176c-0.161-0.051-0.906,0.777-1.134,1.379
		c-0.16,0.421-0.004,0.545,0.183,0.677c0.186,0.131,0.59,0.309,0.803,0.463c0.254,0.181,0.439,0.442,0.233,0.845
		c-0.266,0.523-0.665,0.703-0.938,0.763c-0.35,0.076-0.863,0.051-1.333-0.227c-0.213-0.126-0.32-0.289-0.357-0.525
		C-28.669-14.054-28.585-14.1-28.475-14.053z"/>
</g>
<g>
	<path fill="#6CBDFF" d="M8.593,10.239c-0.023,0.12-0.093,0.129-0.201,0.097c-0.14-0.047-0.291-0.142-0.368-0.224
		c-0.059-0.065-0.115-0.153-0.101-0.279c0.101-0.993,0.605-3.044,0.918-4.116C8.899,5.531,9.02,5.525,9.152,5.538
		c0.169,0.018,0.417,0.091,0.641,0.19c0.168,0.076,0.168,0.169,0.175,0.384c0.014,0.557,0.093,1.523,0.19,2.256
		c0.23-0.995,0.655-2.423,0.983-3.182c0.041-0.103,0.108-0.154,0.232-0.053c0.212,0.203,0.285,0.423,0.199,0.766
		c-0.21,0.833-0.639,2.398-0.885,3.698c-0.034,0.166-0.119,0.2-0.283,0.173c-0.18-0.03-0.358-0.089-0.502-0.15
		C9.75,9.555,9.636,9.437,9.586,9.219C9.464,8.722,9.338,7.867,9.302,7.213C9.021,8.177,8.717,9.534,8.593,10.239z"/>
	<path fill="#6CBDFF" d="M13.302,6.642c0.143-0.033,0.245-0.028,0.333,0.045c0.079,0.061,0.188,0.165,0.24,0.232
		c0.071,0.091,0.05,0.153-0.042,0.189c-0.342,0.137-0.843,0.332-1.305,0.575c-0.079,0.312-0.154,0.611-0.218,0.891
		c0.371-0.165,0.713-0.272,1-0.338c0.15-0.035,0.272-0.035,0.375,0.035c0.102,0.07,0.218,0.166,0.281,0.251
		c0.084,0.118,0.041,0.178-0.072,0.218c-0.461,0.178-1.16,0.455-1.591,0.705c-0.221,0.13-0.277,0.107-0.398,0.049
		c-0.096-0.042-0.226-0.106-0.296-0.162c-0.112-0.082-0.176-0.139-0.145-0.347c0.13-0.928,0.457-2.406,0.79-3.424
		c-0.056-0.088-0.117-0.196-0.153-0.26c-0.064-0.122-0.03-0.194,0.085-0.257c0.565-0.288,1.396-0.553,1.941-0.679
		c0.185-0.042,0.31-0.028,0.437,0.05c0.101,0.063,0.208,0.189,0.292,0.299c0.062,0.115,0.016,0.162-0.11,0.205
		c-0.375,0.123-1.115,0.401-1.588,0.626c-0.124,0.366-0.254,0.799-0.386,1.254C12.983,6.729,13.171,6.672,13.302,6.642z"/>
	<path fill="#6CBDFF" d="M17.108,4.023c0.085-0.157,0.182-0.208,0.308-0.129c0.134,0.083,0.22,0.143,0.335,0.267
		c0.105,0.113,0.125,0.166,0.087,0.412c-0.092,0.567-0.203,1.578-0.173,2.361c0.292-1.067,1.034-2.898,1.458-3.708
		c0.049-0.098,0.13-0.153,0.223-0.06c0.199,0.206,0.19,0.481,0.081,0.815c-0.26,0.772-0.845,2.158-1.325,4.001
		c-0.047,0.169-0.134,0.168-0.307,0.136c-0.188-0.036-0.346-0.099-0.5-0.172c-0.145-0.067-0.248-0.23-0.271-0.455
		c-0.062-0.518-0.083-1.296,0-1.869c-0.322,0.815-0.715,2.042-0.917,2.785c-0.055,0.2-0.162,0.232-0.302,0.185
		c-0.201-0.061-0.375-0.129-0.501-0.208C15.121,8.27,15.02,8.178,15,7.594c-0.039-0.976,0.051-2.456,0.185-3.335
		c0.021-0.127,0.08-0.183,0.208-0.127c0.137,0.062,0.261,0.163,0.369,0.26c0.101,0.092,0.12,0.238,0.104,0.415
		c-0.062,0.632-0.146,1.795-0.151,2.458C16.055,6.156,16.609,4.915,17.108,4.023z"/>
	<path fill="#6CBDFF" d="M19.221,6.618c0.599,0.257,1.132,0.327,1.528,0.236c0.266-0.062,0.345-0.216,0.171-0.377
		c-0.145-0.132-0.828-0.441-1.148-0.677c-0.39-0.284-0.417-0.651-0.293-1.018c0.317-0.929,0.89-1.5,1.302-1.832
		c0.26-0.211,0.514-0.327,0.833-0.221c0.203,0.067,0.477,0.198,0.623,0.33c0.162,0.142,0.188,0.316,0.151,0.533
		c-0.087,0.523-0.325,1.082-0.557,1.48c-0.066,0.116-0.137,0.154-0.246,0.085c-0.101-0.063-0.214-0.181-0.267-0.254
		c-0.077-0.112-0.055-0.239-0.022-0.375c0.084-0.321,0.393-1.133,0.252-1.18c-0.163-0.048-0.896,0.79-1.116,1.394
		c-0.153,0.423,0.004,0.545,0.192,0.674c0.188,0.129,0.594,0.302,0.809,0.453c0.256,0.178,0.445,0.436,0.245,0.842
		c-0.259,0.527-0.655,0.711-0.928,0.774c-0.349,0.081-0.863,0.063-1.335-0.208c-0.215-0.123-0.324-0.285-0.364-0.52
		C19.027,6.62,19.11,6.572,19.221,6.618z"/>
</g>
</svg>
