<?xml version="1.0" encoding="utf-8"?>
<!-- Generator: Adobe Illustrator 16.0.0, SVG Export Plug-In . SVG Version: 6.00 Build 0)  -->
<!DOCTYPE svg PUBLIC "-//W3C//DTD SVG 1.1//EN" "http://www.w3.org/Graphics/SVG/1.1/DTD/svg11.dtd">
<svg version="1.1" xmlns="http://www.w3.org/2000/svg" xmlns:xlink="http://www.w3.org/1999/xlink" x="0px" y="0px"
	 width="24.541px" height="25.909px" viewBox="0 0 24.541 25.909" enable-background="new 0 0 24.541 25.909" xml:space="preserve">
<g id="Layer_1" display="none">
	<g display="inline">
		<g>
			<path fill="#FF0000" d="M1.043,9.403c0.879,0.362,1.659,0.453,2.234,0.311C3.664,9.619,3.776,9.391,3.519,9.16
				C3.304,8.971,2.302,8.535,1.829,8.199c-0.573-0.405-0.622-0.94-0.45-1.478C1.822,5.359,2.645,4.514,3.238,4.02
				C3.613,3.707,3.98,3.532,4.449,3.679c0.296,0.095,0.7,0.28,0.915,0.469c0.24,0.204,0.282,0.457,0.234,0.773
				C5.48,5.686,5.147,6.506,4.818,7.092C4.723,7.263,4.622,7.319,4.46,7.222C4.312,7.133,4.145,6.964,4.065,6.857
				C3.952,6.696,3.979,6.51,4.025,6.309c0.115-0.47,0.547-1.661,0.341-1.726c-0.237-0.068-1.289,1.17-1.596,2.057
				C2.556,7.262,2.787,7.436,3.065,7.62c0.277,0.184,0.873,0.426,1.19,0.643c0.378,0.253,0.66,0.626,0.376,1.222
				c-0.366,0.775-0.939,1.053-1.336,1.151c-0.506,0.125-1.257,0.11-1.953-0.275c-0.316-0.174-0.479-0.408-0.543-0.75
				C0.761,9.41,0.88,9.339,1.043,9.403z"/>
			<path fill="#FF0000" d="M6.347,8.84C6.202,9.191,6.083,9.516,5.985,9.803c-0.1,0.277-0.182,0.287-0.36,0.163
				C5.486,9.873,5.41,9.818,5.321,9.715C5.131,9.541,5.089,9.33,5.209,8.963c0.433-1.317,1.732-4.448,2.613-6.119
				c0.107-0.205,0.2-0.343,0.559-0.253c0.359,0.09,0.441,0.123,0.768,0.253C9.532,2.991,9.495,3.18,9.476,3.447
				C9.35,5.109,9.31,7.371,9.466,8.816c0.017,0.196-0.047,0.233-0.23,0.215C9.094,9.014,8.995,8.996,8.772,8.903
				C8.572,8.816,8.491,8.7,8.447,8.437C8.425,8.306,8.406,8.142,8.378,7.949C7.742,8.179,7.057,8.475,6.347,8.84z M8.314,7.007
				c-0.049-0.925-0.044-2.01,0.015-2.75C7.916,5.137,7.36,6.38,6.861,7.555C7.396,7.338,7.858,7.162,8.314,7.007z"/>
			<path fill="#FF0000" d="M14.143,1.199c0.082-0.136,0.187-0.225,0.317-0.078c0.252,0.295,0.32,0.657,0.116,1.149
				c-0.545,1.282-1.504,3.624-2.149,5.867c-0.088,0.285-0.207,0.355-0.415,0.282c-0.3-0.105-0.552-0.19-0.836-0.362
				c-0.285-0.172-0.436-0.229-0.54-1.076c-0.207-1.686-0.169-3.705-0.066-4.951c0.011-0.171,0.07-0.269,0.253-0.21
				c0.218,0.073,0.458,0.234,0.611,0.386c0.153,0.151,0.228,0.323,0.224,0.565c-0.004,1.001-0.016,2.445,0.085,3.704
				C12.33,4.636,13.366,2.528,14.143,1.199z"/>
			<path fill="#FF0000" d="M16.867,3.525c0.208-0.052,0.357-0.046,0.488,0.059c0.116,0.086,0.279,0.235,0.355,0.332
				c0.106,0.132,0.077,0.224-0.058,0.277C17.157,4.4,16.43,4.696,15.762,5.061c-0.107,0.458-0.21,0.894-0.298,1.305
				c0.539-0.249,1.034-0.413,1.451-0.516c0.218-0.054,0.397-0.056,0.548,0.043s0.322,0.236,0.415,0.36
				c0.126,0.168,0.064,0.258-0.099,0.319c-0.671,0.271-1.683,0.689-2.305,1.064c-0.32,0.194-0.401,0.162-0.581,0.08
				c-0.141-0.06-0.331-0.149-0.435-0.229c-0.165-0.118-0.26-0.199-0.219-0.504c0.169-1.357,0.614-3.519,1.076-5.012
				c-0.084-0.127-0.175-0.284-0.229-0.375c-0.096-0.176-0.049-0.282,0.118-0.376c0.818-0.434,2.023-0.837,2.817-1.033
				c0.268-0.066,0.451-0.048,0.636,0.064c0.148,0.09,0.309,0.271,0.433,0.43c0.094,0.167,0.026,0.235-0.157,0.302
				c-0.542,0.187-1.617,0.61-2.301,0.947c-0.173,0.538-0.353,1.171-0.535,1.837C16.405,3.66,16.678,3.572,16.867,3.525z"/>
		</g>
		<g>
			<path fill="#FF0000" d="M6.392,12.081c-0.56,0.159-0.902,0.096-1.328-0.177c-0.175-0.115-0.155-0.288,0.011-0.382
				c0.869-0.488,2.21-0.978,2.87-1.12c0.489-0.11,1.019-0.009,1.345,0.247c0.223,0.177,0.192,0.31-0.036,0.409
				c-0.305,0.128-0.769,0.295-1.25,0.478c-0.01,0.044-0.027,0.102-0.053,0.17C7.3,13.33,6.573,15.877,6.318,17.571
				c-0.028,0.186-0.103,0.226-0.278,0.153c-0.151-0.057-0.307-0.134-0.49-0.279c-0.168-0.127-0.245-0.266-0.214-0.526
				c0.162-1.344,0.638-3.293,1.146-4.86C6.452,12.066,6.421,12.074,6.392,12.081z"/>
			<path fill="#FF0000" d="M12.841,9.298c0.075-0.208,0.201-0.25,0.414-0.155c0.19,0.09,0.443,0.259,0.567,0.376
				c0.178,0.166,0.183,0.271,0.08,0.58c-0.542,1.555-1.292,4.182-1.518,5.869c-0.023,0.205-0.114,0.218-0.278,0.153
				c-0.14-0.06-0.304-0.125-0.496-0.267c-0.193-0.142-0.228-0.238-0.203-0.518c0.036-0.367,0.092-0.781,0.172-1.221
				c-0.454,0.207-1.059,0.524-1.566,0.818c-0.143,0.656-0.251,1.283-0.315,1.835c-0.025,0.196-0.125,0.22-0.277,0.153
				c-0.142-0.06-0.307-0.134-0.505-0.254c-0.21-0.126-0.252-0.254-0.227-0.533c0.161-1.692,0.755-4.312,1.336-5.96
				c0.087-0.243,0.185-0.277,0.412-0.165c0.168,0.084,0.416,0.234,0.562,0.356c0.185,0.154,0.192,0.269,0.09,0.577
				c-0.237,0.743-0.521,1.687-0.763,2.662c0.579-0.258,1.08-0.487,1.476-0.627C12.089,11.662,12.477,10.293,12.841,9.298z"/>
			<path fill="#FF0000" d="M16.158,11.509c0.208-0.051,0.356-0.046,0.488,0.059c0.115,0.087,0.279,0.236,0.355,0.333
				c0.106,0.132,0.077,0.224-0.058,0.277c-0.497,0.207-1.223,0.502-1.891,0.868c-0.108,0.458-0.21,0.894-0.298,1.304
				c0.539-0.249,1.034-0.413,1.451-0.516c0.219-0.054,0.397-0.056,0.547,0.044c0.151,0.1,0.321,0.236,0.416,0.36
				c0.125,0.169,0.063,0.258-0.1,0.32c-0.669,0.27-1.682,0.688-2.304,1.064c-0.32,0.194-0.402,0.162-0.58,0.08
				c-0.142-0.06-0.332-0.149-0.436-0.229c-0.166-0.117-0.259-0.199-0.219-0.504c0.169-1.357,0.614-3.519,1.077-5.012
				c-0.084-0.126-0.176-0.283-0.229-0.374c-0.096-0.177-0.048-0.283,0.117-0.377c0.82-0.434,2.024-0.837,2.817-1.033
				c0.269-0.066,0.451-0.048,0.637,0.064c0.149,0.09,0.309,0.271,0.433,0.43c0.094,0.167,0.026,0.235-0.157,0.302
				c-0.543,0.186-1.617,0.609-2.302,0.948c-0.172,0.537-0.353,1.17-0.535,1.837C15.697,11.644,15.97,11.556,16.158,11.509z"/>
		</g>
		<g>
			<path fill="#FF0000" d="M5.068,19.929c-0.161-0.139-0.146-0.248-0.001-0.389c0.264-0.254,0.639-0.526,1.028-0.696
				c0.627-0.271,1.376-0.435,1.96-0.242c0.903,0.292,1.358,0.727,1.461,1.354c0.3,1.809-1.927,4.38-3.539,5.567
				c-0.269,0.193-0.375,0.271-0.714,0.219c-0.252-0.043-0.602-0.136-0.852-0.253c-0.227-0.112-0.301-0.157-0.246-0.486
				c0.188-1.067,0.762-3.345,1.182-4.838C5.266,20.09,5.149,20.003,5.068,19.929z M5.419,24.63c2.463-1.997,3.233-4.714,2.839-5.121
				c-0.21-0.211-0.979-0.042-1.49,0.4C6.413,20.986,5.81,23.103,5.419,24.63z"/>
			<path fill="#FF0000" d="M10.542,23.459c-0.145,0.352-0.266,0.676-0.362,0.963c-0.1,0.277-0.182,0.287-0.36,0.163
				c-0.138-0.093-0.215-0.147-0.304-0.251c-0.19-0.174-0.232-0.385-0.112-0.751c0.432-1.316,1.731-4.448,2.613-6.118
				c0.107-0.205,0.2-0.343,0.559-0.253c0.359,0.09,0.439,0.123,0.767,0.253c0.384,0.146,0.346,0.335,0.328,0.603
				c-0.125,1.663-0.166,3.924-0.009,5.37c0.017,0.195-0.048,0.232-0.231,0.215c-0.142-0.018-0.24-0.035-0.463-0.127
				c-0.2-0.088-0.282-0.204-0.326-0.468c-0.022-0.13-0.041-0.294-0.068-0.487C11.937,22.798,11.251,23.095,10.542,23.459z
				 M12.51,21.625c-0.05-0.924-0.044-2.009,0.014-2.75c-0.414,0.881-0.97,2.123-1.468,3.298
				C11.592,21.958,12.053,21.781,12.51,21.625z"/>
			<path fill="#FF0000" d="M16.02,17.548c-0.561,0.16-0.903,0.097-1.328-0.177c-0.176-0.114-0.155-0.288,0.011-0.381
				c0.869-0.488,2.211-0.979,2.87-1.12c0.489-0.111,1.018-0.01,1.344,0.246c0.223,0.177,0.193,0.31-0.035,0.409
				c-0.306,0.128-0.77,0.295-1.251,0.477c-0.009,0.045-0.027,0.102-0.052,0.171c-0.651,1.624-1.38,4.171-1.635,5.866
				c-0.027,0.186-0.102,0.225-0.278,0.153c-0.151-0.058-0.306-0.135-0.489-0.279c-0.169-0.127-0.245-0.265-0.215-0.526
				c0.163-1.345,0.639-3.293,1.146-4.86C16.078,17.534,16.048,17.542,16.02,17.548z"/>
			<path fill="#FF0000" d="M20.992,18.161c0.208-0.051,0.357-0.046,0.488,0.058c0.116,0.087,0.28,0.236,0.356,0.333
				c0.106,0.132,0.076,0.223-0.058,0.277c-0.496,0.207-1.223,0.502-1.89,0.868c-0.109,0.458-0.21,0.893-0.298,1.304
				c0.538-0.249,1.034-0.414,1.45-0.516c0.218-0.054,0.396-0.056,0.548,0.043c0.151,0.1,0.321,0.236,0.416,0.36
				c0.125,0.169,0.063,0.258-0.101,0.32c-0.669,0.271-1.682,0.689-2.304,1.064c-0.32,0.195-0.402,0.162-0.58,0.08
				c-0.142-0.06-0.332-0.149-0.436-0.229c-0.165-0.117-0.259-0.199-0.219-0.503c0.169-1.357,0.614-3.52,1.077-5.013
				c-0.084-0.126-0.175-0.283-0.229-0.375c-0.096-0.176-0.049-0.283,0.118-0.376c0.819-0.434,2.023-0.837,2.817-1.033
				c0.268-0.066,0.451-0.049,0.637,0.063c0.148,0.09,0.308,0.271,0.431,0.43c0.095,0.166,0.027,0.235-0.156,0.302
				c-0.544,0.187-1.617,0.609-2.302,0.948c-0.173,0.537-0.353,1.171-0.535,1.836C20.531,18.296,20.804,18.208,20.992,18.161z"/>
		</g>
	</g>
</g>
<g id="Layer_2" display="none">
	<g display="inline">
		<g>
			<path fill="#3399FF" d="M2.175,8.841C1.638,9.055,1.294,9.03,0.847,8.803C0.661,8.708,0.663,8.534,0.818,8.425
				c0.806-0.572,2.082-1.193,2.717-1.401C4.007,6.866,4.54,6.909,4.888,7.128c0.238,0.153,0.223,0.288,0.006,0.409
				c-0.287,0.158-0.729,0.37-1.184,0.6C3.705,8.181,3.694,8.24,3.676,8.31c-0.476,1.671-0.933,4.261-1.01,5.958
				c-0.008,0.187-0.078,0.233-0.259,0.18c-0.154-0.041-0.315-0.102-0.512-0.226c-0.178-0.107-0.269-0.237-0.265-0.497
				c0.022-1.345,0.292-3.318,0.631-4.917C2.231,8.82,2.203,8.831,2.175,8.841z"/>
			<path fill="#3399FF" d="M5.855,12.181c-0.106,0.362-0.192,0.693-0.258,0.988c-0.069,0.283-0.149,0.302-0.337,0.196
				c-0.146-0.076-0.228-0.124-0.326-0.216c-0.206-0.152-0.269-0.355-0.189-0.73c0.292-1.344,1.253-4.568,1.952-6.308
				c0.085-0.214,0.161-0.359,0.524-0.308c0.364,0.053,0.447,0.074,0.784,0.17C8.399,6.081,8.381,6.27,8.392,6.536
				c0.045,1.653,0.238,3.891,0.541,5.301c0.037,0.191-0.022,0.234-0.206,0.235c-0.141-0.002-0.241-0.009-0.47-0.079
				c-0.207-0.065-0.299-0.172-0.369-0.427C7.852,11.44,7.816,11.28,7.77,11.093C7.164,11.386,6.518,11.748,5.855,12.181z
				 M7.609,10.169C7.465,9.262,7.359,8.19,7.342,7.452C7.023,8.364,6.602,9.648,6.231,10.86C6.737,10.592,7.175,10.369,7.609,10.169
				z"/>
			<path fill="#3399FF" d="M12.855,7.891c0.739,0.498,0.443,1.145,0.263,1.509c-0.373,0.761-1.462,1.746-2.715,2.219
				c-0.152,0.055-0.293,0.052-0.424-0.009c-0.142-0.067-0.292-0.122-0.469-0.198c-0.178-0.075-0.259-0.175-0.245-0.438
				C9.337,9.589,9.615,7.549,9.93,6.12C9.764,5.985,9.637,5.903,9.499,5.792C9.32,5.65,9.307,5.558,9.458,5.406
				c0.498-0.502,1.208-0.953,1.869-1.18c0.654-0.225,1.354-0.196,2.025,0.261c0.646,0.446,0.452,1.078,0.295,1.479
				c-0.188,0.466-0.646,1.105-1.258,1.682C12.539,7.703,12.698,7.785,12.855,7.891z M10.374,10.519
				c1.101-0.655,2.132-1.888,1.761-2.175c-0.182-0.14-0.825,0.135-1.54,0.664C10.506,9.514,10.438,10.012,10.374,10.519z
				 M12.635,4.951c-0.148-0.173-0.864,0.205-1.31,0.581c-0.171,0.633-0.318,1.301-0.465,2.001
				C12.011,6.717,12.951,5.322,12.635,4.951z"/>
			<path fill="#3399FF" d="M16.254,8.002c0.186-0.079,0.338-0.079,0.5-0.019c0.162,0.061,0.361,0.193,0.489,0.34
				c0.112,0.133,0.077,0.211-0.067,0.293c-0.452,0.271-1.477,0.867-1.965,1.248c-0.186,0.143-0.258,0.18-0.43,0.123
				c-0.196-0.069-0.327-0.129-0.534-0.228c-0.22-0.104-0.268-0.237-0.266-0.498c0.032-1.702,0.363-4.463,0.8-6.151
				c0.056-0.205,0.165-0.264,0.387-0.184c0.208,0.066,0.444,0.185,0.605,0.3c0.185,0.127,0.226,0.241,0.144,0.552
				c-0.362,1.326-0.625,3.2-0.792,4.801C15.491,8.363,15.932,8.128,16.254,8.002z"/>
			<path fill="#3399FF" d="M19.862,4.351c0.2-0.071,0.348-0.082,0.487,0.008c0.124,0.073,0.3,0.205,0.386,0.292
				c0.118,0.121,0.099,0.212-0.028,0.281c-0.47,0.255-1.157,0.621-1.777,1.05c-0.059,0.463-0.115,0.905-0.161,1.319
				c0.505-0.301,0.979-0.514,1.378-0.658c0.21-0.076,0.387-0.097,0.545-0.013c0.159,0.082,0.342,0.2,0.448,0.313
				c0.142,0.154,0.09,0.248-0.066,0.326c-0.634,0.335-1.59,0.853-2.166,1.287c-0.296,0.226-0.38,0.203-0.564,0.139
				c-0.145-0.045-0.344-0.114-0.454-0.182c-0.176-0.099-0.278-0.171-0.268-0.474c0.028-1.358,0.244-3.538,0.546-5.059
				c-0.094-0.118-0.2-0.262-0.264-0.348c-0.112-0.164-0.077-0.274,0.078-0.383c0.764-0.512,1.912-1.034,2.675-1.311
				c0.257-0.092,0.44-0.093,0.635-0.002c0.156,0.073,0.333,0.236,0.472,0.38c0.11,0.155,0.05,0.231-0.124,0.314
				c-0.517,0.24-1.534,0.769-2.175,1.172c-0.114,0.548-0.228,1.192-0.34,1.87C19.42,4.531,19.681,4.416,19.862,4.351z"/>
		</g>
		<g>
			<path fill="#3399FF" d="M1.742,22.627c-0.015,0.254-0.166,0.231-0.357,0.173c-0.146-0.045-0.263-0.099-0.429-0.233
				c-0.167-0.134-0.279-0.266-0.271-0.539c0.064-1.317,0.361-3.333,0.696-4.768c-0.218-0.094-0.358-0.184-0.507-0.27
				c-0.176-0.098-0.195-0.21-0.053-0.358c0.541-0.562,1.249-0.99,1.907-1.227c0.697-0.251,1.452-0.189,2.019,0.125
				c0.737,0.402,0.607,0.88,0.479,1.302c-0.238,0.777-1.095,2.11-2.173,3.005c0.559,0.413,1.35,0.872,1.841,1.071
				c0.188,0.073,0.208,0.184,0.117,0.292c-0.097,0.123-0.276,0.284-0.437,0.374c-0.242,0.141-0.324,0.149-0.672,0.049
				c-0.556-0.166-1.313-0.562-1.92-0.958C1.88,21.336,1.798,22.002,1.742,22.627z M4.085,16.059
				c-0.137-0.145-0.838,0.216-1.298,0.586c-0.192,0.749-0.387,1.616-0.554,2.527C3.279,18.279,4.395,16.377,4.085,16.059z"/>
			<path fill="#3399FF" d="M5.416,18.706c-0.086-1.253,0.436-3.273,1.205-4.369c0.319-0.461,0.722-0.745,1.332-0.61
				c0.317,0.068,0.599,0.162,0.896,0.334c0.385,0.229,0.634,0.741,0.747,1.414c0.173,1.014,0.083,3.278-0.991,4.636
				c-0.274,0.346-0.688,0.572-1.249,0.569C7.04,20.673,6.682,20.577,6.37,20.43C6.019,20.267,5.5,19.935,5.416,18.706z
				 M7.024,20.001c0.339,0.135,0.921-0.612,1.251-2.445c0.334-1.855,0.141-2.929-0.122-3.062c-0.326-0.161-0.999,1.115-1.307,2.682
				C6.546,18.707,6.735,19.89,7.024,20.001z"/>
			<path fill="#3399FF" d="M11.165,19.295c-0.012,0.177-0.111,0.201-0.272,0.173c-0.21-0.042-0.442-0.153-0.568-0.258
				c-0.095-0.083-0.191-0.2-0.191-0.383c-0.025-1.446,0.347-4.479,0.612-6.074c0.05-0.276,0.224-0.307,0.416-0.311
				c0.247-0.002,0.614,0.059,0.954,0.163c0.256,0.081,0.271,0.214,0.318,0.521c0.115,0.8,0.396,2.175,0.661,3.212
				c0.16-1.471,0.526-3.596,0.866-4.744c0.042-0.155,0.128-0.24,0.325-0.117c0.339,0.255,0.481,0.56,0.417,1.067
				c-0.159,1.233-0.507,3.556-0.638,5.469c-0.019,0.245-0.137,0.307-0.377,0.297c-0.263-0.012-0.531-0.067-0.747-0.129
				c-0.229-0.068-0.414-0.217-0.524-0.523c-0.26-0.693-0.585-1.9-0.751-2.834C11.427,16.257,11.222,18.261,11.165,19.295z"/>
			<path fill="#3399FF" d="M15.473,11.76c-0.173-0.121-0.171-0.229-0.041-0.384c0.232-0.279,0.575-0.585,0.942-0.792
				c0.593-0.333,1.314-0.571,1.912-0.441c0.921,0.196,1.415,0.578,1.581,1.187c0.482,1.756-1.453,4.522-2.922,5.86
				c-0.244,0.217-0.341,0.307-0.682,0.289c-0.255-0.016-0.609-0.072-0.868-0.162c-0.235-0.087-0.313-0.123-0.292-0.455
				c0.077-1.073,0.408-3.381,0.67-4.897C15.685,11.899,15.562,11.824,15.473,11.76z M16.302,16.364
				c2.227-2.226,2.708-4.986,2.276-5.347c-0.228-0.188-0.97,0.059-1.43,0.547C16.909,12.665,16.531,14.817,16.302,16.364z"/>
			<path fill="#3399FF" d="M22.521,11.438c0.2-0.073,0.348-0.082,0.488,0.009c0.124,0.072,0.3,0.203,0.386,0.291
				c0.118,0.12,0.098,0.212-0.029,0.28c-0.468,0.255-1.154,0.621-1.777,1.05c-0.058,0.464-0.116,0.905-0.159,1.319
				c0.504-0.301,0.977-0.514,1.378-0.658c0.21-0.077,0.386-0.097,0.545-0.014c0.159,0.083,0.343,0.2,0.446,0.313
				c0.142,0.155,0.09,0.249-0.066,0.327c-0.633,0.334-1.589,0.853-2.164,1.287c-0.297,0.226-0.381,0.201-0.565,0.14
				c-0.146-0.045-0.342-0.115-0.454-0.183c-0.175-0.097-0.277-0.17-0.268-0.474c0.027-1.357,0.243-3.537,0.547-5.058
				c-0.096-0.117-0.202-0.261-0.266-0.347c-0.112-0.164-0.076-0.274,0.077-0.383c0.765-0.513,1.913-1.035,2.676-1.311
				c0.258-0.092,0.44-0.094,0.635-0.002c0.156,0.073,0.332,0.236,0.471,0.38c0.11,0.155,0.051,0.231-0.124,0.314
				c-0.517,0.24-1.533,0.769-2.175,1.172c-0.114,0.548-0.227,1.192-0.339,1.869C22.079,11.62,22.34,11.504,22.521,11.438z"/>
		</g>
	</g>
</g>
<g id="Layer_4">
	<g>
		<path fill="#3399FF" d="M1.176,14.734c-0.028,0.249-0.172,0.22-0.361,0.153c-0.141-0.05-0.254-0.11-0.412-0.25
			c-0.158-0.14-0.262-0.275-0.24-0.543c0.125-1.293,0.511-3.263,0.907-4.661C0.86,9.331,0.726,9.236,0.583,9.144
			C0.415,9.039,0.401,8.928,0.547,8.789C1.106,8.261,1.823,7.873,2.482,7.67c0.697-0.215,1.438-0.119,1.98,0.216
			c0.708,0.43,0.558,0.895,0.413,1.306C4.605,9.945,3.7,11.217,2.597,12.048c0.531,0.433,1.288,0.921,1.764,1.141
			c0.181,0.08,0.194,0.19,0.1,0.293c-0.101,0.115-0.284,0.265-0.447,0.347c-0.243,0.127-0.325,0.131-0.664,0.016
			c-0.54-0.189-1.266-0.614-1.845-1.032C1.373,13.471,1.26,14.123,1.176,14.734z M3.787,8.376C3.658,8.229,2.952,8.55,2.482,8.894
			c-0.225,0.729-0.456,1.573-0.664,2.463C2.891,10.524,4.077,8.706,3.787,8.376z"/>
		<path fill="#3399FF" d="M4.978,11.042C4.953,9.806,5.56,7.841,6.368,6.797c0.335-0.438,0.747-0.701,1.34-0.539
			C8.016,6.342,8.289,6.446,8.575,6.63c0.368,0.242,0.59,0.759,0.669,1.425c0.123,1.008-0.071,3.232-1.191,4.519
			c-0.286,0.329-0.705,0.531-1.257,0.502c-0.309-0.02-0.658-0.132-0.958-0.291C5.501,12.606,5.007,12.257,4.978,11.042z
			 M6.502,12.393c0.328,0.149,0.936-0.561,1.347-2.35c0.415-1.812,0.274-2.876,0.022-3.019C7.556,6.85,6.835,8.076,6.458,9.604
			C6.093,11.097,6.224,12.269,6.502,12.393z"/>
		<path fill="#3399FF" d="M11.392,5.511c0.201,0.178,0.256,0.423,0.146,0.781c-0.732,2.443-0.904,4.566-0.508,4.664
			c0.541,0.126,1.746-2.243,2.206-6.453c0.026-0.186,0.126-0.269,0.317-0.191c0.191,0.077,0.366,0.138,0.512,0.271
			c0.146,0.133,0.211,0.28,0.201,0.586c-0.056,2.161-0.613,4.121-1.196,5.315c-0.564,1.157-1.255,1.223-1.729,1.212
			c-0.3-0.022-0.741-0.096-1.122-0.313c-0.456-0.257-0.599-0.789-0.626-1.522C9.562,8.94,10.042,6.596,10.64,5.345
			c0.103-0.209,0.173-0.252,0.379-0.127C11.163,5.31,11.265,5.404,11.392,5.511z"/>
		<path fill="#3399FF" d="M15.424,10.408c-0.02,0.173-0.118,0.193-0.276,0.158c-0.204-0.052-0.429-0.171-0.547-0.281
			c-0.089-0.087-0.179-0.207-0.171-0.387c0.042-1.425,0.549-4.394,0.886-5.951c0.062-0.271,0.234-0.292,0.424-0.288
			c0.243,0.008,0.602,0.086,0.931,0.205c0.248,0.091,0.257,0.224,0.288,0.528c0.077,0.792,0.29,2.159,0.502,3.192
			c0.226-1.439,0.685-3.516,1.074-4.629c0.047-0.15,0.138-0.231,0.325-0.1c0.323,0.267,0.448,0.573,0.361,1.071
			c-0.214,1.206-0.665,3.478-0.881,5.354c-0.031,0.24-0.149,0.297-0.385,0.276c-0.259-0.024-0.52-0.091-0.73-0.162
			c-0.223-0.078-0.396-0.233-0.49-0.539c-0.225-0.694-0.491-1.899-0.609-2.825C15.824,7.43,15.529,9.393,15.424,10.408z"/>
		<path fill="#3399FF" d="M20.021,3.188c-0.165-0.127-0.156-0.234-0.023-0.38c0.243-0.263,0.594-0.549,0.965-0.736
			c0.598-0.299,1.32-0.501,1.901-0.345c0.899,0.235,1.367,0.635,1.502,1.242c0.393,1.751-1.64,4.385-3.148,5.634
			c-0.251,0.202-0.351,0.286-0.685,0.253c-0.25-0.028-0.596-0.099-0.847-0.2c-0.228-0.097-0.303-0.137-0.267-0.461
			c0.125-1.053,0.56-3.31,0.887-4.792C20.223,3.334,20.105,3.256,20.021,3.188z M20.625,7.76c2.295-2.087,2.897-4.783,2.489-5.159
			c-0.217-0.195-0.958,0.013-1.434,0.473C21.393,4.145,20.921,6.246,20.625,7.76z"/>
	</g>
	<g>
		<path fill="#3399FF" d="M2.193,16.55c-0.539,0.187-0.876,0.144-1.307-0.099c-0.178-0.102-0.168-0.273-0.011-0.374
			C1.697,15.553,2.981,15,3.618,14.825c0.471-0.134,0.994-0.065,1.327,0.167c0.228,0.16,0.205,0.292-0.012,0.401
			c-0.291,0.142-0.735,0.331-1.194,0.536c-0.008,0.043-0.021,0.101-0.042,0.169c-0.546,1.622-1.117,4.15-1.271,5.819
			c-0.017,0.183-0.087,0.226-0.263,0.165c-0.151-0.048-0.307-0.115-0.494-0.246c-0.171-0.115-0.253-0.246-0.238-0.502
			c0.084-1.323,0.441-3.252,0.85-4.811C2.25,16.532,2.222,16.541,2.193,16.55z"/>
		<path fill="#3399FF" d="M5.667,20.008c-0.122,0.351-0.221,0.674-0.3,0.96c-0.082,0.276-0.162,0.291-0.342,0.179
			c-0.141-0.082-0.219-0.131-0.311-0.229c-0.196-0.159-0.249-0.363-0.151-0.728c0.35-1.31,1.445-4.44,2.214-6.12
			c0.093-0.207,0.175-0.347,0.531-0.279c0.356,0.068,0.438,0.095,0.764,0.204c0.382,0.123,0.356,0.309,0.354,0.571
			c-0.031,1.631,0.054,3.842,0.287,5.245c0.028,0.19-0.034,0.23-0.214,0.223c-0.139-0.009-0.236-0.021-0.459-0.099
			c-0.201-0.074-0.287-0.184-0.344-0.438c-0.029-0.127-0.057-0.285-0.094-0.473C6.992,19.286,6.339,19.613,5.667,20.008z
			 M7.487,18.109c-0.1-0.9-0.154-1.96-0.138-2.687c-0.355,0.883-0.83,2.127-1.251,3.304C6.609,18.484,7.05,18.285,7.487,18.109z"/>
		<path fill="#3399FF" d="M12.761,16.107c0.706,0.526,0.385,1.147,0.19,1.5c-0.403,0.73-1.521,1.65-2.776,2.058
			c-0.153,0.047-0.292,0.038-0.417-0.028c-0.137-0.073-0.281-0.133-0.453-0.216c-0.172-0.083-0.245-0.186-0.221-0.445
			c0.136-1.359,0.504-3.355,0.88-4.747c-0.158-0.14-0.279-0.228-0.409-0.345c-0.171-0.146-0.178-0.238-0.023-0.379
			c0.514-0.472,1.234-0.883,1.896-1.076c0.652-0.191,1.34-0.13,1.98,0.352c0.615,0.47,0.396,1.081,0.222,1.469
			c-0.206,0.45-0.688,1.059-1.317,1.598C12.458,15.908,12.612,15.997,12.761,16.107z M10.197,18.582
			c1.114-0.595,2.187-1.762,1.833-2.061c-0.17-0.146-0.818,0.095-1.546,0.581C10.375,17.596,10.284,18.084,10.197,18.582z
			 M12.682,13.204c-0.138-0.177-0.86,0.161-1.317,0.511c-0.197,0.615-0.374,1.265-0.55,1.947
			C11.985,14.914,12.977,13.583,12.682,13.204z"/>
		<path fill="#3399FF" d="M16.108,16.373c0.188-0.068,0.336-0.062,0.493,0.005c0.156,0.067,0.346,0.207,0.466,0.359
			c0.104,0.135,0.065,0.21-0.079,0.286c-0.458,0.245-1.495,0.784-1.993,1.136c-0.189,0.131-0.263,0.165-0.429,0.101
			c-0.191-0.077-0.316-0.143-0.516-0.25c-0.212-0.112-0.253-0.246-0.238-0.501c0.111-1.676,0.565-4.378,1.074-6.02
			c0.064-0.198,0.173-0.252,0.389-0.162c0.201,0.074,0.429,0.203,0.581,0.323c0.177,0.134,0.212,0.249,0.117,0.55
			c-0.418,1.29-0.764,3.122-1.002,4.691C15.339,16.694,15.787,16.483,16.108,16.373z"/>
		<path fill="#3399FF" d="M19.834,12.946c0.201-0.062,0.346-0.065,0.479,0.03c0.118,0.079,0.286,0.215,0.366,0.306
			c0.111,0.123,0.087,0.214-0.042,0.274c-0.473,0.229-1.167,0.558-1.798,0.951c-0.08,0.454-0.157,0.885-0.22,1.292
			c0.512-0.273,0.988-0.461,1.389-0.584c0.21-0.065,0.384-0.077,0.537,0.012s0.327,0.213,0.426,0.329
			c0.132,0.158,0.077,0.248-0.08,0.317c-0.639,0.302-1.605,0.766-2.192,1.167c-0.302,0.208-0.383,0.181-0.562,0.11
			c-0.141-0.051-0.332-0.128-0.438-0.2c-0.168-0.105-0.265-0.18-0.242-0.48c0.09-1.335,0.405-3.471,0.774-4.955
			c-0.089-0.119-0.187-0.267-0.245-0.353c-0.104-0.167-0.063-0.273,0.094-0.374c0.776-0.469,1.931-0.93,2.695-1.165
			c0.258-0.08,0.438-0.072,0.625,0.027c0.15,0.08,0.317,0.248,0.446,0.396c0.101,0.157,0.039,0.229-0.137,0.304
			c-0.521,0.212-1.546,0.685-2.196,1.053c-0.139,0.534-0.28,1.163-0.421,1.823C19.391,13.103,19.652,13.001,19.834,12.946z"/>
	</g>
</g>
<g id="Layer_3" display="none">
</g>
</svg>
