<?xml version="1.0" encoding="utf-8"?>
<!-- Generator: Adobe Illustrator 16.0.0, SVG Export Plug-In . SVG Version: 6.00 Build 0)  -->
<!DOCTYPE svg PUBLIC "-//W3C//DTD SVG 1.1//EN" "http://www.w3.org/Graphics/SVG/1.1/DTD/svg11.dtd">
<svg version="1.1" id="Layer_2" xmlns="http://www.w3.org/2000/svg" xmlns:xlink="http://www.w3.org/1999/xlink" x="0px" y="0px"
	 width="24.541px" height="25.909px" viewBox="0 0 24.541 25.909" enable-background="new 0 0 24.541 25.909" xml:space="preserve">
<g>
	<g>
		<path fill="#6CBDFF" d="M2.175,8.841C1.638,9.055,1.294,9.03,0.847,8.803C0.661,8.708,0.663,8.534,0.818,8.425
			c0.806-0.572,2.082-1.193,2.717-1.401C4.007,6.866,4.54,6.909,4.888,7.128c0.238,0.153,0.223,0.288,0.006,0.409
			c-0.287,0.158-0.729,0.37-1.184,0.6C3.705,8.181,3.694,8.24,3.676,8.31c-0.476,1.671-0.933,4.261-1.01,5.958
			c-0.008,0.187-0.078,0.233-0.259,0.18c-0.154-0.041-0.315-0.102-0.512-0.226c-0.178-0.107-0.269-0.237-0.265-0.497
			c0.022-1.345,0.292-3.318,0.631-4.917C2.231,8.82,2.203,8.831,2.175,8.841z"/>
		<path fill="#6CBDFF" d="M5.855,12.181c-0.106,0.362-0.192,0.693-0.258,0.988c-0.069,0.283-0.149,0.302-0.337,0.196
			c-0.146-0.076-0.228-0.124-0.326-0.216c-0.206-0.152-0.269-0.355-0.189-0.73c0.292-1.344,1.253-4.568,1.952-6.308
			c0.085-0.214,0.161-0.359,0.524-0.308c0.364,0.053,0.447,0.074,0.784,0.17C8.399,6.081,8.381,6.27,8.392,6.536
			c0.045,1.653,0.238,3.891,0.541,5.301c0.037,0.191-0.022,0.234-0.206,0.235c-0.141-0.002-0.241-0.009-0.47-0.079
			c-0.207-0.065-0.299-0.172-0.369-0.427C7.852,11.44,7.816,11.28,7.77,11.093C7.164,11.386,6.518,11.748,5.855,12.181z
			 M7.609,10.169C7.465,9.262,7.359,8.19,7.342,7.452C7.023,8.364,6.602,9.648,6.231,10.86C6.737,10.592,7.175,10.369,7.609,10.169z
			"/>
		<path fill="#6CBDFF" d="M12.855,7.891c0.739,0.498,0.443,1.145,0.263,1.509c-0.373,0.761-1.462,1.746-2.715,2.219
			c-0.152,0.055-0.293,0.052-0.424-0.009c-0.142-0.067-0.292-0.122-0.469-0.198c-0.178-0.075-0.259-0.175-0.245-0.438
			C9.337,9.589,9.615,7.549,9.93,6.12C9.764,5.985,9.637,5.903,9.499,5.792C9.32,5.65,9.307,5.558,9.458,5.406
			c0.498-0.502,1.208-0.953,1.869-1.18c0.654-0.225,1.354-0.196,2.025,0.261c0.646,0.446,0.452,1.078,0.295,1.479
			c-0.188,0.466-0.646,1.105-1.258,1.682C12.539,7.703,12.698,7.785,12.855,7.891z M10.374,10.519
			c1.101-0.655,2.132-1.888,1.761-2.175c-0.182-0.14-0.825,0.135-1.54,0.664C10.506,9.514,10.438,10.012,10.374,10.519z
			 M12.635,4.951c-0.148-0.173-0.864,0.205-1.31,0.581c-0.171,0.633-0.318,1.301-0.465,2.001
			C12.011,6.717,12.951,5.322,12.635,4.951z"/>
		<path fill="#6CBDFF" d="M16.254,8.002c0.186-0.079,0.338-0.079,0.5-0.019c0.162,0.061,0.361,0.193,0.489,0.34
			c0.112,0.133,0.077,0.211-0.067,0.293c-0.452,0.271-1.477,0.867-1.965,1.248c-0.186,0.143-0.258,0.18-0.43,0.123
			c-0.196-0.069-0.327-0.129-0.534-0.228c-0.22-0.104-0.268-0.237-0.266-0.498c0.032-1.702,0.363-4.463,0.8-6.151
			c0.056-0.205,0.165-0.264,0.387-0.184c0.208,0.066,0.444,0.185,0.605,0.3c0.185,0.127,0.226,0.241,0.144,0.552
			c-0.362,1.326-0.625,3.2-0.792,4.801C15.491,8.363,15.932,8.128,16.254,8.002z"/>
		<path fill="#6CBDFF" d="M19.862,4.351c0.2-0.071,0.348-0.082,0.487,0.008c0.124,0.073,0.3,0.205,0.386,0.292
			c0.118,0.121,0.099,0.212-0.028,0.281c-0.47,0.255-1.157,0.621-1.777,1.05c-0.059,0.463-0.115,0.905-0.161,1.319
			c0.505-0.301,0.979-0.514,1.378-0.658c0.21-0.076,0.387-0.097,0.545-0.013c0.159,0.082,0.342,0.2,0.448,0.313
			c0.142,0.154,0.09,0.248-0.066,0.326c-0.634,0.335-1.59,0.853-2.166,1.287c-0.296,0.226-0.38,0.203-0.564,0.139
			c-0.145-0.045-0.344-0.114-0.454-0.182c-0.176-0.099-0.278-0.171-0.268-0.474c0.028-1.358,0.244-3.538,0.546-5.059
			c-0.094-0.118-0.2-0.262-0.264-0.348c-0.112-0.164-0.077-0.274,0.078-0.383c0.764-0.512,1.912-1.034,2.675-1.311
			c0.257-0.092,0.44-0.093,0.635-0.002c0.156,0.073,0.333,0.236,0.472,0.38c0.11,0.155,0.05,0.231-0.124,0.314
			c-0.517,0.24-1.534,0.769-2.175,1.172c-0.114,0.548-0.228,1.192-0.34,1.87C19.42,4.531,19.681,4.416,19.862,4.351z"/>
	</g>
	<g>
		<path fill="#6CBDFF" d="M1.742,22.627c-0.015,0.254-0.166,0.231-0.357,0.173c-0.146-0.045-0.263-0.099-0.429-0.233
			c-0.167-0.134-0.279-0.266-0.271-0.539c0.064-1.317,0.361-3.333,0.696-4.768c-0.218-0.094-0.358-0.184-0.507-0.27
			c-0.176-0.098-0.195-0.21-0.053-0.358c0.541-0.562,1.249-0.99,1.907-1.227c0.697-0.251,1.452-0.189,2.019,0.125
			c0.737,0.402,0.607,0.88,0.479,1.302c-0.238,0.777-1.095,2.11-2.173,3.005c0.559,0.413,1.35,0.872,1.841,1.071
			c0.188,0.073,0.208,0.184,0.117,0.292c-0.097,0.123-0.276,0.284-0.437,0.374c-0.242,0.141-0.324,0.149-0.672,0.049
			c-0.556-0.166-1.313-0.562-1.92-0.958C1.88,21.336,1.798,22.002,1.742,22.627z M4.085,16.059
			c-0.137-0.145-0.838,0.216-1.298,0.586c-0.192,0.749-0.387,1.616-0.554,2.527C3.279,18.279,4.395,16.377,4.085,16.059z"/>
		<path fill="#6CBDFF" d="M5.416,18.706c-0.086-1.253,0.436-3.273,1.205-4.369c0.319-0.461,0.722-0.745,1.332-0.61
			c0.317,0.068,0.599,0.162,0.896,0.334c0.385,0.229,0.634,0.741,0.747,1.414c0.173,1.014,0.083,3.278-0.991,4.636
			c-0.274,0.346-0.688,0.572-1.249,0.569C7.04,20.673,6.682,20.577,6.37,20.43C6.019,20.267,5.5,19.935,5.416,18.706z M7.024,20.001
			c0.339,0.135,0.921-0.612,1.251-2.445c0.334-1.855,0.141-2.929-0.122-3.062c-0.326-0.161-0.999,1.115-1.307,2.682
			C6.546,18.707,6.735,19.89,7.024,20.001z"/>
		<path fill="#6CBDFF" d="M11.165,19.295c-0.012,0.177-0.111,0.201-0.272,0.173c-0.21-0.042-0.442-0.153-0.568-0.258
			c-0.095-0.083-0.191-0.2-0.191-0.383c-0.025-1.446,0.347-4.479,0.612-6.074c0.05-0.276,0.224-0.307,0.416-0.311
			c0.247-0.002,0.614,0.059,0.954,0.163c0.256,0.081,0.271,0.214,0.318,0.521c0.115,0.8,0.396,2.175,0.661,3.212
			c0.16-1.471,0.526-3.596,0.866-4.744c0.042-0.155,0.128-0.24,0.325-0.117c0.339,0.255,0.481,0.56,0.417,1.067
			c-0.159,1.233-0.507,3.556-0.638,5.469c-0.019,0.245-0.137,0.307-0.377,0.297c-0.263-0.012-0.531-0.067-0.747-0.129
			c-0.229-0.068-0.414-0.217-0.524-0.523c-0.26-0.693-0.585-1.9-0.751-2.834C11.427,16.257,11.222,18.261,11.165,19.295z"/>
		<path fill="#6CBDFF" d="M15.473,11.76c-0.173-0.121-0.171-0.229-0.041-0.384c0.232-0.279,0.575-0.585,0.942-0.792
			c0.593-0.333,1.314-0.571,1.912-0.441c0.921,0.196,1.415,0.578,1.581,1.187c0.482,1.756-1.453,4.522-2.922,5.86
			c-0.244,0.217-0.341,0.307-0.682,0.289c-0.255-0.016-0.609-0.072-0.868-0.162c-0.235-0.087-0.313-0.123-0.292-0.455
			c0.077-1.073,0.408-3.381,0.67-4.897C15.685,11.899,15.562,11.824,15.473,11.76z M16.302,16.364
			c2.227-2.226,2.708-4.986,2.276-5.347c-0.228-0.188-0.97,0.059-1.43,0.547C16.909,12.665,16.531,14.817,16.302,16.364z"/>
		<path fill="#6CBDFF" d="M22.521,11.438c0.2-0.073,0.348-0.082,0.488,0.009c0.124,0.072,0.3,0.203,0.386,0.291
			c0.118,0.12,0.098,0.212-0.029,0.28c-0.468,0.255-1.154,0.621-1.777,1.05c-0.058,0.464-0.116,0.905-0.159,1.319
			c0.504-0.301,0.977-0.514,1.378-0.658c0.21-0.077,0.386-0.097,0.545-0.014c0.159,0.083,0.343,0.2,0.446,0.313
			c0.142,0.155,0.09,0.249-0.066,0.327c-0.633,0.334-1.589,0.853-2.164,1.287c-0.297,0.226-0.381,0.201-0.565,0.14
			c-0.146-0.045-0.342-0.115-0.454-0.183c-0.175-0.097-0.277-0.17-0.268-0.474c0.027-1.357,0.243-3.537,0.547-5.058
			c-0.096-0.117-0.202-0.261-0.266-0.347c-0.112-0.164-0.076-0.274,0.077-0.383c0.765-0.513,1.913-1.035,2.676-1.311
			c0.258-0.092,0.44-0.094,0.635-0.002c0.156,0.073,0.332,0.236,0.471,0.38c0.11,0.155,0.051,0.231-0.124,0.314
			c-0.517,0.24-1.533,0.769-2.175,1.172c-0.114,0.548-0.227,1.192-0.339,1.869C22.079,11.62,22.34,11.504,22.521,11.438z"/>
	</g>
</g>
</svg>
